<svg xmlns="http://www.w3.org/2000/svg" xmlns:xlink="http://www.w3.org/1999/xlink" viewBox="0 0 1280 2000"><defs><style>.cls-1,.cls-11,.cls-26,.cls-3,.cls-36,.cls-45,.cls-47{fill:#b3b3b3;}.cls-1{stroke:#d25259;}.cls-1,.cls-10,.cls-100,.cls-104,.cls-11,.cls-12,.cls-14,.cls-20,.cls-21,.cls-25,.cls-26,.cls-27,.cls-3,.cls-32,.cls-4,.cls-40,.cls-42,.cls-43,.cls-45,.cls-46,.cls-47,.cls-5,.cls-54,.cls-56,.cls-57,.cls-59,.cls-6,.cls-60,.cls-61,.cls-64,.cls-65,.cls-66,.cls-67,.cls-72,.cls-73,.cls-88,.cls-9,.cls-90,.cls-92{stroke-miterlimit:10;}.cls-1,.cls-10,.cls-100,.cls-104,.cls-11,.cls-12,.cls-20,.cls-21,.cls-25,.cls-26,.cls-27,.cls-3,.cls-32,.cls-4,.cls-40,.cls-45,.cls-46,.cls-47,.cls-5,.cls-54,.cls-6,.cls-64,.cls-65,.cls-66,.cls-67,.cls-72,.cls-73,.cls-88,.cls-9{stroke-width:2px;}.cls-2{fill:#754c24;}.cls-3{stroke:#f15a24;}.cls-10,.cls-12,.cls-14,.cls-20,.cls-27,.cls-4,.cls-5,.cls-6,.cls-64,.cls-65,.cls-66,.cls-67,.cls-9{stroke:#333;}.cls-4{fill:url(#linear-gradient);}.cls-5{fill:url(#Reactor_Gray_Gradient);}.cls-6{fill:url(#Reactor_Gray_Gradient-2);}.cls-27,.cls-7{fill:#666;}.cls-8{fill:#999;}.cls-9{fill:url(#Reactor_Gray_Gradient-3);}.cls-10,.cls-39{fill:#ccc;}.cls-100,.cls-11{stroke:#666;}.cls-12{fill:url(#linear-gradient-2);}.cls-13{fill:#22b573;}.cls-14{fill:#333;}.cls-15{fill:red;}.cls-16{fill:#f15a24;}.cls-17,.cls-25{fill:#fbb03b;}.cls-18{fill:url(#linear-gradient-3);}.cls-19{fill:url(#linear-gradient-4);}.cls-20{fill:url(#Reactor_Gray_Gradient-4);}.cls-21,.cls-78{fill:#29abe2;}.cls-21,.cls-47{stroke:#0071bc;}.cls-22{fill:#c7b299;}.cls-23,.cls-31{font-size:18px;}.cls-109,.cls-110,.cls-23,.cls-31,.cls-33,.cls-35,.cls-51,.cls-52,.cls-63,.cls-91,.cls-96{font-family:ArialMT, Arial;}.cls-24,.cls-33,.cls-35,.cls-82,.cls-91{font-size:12px;}.cls-25{stroke:#f7931e;}.cls-26{stroke:gray;}.cls-28{letter-spacing:-0.04em;}.cls-29{fill:#b0d3f5;}.cls-30{fill:#ffa2a5;}.cls-31{letter-spacing:0.01em;}.cls-32,.cls-42,.cls-43,.cls-46,.cls-53,.cls-56,.cls-57,.cls-59,.cls-60,.cls-61,.cls-73,.cls-90,.cls-92{fill:none;}.cls-32,.cls-88{stroke:#000;}.cls-110,.cls-34{font-size:9px;}.cls-35{letter-spacing:0.01em;}.cls-37,.cls-54,.cls-88{fill:#fff;}.cls-38{fill:#7aaa00;}.cls-40{fill:#f2f2f2;}.cls-40,.cls-57{stroke:#999;}.cls-41{fill:#a67c52;}.cls-42,.cls-43,.cls-45{stroke:#8c6239;}.cls-42,.cls-56,.cls-57{stroke-width:4px;}.cls-43,.cls-92{stroke-width:3px;}.cls-44{fill:#8c6239;}.cls-46{stroke:#b3b3b3;}.cls-48{fill:#ffd01e;}.cls-49{font-size:32px;font-family:CourierNewPSMT, Courier New;}.cls-50{font-size:41px;font-family:SegoeScript-Bold, Segoe Script;font-weight:700;}.cls-51{font-size:0.1px;}.cls-52,.cls-63{font-size:14px;}.cls-52,.cls-55,.cls-72,.cls-91{fill:#39b54a;}.cls-54{stroke:#ccc;}.cls-56{stroke:#ff5259;}.cls-56,.cls-60,.cls-73,.cls-92{stroke-linecap:round;}.cls-58{fill:#d25259;}.cls-59,.cls-60,.cls-61{stroke:#534741;}.cls-59,.cls-60{stroke-width:10px;}.cls-61{stroke-width:1.5px;}.cls-62{fill:#8cc63f;}.cls-64{fill:url(#linear-gradient-5);}.cls-65{fill:url(#Reactor_Gray_Gradient-5);}.cls-66{fill:url(#Reactor_Gray_Gradient-6);}.cls-67{fill:url(#Reactor_Gray_Gradient-7);}.cls-68{fill:#dadada;}.cls-69{fill:#e6e6e6;}.cls-70{fill:#fbeaa7;}.cls-100,.cls-71{fill:gray;}.cls-72,.cls-73{stroke:#006837;}.cls-74{font-size:10px;}.cls-75{font-size:4px;}.cls-76{fill:#0071bc;}.cls-77{fill:#2e3192;}.cls-79{fill:#c69c6d;}.cls-80{fill:#f37175;}.cls-81{font-size:1px;}.cls-82{font-family:Arial-ItalicMT, Arial;font-style:italic;}.cls-83{fill:#ff878d;}.cls-84{font-size:7px;}.cls-85{font-size:6px;}.cls-86{fill:#f7931e;}.cls-87{letter-spacing:-0.06em;}.cls-89{letter-spacing:-0.11em;}.cls-90,.cls-92{stroke:#39b54a;}.cls-93{font-size:5px;}.cls-94{font-size:2px;}.cls-95{fill:#ff5259;}.cls-96{font-size:21px;}.cls-97{font-size:3px;}.cls-98{font-size:13px;}.cls-99{font-size:17px;}.cls-101{fill:#adadad;}.cls-102{fill:#c1c1c1;}.cls-103{fill:#d5d5d5;}.cls-104{fill:#9595a9;stroke:#818195;}.cls-105{fill:#9f9fb3;}.cls-106{fill:#b8b8cc;}.cls-107{fill:#d2d2e6;}.cls-108{fill:#dedef2;}.cls-109{font-size:20.24px;}</style><linearGradient id="linear-gradient" x1="906" y1="1441.51" x2="972" y2="1441.51" gradientUnits="userSpaceOnUse"><stop offset="0" stop-color="#b3b3b3"/><stop offset="0.12" stop-color="#c1c1c1"/><stop offset="0.26" stop-color="#c9c9c9"/><stop offset="0.5" stop-color="#ccc"/><stop offset="0.74" stop-color="#c9c9c9"/><stop offset="0.88" stop-color="#c1c1c1"/><stop offset="1" stop-color="#b3b3b3"/></linearGradient><linearGradient id="Reactor_Gray_Gradient" x1="902" y1="1404" x2="976" y2="1404" xlink:href="#linear-gradient"/><linearGradient id="Reactor_Gray_Gradient-2" x1="902" y1="1478" x2="976" y2="1478" xlink:href="#linear-gradient"/><linearGradient id="Reactor_Gray_Gradient-3" y1="1441" y2="1441" xlink:href="#linear-gradient"/><linearGradient id="linear-gradient-2" x1="544.5" y1="1086" x2="544.5" y2="879" gradientUnits="userSpaceOnUse"><stop offset="0" stop-color="#fcee7f"/><stop offset="0.14" stop-color="#fce97e"/><stop offset="0.31" stop-color="#fcdb7a"/><stop offset="0.49" stop-color="#fdc374"/><stop offset="0.68" stop-color="#fea26b"/><stop offset="0.87" stop-color="#fe7860"/><stop offset="1" stop-color="#ff5757"/></linearGradient><linearGradient id="linear-gradient-3" x1="484.5" y1="897" x2="484.5" y2="884" gradientUnits="userSpaceOnUse"><stop offset="0" stop-color="#fff"/><stop offset="0.13" stop-color="#f6f8f9"/><stop offset="0.33" stop-color="#dce4e8"/><stop offset="0.54" stop-color="#bdccd4"/><stop offset="0.85" stop-color="#0075be"/><stop offset="0.99" stop-color="#005b97"/></linearGradient><linearGradient id="linear-gradient-4" x1="604.5" x2="604.5" xlink:href="#linear-gradient-3"/><linearGradient id="Reactor_Gray_Gradient-4" x1="575" y1="989" x2="610" y2="989" xlink:href="#linear-gradient"/><linearGradient id="linear-gradient-5" x1="866" y1="701.51" x2="932" y2="701.51" xlink:href="#linear-gradient"/><linearGradient id="Reactor_Gray_Gradient-5" x1="862" y1="664" x2="936" y2="664" xlink:href="#linear-gradient"/><linearGradient id="Reactor_Gray_Gradient-6" x1="862" y1="738" x2="936" y2="738" xlink:href="#linear-gradient"/><linearGradient id="Reactor_Gray_Gradient-7" x1="866" y1="701" x2="932" y2="701" xlink:href="#linear-gradient"/></defs><g id="Layer_1" data-name="Layer 1"><path class="cls-1" d="M905,640V617h123V604H899a7,7,0,0,0-7,7v29"/><rect class="cls-2" x="655" y="704" width="102" height="31"/><polyline class="cls-3" points="932 1532 932 1497 945 1497 945 1532"/><polyline class="cls-3" points="1131 1446 978 1446 978 1433 1131 1433"/><polyline class="cls-3" points="777 1446 901 1446 901 1433 777 1433"/><path class="cls-4" d="M972,1398v85.72c0,7.89-14.77,14.29-33,14.29s-33-6.4-33-14.29V1398h.14c1.52-7.28,15.65-13,32.86-13s31.34,5.71,32.86,13Z"/><rect class="cls-5" x="902" y="1400" width="74" height="8" rx="3.18"/><rect class="cls-6" x="902" y="1474" width="74" height="8" rx="3.35"/><rect class="cls-7" x="908" y="1410" width="61" height="61"/><circle class="cls-8" cx="916.5" cy="1412.5" r="3.5"/><circle class="cls-8" cx="926.5" cy="1412.5" r="3.5"/><circle class="cls-8" cx="935.5" cy="1410.5" r="3.5"/><circle class="cls-8" cx="938.5" cy="1425.5" r="3.5"/><circle class="cls-8" cx="930.5" cy="1420.5" r="3.5"/><circle class="cls-8" cx="920.5" cy="1420.5" r="3.5"/><circle class="cls-8" cx="916.5" cy="1432.5" r="3.5"/><circle class="cls-8" cx="925.5" cy="1430.5" r="3.5"/><circle class="cls-8" cx="933.5" cy="1433.5" r="3.5"/><circle class="cls-8" cx="936.5" cy="1442.5" r="3.5"/><circle class="cls-8" cx="916.5" cy="1445.5" r="3.5"/><circle class="cls-8" cx="925.5" cy="1440.5" r="3.5"/><circle class="cls-8" cx="936.5" cy="1452.5" r="3.5"/><circle class="cls-8" cx="926.5" cy="1448.5" r="3.5"/><circle class="cls-8" cx="915.5" cy="1455.5" r="3.5"/><circle class="cls-8" cx="923.5" cy="1458.5" r="3.5"/><circle class="cls-8" cx="933.5" cy="1460.5" r="3.5"/><circle class="cls-8" cx="916.5" cy="1467.5" r="3.5"/><circle class="cls-8" cx="936.5" cy="1468.5" r="3.5"/><circle class="cls-8" cx="926.5" cy="1467.5" r="3.5"/><circle class="cls-8" cx="943.5" cy="1417.5" r="3.5"/><circle class="cls-8" cx="953.5" cy="1417.5" r="3.5"/><circle class="cls-8" cx="962.5" cy="1415.5" r="3.5"/><circle class="cls-8" cx="965.5" cy="1430.5" r="3.5"/><circle class="cls-8" cx="957.5" cy="1425.5" r="3.5"/><circle class="cls-8" cx="947.5" cy="1425.5" r="3.5"/><circle class="cls-8" cx="943.5" cy="1437.5" r="3.5"/><circle class="cls-8" cx="952.5" cy="1435.5" r="3.5"/><circle class="cls-8" cx="960.5" cy="1438.5" r="3.5"/><circle class="cls-8" cx="963.5" cy="1447.5" r="3.5"/><circle class="cls-8" cx="944.5" cy="1449.5" r="3.5"/><circle class="cls-8" cx="952.5" cy="1445.5" r="3.5"/><circle class="cls-8" cx="963.5" cy="1457.5" r="3.5"/><circle class="cls-8" cx="953.5" cy="1453.5" r="3.5"/><circle class="cls-8" cx="942.5" cy="1460.5" r="3.5"/><circle class="cls-8" cx="950.5" cy="1463.5" r="3.5"/><circle class="cls-8" cx="960.5" cy="1465.5" r="3.5"/><path class="cls-9" d="M906,1408v66h66v-66Zm60.28,60.13c-3.13,3.17-5.17-1.8-9.61-1.8s-4.43,2.11-8.87,2.11-4.44-2.11-8.88-2.11-4.43,2.11-8.87,2.11-4.44-2.11-8.88-2.11-6.47,5-9.61,1.8,1.78-5.22,1.78-9.7-2.09-4.48-2.09-9,2.09-4.48,2.09-9-2.09-4.48-2.09-9,2.09-4.48,2.09-9-4.92-6.54-1.79-9.71,5.18,1.8,9.61,1.8,4.44-2.11,8.88-2.11,4.43,2.11,8.87,2.11,4.44-2.11,8.87-2.11,4.44,2.11,8.88,2.11,6.48-5,9.62-1.8-1.78,5.22-1.78,9.7,2.09,4.48,2.09,9-2.09,4.48-2.09,9,2.09,4.48,2.09,9-3.15,4.87-2.06,9.22C965.79,1463.73,969.42,1465,966.28,1468.13Z"/><rect class="cls-10" x="929" y="1498" width="19" height="6"/><rect class="cls-10" x="893.5" y="1436.5" width="19" height="6" transform="translate(-536.5 2342.5) rotate(-90)"/><rect class="cls-10" x="965.5" y="1436.5" width="19" height="6" transform="translate(-464.5 2414.5) rotate(-90)"/><path class="cls-11" d="M796,838V953h0v23h-9v13h15.24a6.69,6.69,0,0,0,6.76-6.61V838"/><rect class="cls-12" x="468" y="879" width="153" height="207" rx="6.61"/><path class="cls-11" d="M676,1001V983a7,7,0,0,1,7-7h28v13H689v12"/><circle class="cls-13" cx="751" cy="688" r="3"/><circle class="cls-13" cx="745" cy="686" r="3"/><circle class="cls-13" cx="749" cy="690" r="4"/><circle class="cls-13" cx="749.5" cy="685.5" r="1.5"/><circle class="cls-13" cx="745.5" cy="692.5" r="1.5"/><circle class="cls-13" cx="726" cy="683" r="3"/><circle class="cls-13" cx="732" cy="682" r="3"/><circle class="cls-13" cx="728" cy="686" r="4"/><circle class="cls-13" cx="727.5" cy="680.5" r="1.5"/><circle class="cls-13" cx="731.5" cy="687.5" r="1.5"/><polyline class="cls-11" points="741 1410 741 1042 754 1042 754 1410"/><path class="cls-11" d="M422,992h23.36a6.7,6.7,0,0,0,6.64-6.76V872h87v32H499a7.25,7.25,0,0,0-7,7v16h13V917h34v10h13V917h34v10h13V910.67a6.66,6.66,0,0,0-6.67-6.67H552V865.76a6.66,6.66,0,0,0-6.55-6.76h-99.9a6.66,6.66,0,0,0-6.55,6.76V979H422"/><path class="cls-11" d="M640,985v107H552v-15h40.33a6.66,6.66,0,0,0,6.67-6.67V1052H585v12H552v-12H539v12H505v-12H492v18.33a6.66,6.66,0,0,0,6.67,6.67H539v21.24a6.69,6.69,0,0,0,6.61,6.76H646.39a6.69,6.69,0,0,0,6.61-6.76V985"/><path class="cls-10" d="M498.5,925.17c-9.66,0-17.5,4.49-17.5,10v107c0,5.54,7.84,10,17.5,10s17.5-4.49,17.5-10v-107C516,929.66,508.16,925.17,498.5,925.17Z"/><rect class="cls-14" x="478.5" y="878.5" width="12" height="5"/><rect class="cls-7" x="483" y="939" width="31" height="102"/><rect class="cls-14" x="598.5" y="878.5" width="12" height="5"/><circle class="cls-8" cx="488.5" cy="944.5" r="3.5"/><circle class="cls-8" cx="498.5" cy="942.5" r="3.5"/><circle class="cls-8" cx="488.5" cy="961.5" r="3.5"/><circle class="cls-8" cx="508.5" cy="942.5" r="3.5"/><circle class="cls-8" cx="503.5" cy="951.5" r="3.5"/><circle class="cls-8" cx="493.5" cy="952.5" r="3.5"/><circle class="cls-8" cx="498.5" cy="961.5" r="3.5"/><circle class="cls-8" cx="506.5" cy="959.5" r="3.5"/><circle class="cls-8" cx="509.5" cy="974.5" r="3.5"/><circle class="cls-8" cx="501.5" cy="969.5" r="3.5"/><circle class="cls-8" cx="491.5" cy="969.5" r="3.5"/><circle class="cls-8" cx="488.5" cy="981.5" r="3.5"/><circle class="cls-8" cx="496.5" cy="979.5" r="3.5"/><circle class="cls-8" cx="504.5" cy="982.5" r="3.5"/><circle class="cls-8" cx="508.5" cy="991.5" r="3.5"/><circle class="cls-8" cx="488.5" cy="994.5" r="3.5"/><circle class="cls-8" cx="496.5" cy="989.5" r="3.5"/><circle class="cls-8" cx="508.5" cy="1001.5" r="3.5"/><circle class="cls-8" cx="498.5" cy="997.5" r="3.5"/><circle class="cls-8" cx="486.5" cy="1004.5" r="3.5"/><circle class="cls-8" cx="494.5" cy="1007.5" r="3.5"/><circle class="cls-8" cx="504.5" cy="1009.5" r="3.5"/><circle class="cls-8" cx="488.5" cy="1016.5" r="3.5"/><circle class="cls-8" cx="508.5" cy="1017.5" r="3.5"/><circle class="cls-8" cx="498.5" cy="1016.5" r="3.5"/><circle class="cls-8" cx="491.5" cy="1024.5" r="3.5"/><circle class="cls-8" cx="501.5" cy="1024.5" r="3.5"/><circle class="cls-8" cx="488.5" cy="1032.5" r="3.5"/><circle class="cls-8" cx="508.5" cy="1031.5" r="3.5"/><path class="cls-10" d="M545.5,925.17c-9.66,0-17.5,4.49-17.5,10v107c0,5.54,7.84,10,17.5,10s17.5-4.49,17.5-10v-107C563,929.66,555.16,925.17,545.5,925.17Z"/><rect class="cls-7" x="529" y="938" width="31" height="103"/><circle class="cls-8" cx="498.5" cy="1034.5" r="3.5"/><path class="cls-10" d="M592.5,925.17c-9.66,0-17.5,4.49-17.5,10v107c0,5.54,7.84,10,17.5,10s17.5-4.49,17.5-10v-107C610,929.66,602.16,925.17,592.5,925.17Z"/><circle class="cls-8" cx="534.5" cy="944.5" r="3.5"/><circle class="cls-8" cx="544.5" cy="942.5" r="3.5"/><circle class="cls-8" cx="534.5" cy="961.5" r="3.5"/><circle class="cls-8" cx="554.5" cy="942.5" r="3.5"/><circle class="cls-8" cx="549.5" cy="951.5" r="3.5"/><circle class="cls-8" cx="539.5" cy="952.5" r="3.5"/><circle class="cls-8" cx="544.5" cy="961.5" r="3.5"/><circle class="cls-8" cx="553.5" cy="959.5" r="3.5"/><circle class="cls-8" cx="556.5" cy="974.5" r="3.5"/><circle class="cls-8" cx="548.5" cy="969.5" r="3.5"/><circle class="cls-8" cx="538.5" cy="969.5" r="3.5"/><circle class="cls-8" cx="534.5" cy="981.5" r="3.5"/><circle class="cls-8" cx="543.5" cy="979.5" r="3.5"/><circle class="cls-8" cx="551.5" cy="982.5" r="3.5"/><circle class="cls-8" cx="554.5" cy="991.5" r="3.5"/><circle class="cls-8" cx="534.5" cy="994.5" r="3.5"/><circle class="cls-8" cx="543.5" cy="989.5" r="3.5"/><circle class="cls-8" cx="554.5" cy="1001.5" r="3.5"/><circle class="cls-8" cx="544.5" cy="997.5" r="3.5"/><circle class="cls-8" cx="533.5" cy="1004.5" r="3.5"/><circle class="cls-8" cx="541.5" cy="1007.5" r="3.5"/><circle class="cls-8" cx="551.5" cy="1009.5" r="3.5"/><circle class="cls-8" cx="534.5" cy="1016.5" r="3.5"/><circle class="cls-8" cx="554.5" cy="1017.5" r="3.5"/><circle class="cls-8" cx="544.5" cy="1016.5" r="3.5"/><circle class="cls-8" cx="538.5" cy="1024.5" r="3.5"/><circle class="cls-8" cx="548.5" cy="1024.5" r="3.5"/><circle class="cls-8" cx="534.5" cy="1032.5" r="3.5"/><circle class="cls-8" cx="554.5" cy="1031.5" r="3.5"/><circle class="cls-8" cx="544.5" cy="1034.5" r="3.5"/><rect class="cls-7" x="576" y="938" width="31" height="95"/><rect class="cls-10" x="525" y="938" width="41" height="7" rx="2"/><rect class="cls-10" x="525" y="1033" width="41" height="7" rx="2"/><circle class="cls-8" cx="581.5" cy="944.5" r="3.5"/><circle class="cls-8" cx="591.5" cy="942.5" r="3.5"/><circle class="cls-8" cx="581.5" cy="961.5" r="3.5"/><circle class="cls-8" cx="601.5" cy="942.5" r="3.5"/><circle class="cls-8" cx="596.5" cy="951.5" r="3.5"/><circle class="cls-8" cx="586.5" cy="952.5" r="3.5"/><circle class="cls-8" cx="591.5" cy="961.5" r="3.5"/><circle class="cls-8" cx="599.5" cy="959.5" r="3.5"/><circle class="cls-8" cx="603.5" cy="974.5" r="3.5"/><circle class="cls-8" cx="594.5" cy="969.5" r="3.5"/><circle class="cls-8" cx="584.5" cy="969.5" r="3.5"/><circle class="cls-8" cx="581.5" cy="981.5" r="3.5"/><circle class="cls-8" cx="589.5" cy="979.5" r="3.5"/><circle class="cls-8" cx="598.5" cy="982.5" r="3.5"/><circle class="cls-8" cx="601.5" cy="991.5" r="3.5"/><circle class="cls-8" cx="581.5" cy="994.5" r="3.5"/><circle class="cls-8" cx="589.5" cy="989.5" r="3.5"/><circle class="cls-8" cx="601.5" cy="1001.5" r="3.5"/><circle class="cls-8" cx="591.5" cy="997.5" r="3.5"/><circle class="cls-8" cx="579.5" cy="1004.5" r="3.5"/><circle class="cls-8" cx="588.5" cy="1007.5" r="3.5"/><circle class="cls-8" cx="598.5" cy="1009.5" r="3.5"/><circle class="cls-8" cx="581.5" cy="1016.5" r="3.5"/><circle class="cls-8" cx="601.5" cy="1017.5" r="3.5"/><circle class="cls-8" cx="591.5" cy="1016.5" r="3.5"/><circle class="cls-8" cx="584.5" cy="1024.5" r="3.5"/><circle class="cls-8" cx="594.5" cy="1024.5" r="3.5"/><circle class="cls-8" cx="581.5" cy="1032.5" r="3.5"/><circle class="cls-8" cx="601.5" cy="1031.5" r="3.5"/><circle class="cls-8" cx="591.5" cy="1034.5" r="3.5"/><ellipse class="cls-15" cx="484.5" cy="895.5" rx="8.5" ry="11.5"/><ellipse class="cls-16" cx="484.5" cy="894" rx="6.5" ry="10"/><ellipse class="cls-17" cx="484.5" cy="892.5" rx="4.5" ry="8.5"/><ellipse class="cls-18" cx="484.5" cy="890.5" rx="3.5" ry="6.5"/><ellipse class="cls-15" cx="604.5" cy="895.5" rx="8.5" ry="11.5"/><ellipse class="cls-16" cx="604.5" cy="894" rx="6.5" ry="10"/><ellipse class="cls-17" cx="604.5" cy="892.5" rx="4.5" ry="8.5"/><ellipse class="cls-19" cx="604.5" cy="890.5" rx="3.5" ry="6.5"/><rect class="cls-10" x="572" y="938" width="41" height="7" rx="2"/><rect class="cls-10" x="572" y="1033" width="41" height="7" rx="2"/><path class="cls-10" d="M528,945v88h35V945Zm28.23,81.8a3.85,3.85,0,0,1-.23.64c-1,1.94-3-1.79-5.32-1.79a4.72,4.72,0,0,0-.68,0c-1.84.27-2.06,1.64-4.3,1.64-2.39,0-2.49-1.56-4.7-1.68h-.28c-2.5,0-4.68,4.41-5.55,1.15-.06-.23-.12-.46-.17-.68-2-8.08,1.34-9.17,1.34-18.21,0-9.3-1.21-9.3-1.21-18.59s1.21-9.3,1.21-18.6-3.51-10.18-1.17-18.89c.87-3.26,3.05,1.14,5.54,1.14s2.5-1.69,5-1.69,2.49,1.69,5,1.69,4.68-4.4,5.55-1.14c2.34,8.7-1.17,9.59-1.17,18.89s1.21,9.29,1.21,18.59-2.13,9.51-1.2,18.71C556,1017.57,558.57,1018.09,556.23,1026.8Z"/><path class="cls-20" d="M575,945v88h35V945Zm28.23,81.8c-.87,3.26-3.05-1.15-5.55-1.15s-2.49,1.69-5,1.69-2.49-1.69-5-1.69-4.68,4.41-5.55,1.15c-2.34-8.71,1.17-9.6,1.17-18.89s-1.21-9.3-1.21-18.59,1.21-9.3,1.21-18.6c0-9-3.33-10.13-1.34-18.21,0-.22.11-.45.17-.68.87-3.26,3.05,1.14,5.54,1.14H588c2.21-.12,2.31-1.68,4.7-1.68,2.24,0,2.46,1.37,4.3,1.64a4.72,4.72,0,0,0,.68.05c2.3,0,4.34-3.75,5.32-1.76a2.9,2.9,0,0,1,.23.62c2.34,8.7-1.17,9.59-1.17,18.89s1.21,9.29,1.21,18.59-2.13,9.51-1.2,18.71C603,1017.57,605.57,1018.09,603.23,1026.8Z"/><path class="cls-11" d="M653,985V872h88v58h13V865.76a6.69,6.69,0,0,0-6.61-6.76H646.61a6.69,6.69,0,0,0-6.61,6.76V985"/><rect class="cls-10" x="738" y="922" width="19" height="6"/><path class="cls-10" d="M781,941v85.72c0,7.89-14.77,14.29-33,14.29s-33-6.4-33-14.29V941h.14c1.52-7.28,15.65-13,32.86-13s31.34,5.71,32.86,13Z"/><rect class="cls-10" x="711" y="943" width="74" height="8" rx="3.18"/><rect class="cls-10" x="711" y="1017" width="74" height="8" rx="3.35"/><rect class="cls-7" x="717" y="953" width="61" height="61"/><circle class="cls-8" cx="725.5" cy="955.5" r="3.5"/><circle class="cls-8" cx="735.5" cy="955.5" r="3.5"/><circle class="cls-8" cx="744.5" cy="953.5" r="3.5"/><circle class="cls-8" cx="747.5" cy="968.5" r="3.5"/><circle class="cls-8" cx="739.5" cy="963.5" r="3.5"/><circle class="cls-8" cx="729.5" cy="963.5" r="3.5"/><circle class="cls-8" cx="725.5" cy="975.5" r="3.5"/><circle class="cls-8" cx="734.5" cy="973.5" r="3.5"/><circle class="cls-8" cx="742.5" cy="976.5" r="3.5"/><circle class="cls-8" cx="745.5" cy="985.5" r="3.5"/><circle class="cls-8" cx="725.5" cy="988.5" r="3.5"/><circle class="cls-8" cx="734.5" cy="983.5" r="3.5"/><circle class="cls-8" cx="745.5" cy="995.5" r="3.5"/><circle class="cls-8" cx="735.5" cy="991.5" r="3.5"/><circle class="cls-8" cx="724.5" cy="998.5" r="3.5"/><circle class="cls-8" cx="732.5" cy="1001.5" r="3.5"/><circle class="cls-8" cx="742.5" cy="1003.5" r="3.5"/><circle class="cls-8" cx="725.5" cy="1010.5" r="3.5"/><circle class="cls-8" cx="745.5" cy="1011.5" r="3.5"/><circle class="cls-8" cx="735.5" cy="1010.5" r="3.5"/><circle class="cls-8" cx="752.5" cy="960.5" r="3.5"/><circle class="cls-8" cx="762.5" cy="960.5" r="3.5"/><circle class="cls-8" cx="771.5" cy="958.5" r="3.5"/><circle class="cls-8" cx="774.5" cy="973.5" r="3.5"/><circle class="cls-8" cx="766.5" cy="968.5" r="3.5"/><circle class="cls-8" cx="756.5" cy="968.5" r="3.5"/><circle class="cls-8" cx="752.5" cy="980.5" r="3.5"/><circle class="cls-8" cx="761.5" cy="978.5" r="3.5"/><circle class="cls-8" cx="769.5" cy="981.5" r="3.5"/><circle class="cls-8" cx="772.5" cy="990.5" r="3.5"/><circle class="cls-8" cx="753.5" cy="992.5" r="3.5"/><circle class="cls-8" cx="761.5" cy="988.5" r="3.5"/><circle class="cls-8" cx="772.5" cy="1000.5" r="3.5"/><circle class="cls-8" cx="762.5" cy="996.5" r="3.5"/><circle class="cls-8" cx="751.5" cy="1003.5" r="3.5"/><circle class="cls-8" cx="759.5" cy="1006.5" r="3.5"/><circle class="cls-8" cx="769.5" cy="1008.5" r="3.5"/><path class="cls-10" d="M715,951v66h66V951Zm60.12,60.17c-3.13,3.17-5.17-1.8-9.61-1.8s-4.43,2.11-8.87,2.11-4.44-2.11-8.88-2.11-4.43,2.11-8.87,2.11-4.44-2.11-8.88-2.11-6.47,5-9.61,1.8,1.78-5.22,1.78-9.7-2.09-4.48-2.09-9,2.09-4.48,2.09-9-2.09-4.48-2.09-9,2.09-4.48,2.09-9-4.92-6.54-1.79-9.71,5.18,1.8,9.61,1.8,4.44-2.11,8.88-2.11,4.43,2.11,8.87,2.11,4.44-2.11,8.87-2.11,4.44,2.11,8.88,2.11,6.48-5,9.62-1.8-1.78,5.22-1.78,9.7,2.09,4.48,2.09,9-2.09,4.48-2.09,9,2.09,4.48,2.09,9-3.15,4.87-2.06,9.22C774.63,1006.77,778.26,1008,775.12,1011.17Z"/><rect class="cls-10" x="738" y="1041" width="19" height="6"/><rect class="cls-10" x="702.5" y="979.5" width="19" height="6" transform="translate(-270.5 1694.5) rotate(-90)"/><rect class="cls-10" x="774.5" y="979.5" width="19" height="6" transform="translate(-198.5 1766.5) rotate(-90)"/><path class="cls-21" d="M413.5,1595l-2-6c-.67-1.33-1.33-2.67-2-4l-2-3-3-4-2-3-4-6h-1l-4,6-2,3-3,4-2,3c-.67,1.33-1.33,2.67-2,4l-2,6h0c0,.17,0,.33,0,.5,0,9.11,6.94,16.5,15.5,16.5s15.5-7.39,15.5-16.5c0-.17,0-.33,0-.5Z"/><circle class="cls-22" cx="330" cy="901" r="11"/><circle class="cls-22" cx="360.5" cy="904.5" r="14.5"/><circle class="cls-22" cx="350.5" cy="894.5" r="10.5"/><circle class="cls-22" cx="338" cy="909" r="14"/><circle class="cls-22" cx="336.5" cy="890.5" r="5.5"/><circle class="cls-22" cx="350.5" cy="915.5" r="5.5"/><text class="cls-23" transform="translate(309.39 946)">Methane <tspan x="15.19" y="21.6">(CH</tspan><tspan class="cls-24" x="47.19" y="25.6">4</tspan><tspan x="53.86" y="21.6">)</tspan></text><path class="cls-25" d="M458,1583v-13a4,4,0,0,1,4-4h44a4,4,0,0,1,4,4v13"/><path class="cls-26" d="M467,1565v-2.5c0-.83,1.34-1.5,3-1.5h5c1.66,0,3,.67,3,1.5v2.5"/><path class="cls-26" d="M491,1565v-2.5c0-.83,1.34-1.5,3-1.5h5c1.66,0,3,.67,3,1.5v2.5"/><path class="cls-27" d="M458,1583v34a4,4,0,0,0,4,4h44a4,4,0,0,0,4-4v-34"/><text class="cls-23" transform="translate(375.13 1638.41)"><tspan class="cls-28">W</tspan><tspan x="16.32" y="0">ater</tspan><tspan x="0.84" y="21.6">(H</tspan><tspan class="cls-24" x="19.83" y="25.6">2</tspan><tspan x="26.5" y="21.6">O)</tspan></text><text class="cls-23" transform="translate(449.29 1651.21)">Electricity</text><text class="cls-23" transform="translate(573.78 1638.41)">Oxygen<tspan x="14.69" y="21.6">(O</tspan><tspan class="cls-24" x="34.68" y="25.6">2</tspan><tspan x="41.35" y="21.6">)</tspan></text><text class="cls-23" transform="translate(665.77 1638.41)">Hydrogen<tspan x="23.19" y="21.6">(H</tspan><tspan class="cls-24" x="42.19" y="25.6">2</tspan><tspan x="48.86" y="21.6">)</tspan></text><circle class="cls-29" cx="588" cy="1588" r="11"/><circle class="cls-29" cx="618.5" cy="1591.5" r="14.5"/><circle class="cls-29" cx="608.5" cy="1581.5" r="10.5"/><circle class="cls-29" cx="596" cy="1596" r="14"/><circle class="cls-29" cx="594.5" cy="1577.5" r="5.5"/><circle class="cls-29" cx="608.5" cy="1602.5" r="5.5"/><circle class="cls-30" cx="684" cy="1589" r="11"/><circle class="cls-30" cx="714.5" cy="1592.5" r="14.5"/><circle class="cls-30" cx="704.5" cy="1582.5" r="10.5"/><circle class="cls-30" cx="692" cy="1597" r="14"/><circle class="cls-30" cx="690.5" cy="1578.5" r="5.5"/><circle class="cls-30" cx="704.5" cy="1603.5" r="5.5"/><text class="cls-31" transform="translate(428.4 1651.21)">+</text><text class="cls-31" transform="translate(639.4 1651.21)">+</text><line class="cls-32" x1="534" y1="1646" x2="565.37" y2="1646"/><polygon points="560.4 1652.13 559.38 1651.04 564.8 1646 559.38 1640.96 560.4 1639.87 567 1646 560.4 1652.13"/><path class="cls-21" d="M404.36,1052q-1-3-2-6l-2-4-2-3-3-4-2-3-4-6h-1l-4,6-2,3-3,4-2,3-2,4q-1,3-2,6h0c0,.17,0,.33,0,.5,0,9.11,6.94,16.5,15.5,16.5s15.5-7.39,15.5-16.5c0-.17,0-.33,0-.5Z"/><text class="cls-23" transform="translate(365.99 1088.75)"><tspan class="cls-28">W</tspan><tspan x="16.32" y="0">ater</tspan><tspan x="0.84" y="21.6">(H</tspan><tspan class="cls-24" x="19.83" y="25.6">2</tspan><tspan x="26.5" y="21.6">O)</tspan></text><path class="cls-32" d="M387,1017V998a5,5,0,0,1,5-5h15.37"/><polygon points="402.4 999.13 401.38 998.04 406.8 993 401.38 987.97 402.4 986.87 409 993 402.4 999.13"/><line class="cls-32" x1="556" y1="1117" x2="632.37" y2="1117"/><polygon points="627.4 1123.13 626.38 1122.04 631.8 1117 626.38 1111.96 627.4 1110.87 634 1117 627.4 1123.13"/><text class="cls-33" transform="translate(537.12 1175.38)">Carbon <tspan x="-4.67" y="14.4">Monoxide</tspan><tspan x="8.35" y="28.8">(CO)</tspan></text><text class="cls-33" transform="translate(604.43 1182.58)">Hydrogen<tspan x="15.18" y="14.4">(H</tspan><tspan class="cls-34" x="27.85" y="18.4">2</tspan><tspan x="32.85" y="14.4">)</tspan></text><text class="cls-35" transform="translate(590.51 1189.78)">&amp;</text><circle class="cls-30" cx="615.5" cy="1145.5" r="8.5"/><circle class="cls-30" cx="639.5" cy="1148.5" r="11.5"/><circle class="cls-30" cx="631.5" cy="1140.5" r="8.5"/><circle class="cls-30" cx="622" cy="1152" r="11"/><circle class="cls-30" cx="620.5" cy="1137.5" r="4.5"/><circle class="cls-30" cx="631.5" cy="1157.5" r="4.5"/><circle class="cls-36" cx="545.5" cy="1145.5" r="8.5"/><circle class="cls-36" cx="569.5" cy="1148.5" r="11.5"/><circle class="cls-36" cx="561.5" cy="1140.5" r="8.5"/><circle class="cls-36" cx="552" cy="1152" r="11"/><circle class="cls-36" cx="550.5" cy="1137.5" r="4.5"/><circle class="cls-36" cx="561.5" cy="1157.5" r="4.5"/><circle cx="559" cy="1134" r="8"/><rect x="544.58" y="1147.2" width="27.74" height="3.58" transform="translate(579.01 2426.34) rotate(-155)"/><circle cx="545" cy="1146" r="2"/><circle cx="547" cy="1141" r="2"/><circle cx="570" cy="1157" r="2"/><circle cx="572" cy="1153" r="2"/><rect x="545.82" y="1147.31" width="27.74" height="3.58" transform="translate(-433.19 344.2) rotate(-25)"/><circle cx="571" cy="1141" r="2"/><circle cx="572" cy="1146" r="2"/><circle cx="546" cy="1153" r="2"/><circle cx="547" cy="1157" r="2"/><circle class="cls-37" cx="555.5" cy="1133.5" r="2.5"/><circle class="cls-37" cx="562.5" cy="1133.5" r="2.5"/><text class="cls-33" transform="translate(666.02 1087.98)"><tspan class="cls-28">W</tspan><tspan x="10.88" y="0">ater</tspan><tspan x="0.28" y="14.4">(H</tspan><tspan class="cls-34" x="12.94" y="18.4">2</tspan><tspan x="17.95" y="14.4">O)</tspan></text><path class="cls-21" d="M693.72,1057c-.46-1.38-.92-2.77-1.39-4.15l-1.38-2.77c-.46-.7-.92-1.39-1.39-2.08l-2.07-2.77c-.46-.69-.93-1.38-1.39-2.08-.92-1.38-1.84-2.77-2.77-4.15h-.69c-.92,1.38-1.84,2.77-2.77,4.15l-1.38,2.08-2.08,2.77-1.38,2.08c-.47.92-.93,1.84-1.39,2.77l-1.38,4.15h0c0,.12,0,.23,0,.35,0,6.3,4.8,11.42,10.73,11.42s10.73-5.12,10.73-11.42c0-.12,0-.23,0-.35Z"/><text class="cls-33" transform="translate(839.76 905.58)">Carbon<tspan x="-0.33" y="14.4">Dioxide</tspan><tspan x="4.18" y="28.8">(CO</tspan><tspan class="cls-34" x="26.18" y="32.8">2</tspan><tspan x="31.18" y="28.8">)</tspan></text><circle class="cls-38" cx="844.5" cy="868.5" r="8.5"/><circle class="cls-38" cx="868.5" cy="871.5" r="11.5"/><circle class="cls-38" cx="860.5" cy="863.5" r="8.5"/><circle class="cls-38" cx="851" cy="875" r="11"/><circle class="cls-38" cx="849.5" cy="860.5" r="4.5"/><circle class="cls-38" cx="860.5" cy="880.5" r="4.5"/><circle cx="852" cy="866" r="3"/><circle cx="862" cy="866" r="3"/><path class="cls-32" d="M862,878c0-2.21-2.24-4-5-4s-5,1.79-5,4"/><path class="cls-32" d="M702,1560v-19a5,5,0,0,1,5-5h15.37"/><polygon points="717.4 1542.13 716.38 1541.04 721.8 1536 716.38 1530.96 717.4 1529.87 724 1536 717.4 1542.13"/><text class="cls-23" transform="translate(904.96 1648.75)">Nitrogen<tspan x="18.19" y="21.6">(N</tspan><tspan class="cls-24" x="37.18" y="25.6">2</tspan><tspan x="43.85" y="21.6">)</tspan></text><circle class="cls-39" cx="922" cy="1598" r="11"/><circle class="cls-39" cx="952.5" cy="1601.5" r="14.5"/><circle class="cls-39" cx="942.5" cy="1591.5" r="10.5"/><circle class="cls-39" cx="930" cy="1606" r="14"/><circle class="cls-39" cx="928.5" cy="1587.5" r="5.5"/><circle class="cls-39" cx="942.5" cy="1612.5" r="5.5"/><line class="cls-32" x1="939" y1="1573" x2="939" y2="1541.63"/><polygon points="945.13 1546.6 944.04 1547.62 939 1542.2 933.97 1547.62 932.87 1546.6 939 1540 945.13 1546.6"/><text class="cls-33" transform="translate(780.28 1264.09)">Hydrogen<tspan x="15.18" y="14.4">(H</tspan><tspan class="cls-34" x="27.85" y="18.4">2</tspan><tspan x="32.85" y="14.4">)</tspan></text><circle class="cls-30" cx="791.5" cy="1227.5" r="8.5"/><circle class="cls-30" cx="815.5" cy="1230.5" r="11.5"/><circle class="cls-30" cx="807.5" cy="1222.5" r="8.5"/><circle class="cls-30" cx="798" cy="1234" r="11"/><circle class="cls-30" cx="796.5" cy="1219.5" r="4.5"/><circle class="cls-30" cx="807.5" cy="1239.5" r="4.5"/><line class="cls-32" x1="770" y1="1211" x2="770" y2="1287.37"/><polygon points="763.87 1282.4 764.96 1281.38 770 1286.8 775.03 1281.38 776.13 1282.4 770 1289 763.87 1282.4"/><line class="cls-32" x1="824" y1="936" x2="824" y2="859.63"/><polygon points="830.13 864.6 829.04 865.62 824 860.2 818.97 865.62 817.87 864.6 824 858 830.13 864.6"/><line class="cls-32" x1="1138" y1="1440" x2="1169.37" y2="1440"/><polygon points="1164.4 1446.13 1163.38 1445.04 1168.8 1440 1163.38 1434.96 1164.4 1433.87 1171 1440 1164.4 1446.13"/><path class="cls-40" d="M1233.65,1419q-1-3-2-6c-.67-1.33-1.34-2.67-2-4-.67-1-1.34-2-2-3l-3-4c-.67-1-1.34-2-2-3q-2-3-4-6h-1q-2,3-4,6c-.67,1-1.34,2-2,3l-3,4c-.67,1-1.34,2-2,3-.67,1.33-1.34,2.67-2,4q-1,3-2,6h0c0,.17,0,.33,0,.5,0,9.11,6.94,16.5,15.5,16.5s15.5-7.39,15.5-16.5c0-.17,0-.33,0-.5Z"/><text class="cls-23" transform="translate(1180.93 1462.82)">Ammonia<tspan x="15.68" y="21.6">(NH</tspan><tspan class="cls-24" x="47.67" y="25.6">3</tspan><tspan x="54.35" y="21.6">)</tspan></text><rect class="cls-32" x="656" y="1561" width="97" height="118" rx="3.94"/><rect class="cls-41" x="655" y="697" width="102" height="7"/><circle class="cls-38" cx="646.5" cy="640.5" r="8.5"/><circle class="cls-38" cx="670.5" cy="643.5" r="11.5"/><circle class="cls-38" cx="662.5" cy="635.5" r="8.5"/><circle class="cls-38" cx="653" cy="647" r="11"/><circle class="cls-38" cx="651.5" cy="632.5" r="4.5"/><circle class="cls-38" cx="662.5" cy="652.5" r="4.5"/><circle cx="654" cy="638" r="3"/><circle cx="664" cy="638" r="3"/><path class="cls-32" d="M663.5,650c0-2.21-2.24-4-5-4s-5,1.79-5,4"/><path class="cls-32" d="M688,644h14a5,5,0,0,1,5,5v39.37"/><polygon points="700.87 683.4 701.96 682.38 707 687.8 712.03 682.38 713.13 683.4 707 690 700.87 683.4"/><circle class="cls-13" cx="750" cy="664" r="7"/><circle class="cls-13" cx="729.5" cy="666.5" r="9.5"/><circle class="cls-13" cx="736" cy="660" r="7"/><circle class="cls-13" cx="744.5" cy="669.5" r="9.5"/><circle class="cls-13" cx="746" cy="658" r="4"/><circle class="cls-13" cx="736" cy="674" r="4"/><line class="cls-42" x1="739" y1="668" x2="739" y2="697"/><line class="cls-43" x1="739" y1="692" x2="748" y2="688"/><line class="cls-43" x1="739" y1="688" x2="729" y2="684"/><circle class="cls-44" cx="739" cy="668" r="2"/><line class="cls-32" x1="683" y1="1032" x2="683" y2="1012.63"/><polygon points="689.13 1017.6 688.04 1018.62 683 1013.2 677.97 1018.62 676.87 1017.6 683 1011 689.13 1017.6"/><path class="cls-45" d="M773,802H713V742H700v66a7,7,0,0,0,5.92,6.86l.23,0,.2,0c.11,0,.21,0,.32,0H773"/><line class="cls-46" x1="712" y1="742" x2="701" y2="742"/><path class="cls-47" d="M741,1469v59H729v13h18.33c.11,0,.21,0,.32,0l.2,0,.23,0a7,7,0,0,0,5.92-6.86v-65"/><line class="cls-46" x1="729" y1="1529" x2="729" y2="1540"/><polygon class="cls-48" points="478.4 1603 484.05 1591 490.35 1591 484.63 1598 490.73 1598 477 1614.17 483.86 1603 478.4 1603"/><text class="cls-49" transform="translate(46.2 66.54)">Fertilizer Factory <tspan class="cls-50"><tspan x="0" y="49.2">Design Challenge</tspan></tspan></text><text class="cls-51" transform="translate(820 1523)">Lorem ipsum</text><text class="cls-52" transform="translate(792.85 1352.4)">Hydrogen (H<tspan x="79.37" y="4">2</tspan><tspan x="87.15" y="0">)</tspan><tspan x="13.6" y="16.8">going into </tspan><tspan x="10.5" y="33.6">the reactor:</tspan><tspan class="cls-53"><tspan x="32.28" y="50.4">0.00</tspan></tspan><tspan x="7.38" y="67.2">tons per day</tspan></text><text class="cls-52" transform="translate(1009.37 1352.4)">Ammonia (NH<tspan x="87.9" y="4">3</tspan><tspan x="95.69" y="0">)</tspan><tspan x="6.21" y="16.8">coming out of </tspan><tspan x="14.77" y="33.6">the reactor:</tspan><tspan class="cls-53"><tspan x="36.55" y="50.4">0.00</tspan></tspan><tspan x="11.65" y="67.2">tons per day</tspan></text><path class="cls-54" d="M1058,1046.92a3.91,3.91,0,0,0-3.92-3.92H800a4,4,0,0,1-1.83-.44l-24.63-12.63a4,4,0,0,0-5.16,5.76l16,24.31a4,4,0,0,1,.66,2.2v101.88a3.91,3.91,0,0,0,3.92,3.92h265.16a3.91,3.91,0,0,0,3.92-3.92Z"/><text class="cls-23" transform="translate(837.24 1066.68)">Chemical Reaction:</text><text class="cls-33" transform="translate(865.67 1128.72)"><tspan class="cls-28">W</tspan><tspan x="10.88" y="0">ater</tspan><tspan x="0.28" y="14.4">(H</tspan><tspan class="cls-34" x="12.94" y="18.4">2</tspan><tspan x="17.95" y="14.4">O)</tspan></text><text class="cls-33" transform="translate(803.22 1128.72)">Carbon<tspan x="-6.34" y="14.4">Monoxide</tspan><tspan x="6.68" y="28.8">(CO)</tspan></text><text class="cls-33" transform="translate(933.57 1128.72)">Carbon <tspan x="1.34" y="14.4">Dioxide</tspan><tspan x="5.85" y="28.8">(CO</tspan><tspan class="cls-34" x="27.84" y="32.8">2</tspan><tspan x="32.85" y="28.8">)</tspan></text><text class="cls-33" transform="translate(996.88 1128.72)">Hydrogen<tspan x="15.18" y="14.4">(H</tspan><tspan class="cls-34" x="27.85" y="18.4">2</tspan><tspan x="32.85" y="14.4">)</tspan></text><text class="cls-31" transform="translate(849.83 1136.52)">+</text><text class="cls-31" transform="translate(980.71 1136.52)">+</text><line class="cls-32" x1="902" y1="1131" x2="924.37" y2="1131"/><polygon points="919.4 1137.13 918.38 1136.04 923.8 1131 918.38 1125.96 919.4 1124.87 926 1131 919.4 1137.13"/><path class="cls-21" d="M893.37,1098c-.46-1.38-.92-2.77-1.39-4.15l-1.38-2.77-1.38-2.08c-.7-.92-1.39-1.85-2.08-2.77l-1.39-2.08c-.92-1.38-1.84-2.77-2.77-4.15h-.69c-.92,1.38-1.84,2.77-2.77,4.15l-1.38,2.08-2.08,2.77-1.38,2.08c-.46.92-.93,1.84-1.39,2.77l-1.38,4.15h0c0,.12,0,.23,0,.35,0,6.3,4.8,11.42,10.73,11.42s10.73-5.12,10.73-11.42c0-.12,0-.23,0-.35Z"/><circle class="cls-30" cx="1008.5" cy="1094.5" r="8.5"/><circle class="cls-30" cx="1032.5" cy="1097.5" r="11.5"/><circle class="cls-30" cx="1024.5" cy="1089.5" r="8.5"/><circle class="cls-30" cx="1015" cy="1101" r="11"/><circle class="cls-30" cx="1013.5" cy="1086.5" r="4.5"/><circle class="cls-30" cx="1024.5" cy="1106.5" r="4.5"/><circle class="cls-36" cx="809.5" cy="1094.5" r="8.5"/><circle class="cls-36" cx="833.5" cy="1097.5" r="11.5"/><circle class="cls-36" cx="825.5" cy="1089.5" r="8.5"/><circle class="cls-36" cx="816" cy="1101" r="11"/><circle class="cls-36" cx="814.5" cy="1086.5" r="4.5"/><circle class="cls-36" cx="825.5" cy="1106.5" r="4.5"/><circle cx="823" cy="1083" r="8"/><rect x="808.54" y="1096.22" width="27.74" height="3.58" transform="translate(1103.72 2440.72) rotate(-155)"/><circle cx="809" cy="1095" r="2"/><circle cx="811" cy="1090" r="2"/><circle cx="834" cy="1106" r="2"/><circle cx="836" cy="1102" r="2"/><rect x="809.77" y="1096.34" width="27.74" height="3.58" transform="translate(-386.92 450.97) rotate(-25)"/><circle cx="835" cy="1090" r="2"/><circle cx="836" cy="1095" r="2"/><circle cx="810" cy="1102" r="2"/><circle cx="811" cy="1106" r="2"/><circle class="cls-37" cx="819.5" cy="1082.5" r="2.5"/><circle class="cls-37" cx="826.5" cy="1082.5" r="2.5"/><circle class="cls-38" cx="942.5" cy="1094.5" r="8.5"/><circle class="cls-38" cx="966.5" cy="1097.5" r="11.5"/><circle class="cls-38" cx="958.5" cy="1089.5" r="8.5"/><circle class="cls-38" cx="949" cy="1101" r="11"/><circle class="cls-38" cx="947.5" cy="1086.5" r="4.5"/><circle class="cls-38" cx="958.5" cy="1106.5" r="4.5"/><circle cx="950" cy="1092" r="3"/><circle cx="960" cy="1092" r="3"/><path class="cls-32" d="M960,1104c0-2.21-2.24-4-5-4s-5,1.79-5,4"/><text class="cls-52" transform="translate(822.54 969.72)">Carbon dioxide (CO<tspan x="123.72" y="4">2</tspan><tspan x="131.51" y="0">) </tspan><tspan x="0" y="16.8">leaving the reactor: </tspan><tspan class="cls-53"><tspan x="0" y="33.6">2.5 </tspan><tspan class="cls-55" x="23.35" y="33.6">tons per day</tspan></tspan></text><path class="cls-1" d="M1219.08,903.09l-.23,0-.2,0c-.11,0-.21,0-.32,0H972V809a7,7,0,0,0-5.92-6.86l-.23,0-.2,0c-.11,0-.21,0-.32,0H905V742H892v60H832v13h66.33c.11,0,.21,0,.32,0l.2,0,.15,0V815h60v94a7,7,0,0,0,5.92,6.86l.23,0,.2,0c.11,0,.21,0,.32,0H1212v380h13V910A7,7,0,0,0,1219.08,903.09Z"/><line class="cls-46" x1="893" y1="742" x2="904" y2="742"/><line class="cls-46" x1="832" y1="814" x2="832" y2="803"/><rect class="cls-8" x="117" y="1055" width="144" height="37"/><rect class="cls-2" x="117" y="1048" width="144" height="7"/><line class="cls-56" x1="189" y1="1038" x2="189" y2="919"/><path class="cls-57" d="M222.88,1038h-68l12-106h44Z"/><line class="cls-57" x1="165.38" y1="932" x2="212.38" y2="959"/><line class="cls-57" x1="215.38" y1="959" x2="162.38" y2="985"/><line class="cls-57" x1="218.38" y1="1012" x2="159.38" y2="983"/><line class="cls-57" x1="221.38" y1="1012" x2="156.38" y2="1038"/><line class="cls-57" x1="212.38" y1="932" x2="165.38" y2="959"/><line class="cls-57" x1="215.38" y1="985" x2="162.38" y2="959"/><line class="cls-57" x1="218.38" y1="985" x2="159.38" y2="1012"/><line class="cls-57" x1="221.38" y1="1038" x2="156.38" y2="1012"/><rect class="cls-58" x="160" y="929" width="58" height="6" rx="3"/><rect class="cls-58" x="154" y="982" width="70" height="6" rx="2.74"/><path class="cls-58" d="M148,1040h82a5,5,0,0,1,5,5v3a0,0,0,0,1,0,0H143a0,0,0,0,1,0,0v-3A5,5,0,0,1,148,1040Z"/><line class="cls-59" x1="189" y1="1067" x2="189" y2="1048"/><line class="cls-60" x1="249" y1="1075" x2="197" y2="1075"/><path class="cls-59" d="M189,1067v4.5a3.5,3.5,0,0,0,3.5,3.5H197"/><path class="cls-61" d="M226.73,1071a2.35,2.35,0,0,1,2-3.21c.62,0,1.29.16,1.82-.15a2.18,2.18,0,0,0,.47-.44,13.49,13.49,0,0,0,1-1.36,1.44,1.44,0,0,0,.32-.85c0-.5-.47-.85-.89-1.12l-2.88-1.91a.8.8,0,0,1-.43-.51c0-.3.25-.54.51-.71l.77-.5"/><path class="cls-61" d="M224.55,1062.5l-.15,2.9a.39.39,0,0,0,0,.28c.07.09.21.09.32.09l3.54,0a.82.82,0,0,1,.38.06.86.86,0,0,1,.29.25l1.11,1.31"/><path class="cls-61" d="M236.45,1061.76c-.58.12-.92.7-1.23,1.2s-.77,1-1.36,1a2,2,0,0,1-.6-.21,3.73,3.73,0,0,0-2.19-.21"/><path class="cls-61" d="M212.45,1070.93a3.66,3.66,0,0,1,.75-2,17.68,17.68,0,0,0,1.71-3.88.35.35,0,0,0,0-.3.32.32,0,0,0-.27-.09,3.29,3.29,0,0,1-1.82-.38,2,2,0,0,1-.79-1.62,6.08,6.08,0,0,1,.32-1.84"/><path class="cls-61" d="M218,1063.51a.74.74,0,0,0-1,.38,2.14,2.14,0,0,0,0,1.23,2.06,2.06,0,0,1-.05,1.23,1.64,1.64,0,0,1-1.93-.62"/><path class="cls-61" d="M208.92,1066.07a5.23,5.23,0,0,0,.38,1.28,1,1,0,0,0,.4.51c.33.17.72,0,1.06-.17a8.18,8.18,0,0,1,2.18-.53c.31-.05.7-.05.85.22"/><path class="cls-61" d="M247.58,1071.16a3.78,3.78,0,0,0-.75-2,17.85,17.85,0,0,1-1.72-3.87.34.34,0,0,1,0-.31.32.32,0,0,1,.27-.09,3.39,3.39,0,0,0,1.82-.37,2,2,0,0,0,.78-1.63,5.89,5.89,0,0,0-.32-1.84"/><path class="cls-61" d="M242.06,1063.74a.73.73,0,0,1,1,.38,2.09,2.09,0,0,1,0,1.24,2.14,2.14,0,0,0,0,1.23,1.66,1.66,0,0,0,1.94-.63"/><path class="cls-61" d="M251.11,1066.3a5.31,5.31,0,0,1-.38,1.29,1.09,1.09,0,0,1-.41.51c-.32.17-.72,0-1.06-.17a8.42,8.42,0,0,0-2.17-.54c-.31,0-.7-.05-.86.22"/><path class="cls-61" d="M219.2,1078a2.36,2.36,0,0,0,2.05,3.21c.61,0,1.28-.16,1.81.15a2,2,0,0,1,.48.44,13.39,13.39,0,0,1,1,1.36,1.53,1.53,0,0,1,.33.85c0,.5-.48.85-.89,1.12l-2.88,1.91c-.19.12-.41.28-.44.51s.25.54.51.71l.77.5"/><path class="cls-61" d="M217,1086.5l-.16-2.9a.39.39,0,0,1,0-.28.42.42,0,0,1,.33-.09l3.53,0a.82.82,0,0,0,.38-.06.78.78,0,0,0,.29-.25l1.11-1.31"/><path class="cls-61" d="M228.93,1087.24c-.58-.12-.92-.7-1.23-1.2s-.78-1-1.36-1a1.87,1.87,0,0,0-.6.21,3.73,3.73,0,0,1-2.19.21"/><path class="cls-61" d="M204.92,1078.07a3.74,3.74,0,0,0,.75,2,17.72,17.72,0,0,1,1.72,3.88c0,.1.06.22,0,.3a.32.32,0,0,1-.27.09,3.31,3.31,0,0,0-1.82.38,2,2,0,0,0-.78,1.62,5.79,5.79,0,0,0,.32,1.84"/><path class="cls-61" d="M210.44,1085.49a.73.73,0,0,1-1-.38,2.06,2.06,0,0,1,0-1.23,2.14,2.14,0,0,0,0-1.23,1.65,1.65,0,0,0-1.94.62"/><path class="cls-61" d="M201.39,1082.93a5.23,5.23,0,0,1,.38-1.28,1,1,0,0,1,.41-.51c.32-.17.72,0,1.06.17a8,8,0,0,0,2.17.53c.31.05.7.05.86-.22"/><path class="cls-61" d="M240.05,1077.84a3.69,3.69,0,0,1-.75,2,17.82,17.82,0,0,0-1.71,3.87.37.37,0,0,0,0,.31.32.32,0,0,0,.27.09,3.37,3.37,0,0,1,1.82.37,2,2,0,0,1,.79,1.63,6.19,6.19,0,0,1-.32,1.84"/><path class="cls-61" d="M234.53,1085.26a.74.74,0,0,0,1-.38,2.17,2.17,0,0,0,0-1.24,2.06,2.06,0,0,1,.05-1.23,1.64,1.64,0,0,1,1.93.63"/><path class="cls-61" d="M243.58,1082.7a5.31,5.31,0,0,0-.38-1.29,1.07,1.07,0,0,0-.4-.51c-.33-.17-.72,0-1.06.17a8.6,8.6,0,0,1-2.18.54c-.31,0-.7.05-.85-.22"/><circle class="cls-22" cx="142.5" cy="1066.5" r="2.5"/><circle class="cls-22" cx="162.5" cy="1082.5" r="2.5"/><circle class="cls-22" cx="202.5" cy="1060.5" r="2.5"/><circle class="cls-22" cx="254.5" cy="1086.5" r="2.5"/><circle class="cls-22" cx="124.5" cy="1061.5" r="2.5"/><circle class="cls-22" cx="190.5" cy="1052.5" r="2.5"/><circle class="cls-22" cx="191.5" cy="1087.5" r="2.5"/><circle class="cls-22" cx="132.5" cy="1085.5" r="2.5"/><circle class="cls-22" cx="149" cy="1081" r="4"/><circle class="cls-22" cx="158" cy="1062" r="4"/><circle class="cls-22" cx="130" cy="1073" r="4"/><circle class="cls-22" cx="181" cy="1084" r="4"/><circle class="cls-22" cx="173" cy="1068" r="4"/><circle class="cls-22" cx="189.5" cy="1067.5" r="2.5"/><circle class="cls-22" cx="201.5" cy="1075.5" r="2.5"/><circle class="cls-22" cx="226.5" cy="1075.5" r="2.5"/><circle class="cls-22" cx="241.5" cy="1074.5" r="2.5"/><circle class="cls-22" cx="218.5" cy="1073.5" r="2.5"/><circle class="cls-22" cx="191.5" cy="1074.5" r="2.5"/><line class="cls-32" x1="266" y1="978" x2="407.37" y2="978"/><polygon points="402.4 984.13 401.38 983.04 406.8 978 401.38 972.97 402.4 971.87 409 978 402.4 984.13"/><path class="cls-62" d="M687,704c0,.09,0,.18,0,.27,0,8.14,9,14.73,20,14.73s20-6.59,20-14.73c0-.09,0-.18,0-.27Z"/><rect class="cls-62" x="703" y="697" width="8" height="9"/><text class="cls-63" transform="translate(19.38 1978)"><tspan xml:space="preserve"> © 2020 Danna Nozik</tspan></text><rect class="cls-10" x="889" y="639" width="19" height="6"/><path class="cls-64" d="M932,658v85.72c0,7.89-14.77,14.29-33,14.29s-33-6.4-33-14.29V658h.14c1.52-7.28,15.65-13,32.86-13s31.34,5.71,32.86,13Z"/><rect class="cls-65" x="862" y="660" width="74" height="8" rx="3.18"/><rect class="cls-66" x="862" y="734" width="74" height="8" rx="3.35"/><rect class="cls-7" x="868" y="670" width="61" height="61"/><circle class="cls-8" cx="876.5" cy="672.5" r="3.5"/><circle class="cls-8" cx="886.5" cy="672.5" r="3.5"/><circle class="cls-8" cx="895.5" cy="670.5" r="3.5"/><circle class="cls-8" cx="898.5" cy="685.5" r="3.5"/><circle class="cls-8" cx="890.5" cy="680.5" r="3.5"/><circle class="cls-8" cx="880.5" cy="680.5" r="3.5"/><circle class="cls-8" cx="876.5" cy="692.5" r="3.5"/><circle class="cls-8" cx="885.5" cy="690.5" r="3.5"/><circle class="cls-8" cx="893.5" cy="693.5" r="3.5"/><circle class="cls-8" cx="896.5" cy="702.5" r="3.5"/><circle class="cls-8" cx="876.5" cy="705.5" r="3.5"/><circle class="cls-8" cx="885.5" cy="700.5" r="3.5"/><circle class="cls-8" cx="896.5" cy="712.5" r="3.5"/><circle class="cls-8" cx="886.5" cy="708.5" r="3.5"/><circle class="cls-8" cx="875.5" cy="715.5" r="3.5"/><circle class="cls-8" cx="883.5" cy="718.5" r="3.5"/><circle class="cls-8" cx="893.5" cy="720.5" r="3.5"/><circle class="cls-8" cx="876.5" cy="727.5" r="3.5"/><circle class="cls-8" cx="896.5" cy="728.5" r="3.5"/><circle class="cls-8" cx="886.5" cy="727.5" r="3.5"/><circle class="cls-8" cx="903.5" cy="677.5" r="3.5"/><circle class="cls-8" cx="913.5" cy="677.5" r="3.5"/><circle class="cls-8" cx="922.5" cy="675.5" r="3.5"/><circle class="cls-8" cx="925.5" cy="690.5" r="3.5"/><circle class="cls-8" cx="917.5" cy="685.5" r="3.5"/><circle class="cls-8" cx="907.5" cy="685.5" r="3.5"/><circle class="cls-8" cx="903.5" cy="697.5" r="3.5"/><circle class="cls-8" cx="912.5" cy="695.5" r="3.5"/><circle class="cls-8" cx="920.5" cy="698.5" r="3.5"/><circle class="cls-8" cx="923.5" cy="707.5" r="3.5"/><circle class="cls-8" cx="904.5" cy="709.5" r="3.5"/><circle class="cls-8" cx="912.5" cy="705.5" r="3.5"/><circle class="cls-8" cx="923.5" cy="717.5" r="3.5"/><circle class="cls-8" cx="913.5" cy="713.5" r="3.5"/><circle class="cls-8" cx="902.5" cy="720.5" r="3.5"/><circle class="cls-8" cx="910.5" cy="723.5" r="3.5"/><circle class="cls-8" cx="920.5" cy="725.5" r="3.5"/><path class="cls-67" d="M866,668v66h66V668Zm60.12,60.17c-3.13,3.17-5.17-1.8-9.61-1.8s-4.43,2.11-8.87,2.11-4.44-2.11-8.88-2.11-4.43,2.11-8.87,2.11-4.44-2.11-8.88-2.11-6.47,5-9.61,1.8,1.78-5.22,1.78-9.7-2.09-4.48-2.09-9,2.09-4.48,2.09-9-2.09-4.48-2.09-9,2.09-4.48,2.09-9-4.92-6.54-1.79-9.71,5.18,1.8,9.61,1.8,4.44-2.11,8.88-2.11,4.43,2.11,8.87,2.11,4.44-2.11,8.87-2.11,4.44,2.11,8.88,2.11,6.48-5,9.62-1.8-1.78,5.22-1.78,9.7,2.09,4.48,2.09,9-2.09,4.48-2.09,9,2.09,4.48,2.09,9-3.15,4.87-2.06,9.22C925.63,723.77,929.26,725,926.12,728.17Z"/><rect class="cls-10" x="889" y="758" width="19" height="6"/><line class="cls-46" x1="1028" y1="605" x2="1028" y2="616"/><rect class="cls-36" x="1213" y="1294" width="11" height="3"/><path class="cls-10" d="M481,945v88h35V945Zm28.23,81.8c-.87,3.26-3.05-1.15-5.55-1.15s-2.49,1.69-5,1.69-2.49-1.69-5-1.69-4.68,4.41-5.55,1.15c-2.34-8.71,1.17-9.6,1.17-18.89s-1.21-9.3-1.21-18.59,1.21-9.3,1.21-18.6-3.51-10.18-1.17-18.89c.87-3.26,3.05,1.14,5.54,1.14s2.5-1.69,5-1.69,2.49,1.69,5,1.69,4.68-4.4,5.55-1.14c2.34,8.7-1.17,9.59-1.17,18.89s1.21,9.29,1.21,18.59-2.13,9.51-1.2,18.71C509,1017.57,511.57,1018.09,509.23,1026.8Z"/><rect class="cls-10" x="478" y="938" width="41" height="7" rx="2"/><rect class="cls-10" x="478" y="1033" width="41" height="7" rx="2"/><path class="cls-68" d="M556,937c-1.33-4-5.52-7-10.5-7s-9.17,3-10.5,7Z"/><path class="cls-69" d="M550,937a4.88,4.88,0,0,0-9,0Z"/><rect class="cls-68" x="532" y="940" width="27" height="3" rx="1.5"/><rect class="cls-69" x="539" y="941" width="13" height="1" rx="0.5"/><path class="cls-68" d="M555.75,1041c-1.33,4-5.52,7-10.5,7s-9.17-3-10.5-7Z"/><path class="cls-69" d="M549.75,1041a4.88,4.88,0,0,1-9,0Z"/><rect class="cls-68" x="532" y="1035" width="27" height="3" rx="1.5"/><rect class="cls-69" x="539" y="1036" width="13" height="1" rx="0.5"/><path class="cls-68" d="M602.75,937c-1.33-4-5.52-7-10.5-7s-9.17,3-10.5,7Z"/><path class="cls-69" d="M596.75,937a4.88,4.88,0,0,0-9,0Z"/><rect class="cls-68" x="579" y="940" width="27" height="3" rx="1.5"/><rect class="cls-69" x="586" y="941" width="13" height="1" rx="0.5"/><path class="cls-68" d="M602.5,1041c-1.33,4-5.52,7-10.5,7s-9.17-3-10.5-7Z"/><path class="cls-69" d="M596.5,1041a4.88,4.88,0,0,1-9,0Z"/><rect class="cls-68" x="579" y="1035" width="27" height="3" rx="1.5"/><rect class="cls-69" x="586" y="1036" width="13" height="1" rx="0.5"/><path class="cls-68" d="M508.58,937c-1.32-4-5.52-7-10.5-7s-9.17,3-10.5,7Z"/><path class="cls-69" d="M502.58,937a4.88,4.88,0,0,0-9,0Z"/><rect class="cls-68" x="485" y="940" width="27" height="3" rx="1.5"/><rect class="cls-69" x="492" y="941" width="13" height="1" rx="0.5"/><path class="cls-68" d="M508.33,1041c-1.32,4-5.52,7-10.5,7s-9.17-3-10.5-7Z"/><path class="cls-69" d="M502.33,1041a4.88,4.88,0,0,1-9,0Z"/><rect class="cls-68" x="485" y="1035" width="27" height="3" rx="1.5"/><rect class="cls-69" x="492" y="1036" width="13" height="1" rx="0.5"/><path class="cls-68" d="M768.27,942c-2.59-5.2-10.78-9-20.5-9s-17.91,3.8-20.5,9Z"/><path class="cls-69" d="M756.27,942c-1.07-2.31-4.47-4-8.5-4s-7.42,1.69-8.5,4Z"/><rect class="cls-68" x="722" y="945" width="52" height="4" rx="1.5"/><rect class="cls-69" x="736" y="946" width="25" height="2" rx="1"/><rect class="cls-68" x="722" y="1019" width="52" height="4" rx="1.5"/><rect class="cls-69" x="736" y="1020" width="25" height="2" rx="1"/><path class="cls-68" d="M919.13,659c-2.53-5.6-10.53-9.69-20-9.69s-17.5,4.09-20,9.69Z"/><path class="cls-69" d="M907.69,659c-1.08-2.4-4.51-4.15-8.58-4.15s-7.5,1.75-8.59,4.15Z"/><rect class="cls-68" x="873" y="662" width="52" height="4" rx="1.5"/><rect class="cls-69" x="887" y="663" width="25" height="2" rx="1"/><path class="cls-68" d="M919.13,743c-2.53,5.2-10.53,9-20,9s-17.5-3.8-20-9Z"/><path class="cls-69" d="M907.69,743c-1.08,2.23-4.51,3.86-8.58,3.86s-7.5-1.63-8.59-3.86Z"/><rect class="cls-68" x="873" y="736" width="52" height="4" rx="1.5"/><rect class="cls-69" x="887" y="737" width="25" height="2" rx="1"/><path class="cls-68" d="M768.27,1026c-2.59,5.2-10.78,9-20.5,9s-17.91-3.8-20.5-9Z"/><path class="cls-69" d="M756.27,1026c-1.07,2.31-4.47,4-8.5,4s-7.42-1.69-8.5-4Z"/><path class="cls-68" d="M959.4,1399c-2.59-5.2-10.78-9-20.5-9s-17.91,3.8-20.5,9Z"/><path class="cls-69" d="M947.4,1399c-1.08-2.31-4.47-4-8.5-4s-7.43,1.69-8.5,4Z"/><rect class="cls-68" x="913" y="1402" width="52" height="4" rx="1.5"/><rect class="cls-69" x="927" y="1403" width="25" height="2" rx="1"/><rect class="cls-68" x="913" y="1476" width="52" height="4" rx="1.5"/><rect class="cls-69" x="927" y="1477" width="25" height="2" rx="1"/><path class="cls-68" d="M959.41,1483c-2.59,5.2-10.78,9-20.5,9s-17.91-3.8-20.5-9Z"/><path class="cls-69" d="M947.41,1483c-1.07,2.31-4.47,4-8.5,4s-7.42-1.69-8.5-4Z"/></g><g id="Layer_4" data-name="Layer 4"><rect class="cls-70" x="655" y="196" width="311" height="152" rx="3"/><text class="cls-63" transform="translate(56.67 1173.02)">Amount of methane (CH<tspan x="150.96" y="4">4</tspan><tspan x="158.74" y="0">) </tspan><tspan x="0" y="16.8">to start with .......................... </tspan><tspan class="cls-34" x="180.49" y="16.8"> </tspan><tspan x="182.99" y="16.8">1 ton per day</tspan><tspan x="0" y="39.6">Cost of methane (CH</tspan><tspan x="131.5" y="43.6">4</tspan><tspan x="139.28" y="39.6">) .......... </tspan><tspan class="cls-24" x="190.62" y="39.6"> </tspan><tspan x="193.95" y="39.6">$50 per ton</tspan></text><path class="cls-36" d="M33.73,1143.52,9.38,1132.45q27.72-1.26,53.87-2c4.2-.11,7.75,1.4,7.75,3.3v19.6c0,1.75-3,3.19-6.88,3.29q-26.88.74-51.84,1.87Z"/><path class="cls-71" d="M48.25,1150.06q10-19.89,17.4-19.58,2.88.12,5.35,3.3v19.6c0,1.75-2.08,3.19-4.75,3.29-3.13.13-6-.66-9.9-2.24A38.88,38.88,0,0,1,48.25,1150.06Z"/><path class="cls-36" d="M345.27,1143.52l24.35-11.07q-27.72-1.26-53.87-2c-4.2-.11-7.75,1.4-7.75,3.3v19.6c0,1.75,3,3.19,6.88,3.29q26.88.74,51.84,1.87Z"/><path class="cls-71" d="M330.75,1150.06q-10-19.89-17.4-19.58-2.88.12-5.35,3.3v19.6c0,1.75,2.08,3.19,4.75,3.29,3.13.13,6-.66,9.9-2.24A38.88,38.88,0,0,0,330.75,1150.06Z"/><rect class="cls-39" x="48" y="1122" width="285" height="28" rx="3"/><text class="cls-23" transform="translate(67.73 1143.14)">Make Hydrogen from Methane</text><path class="cls-72" d="M334.74,1705.58l2.89-2.37,2.22-1.39,2.08-.93,2.8-1.08,2-.89,4-1.8.46.29.12,4.38c0,.72,0,1.44.07,2.16l.26,3.12,0,2.73-.19,2-.9,3.69h0c-.05.08-.09.17-.15.26-2.9,4.63-8.78,6.18-13.14,3.45s-5.53-8.7-2.62-13.33c.05-.09.11-.16.17-.25Z"/><path class="cls-73" d="M342.26,1710.3c0,.3-.48,6.57-5.81,9.28a10.84,10.84,0,0,1-7.8.65"/><text class="cls-63" transform="translate(56.92 1619.62)">Cost of electricity ................. <tspan class="cls-74" x="180.49" y="0"> </tspan><tspan x="183.27" y="0">$140 per day</tspan><tspan x="0" y="22.8">Amount of hydrogen </tspan><tspan x="0" y="39.6">(H</tspan><tspan x="14.77" y="43.6">2</tspan><tspan x="22.56" y="39.6">) made to start with ..</tspan><tspan class="cls-24" x="153.27" y="39.6"> </tspan><tspan x="156.6" y="39.6">0.46 tons per day</tspan><tspan x="0" y="62.4">Carbon dioxide (CO</tspan><tspan x="123.72" y="66.4">2</tspan><tspan x="131.51" y="62.4">) </tspan><tspan x="0" y="79.2">made &amp; sent into </tspan><tspan x="0" y="96">the atmosphere .................. </tspan><tspan class="cls-75" x="175.08" y="96"> </tspan><tspan x="176.19" y="96">0 tons per day</tspan></text><path class="cls-76" d="M34.73,1589.68l-24.35-11.07q27.72-1.26,53.87-2c4.2-.11,7.75,1.39,7.75,3.3v19.6c0,1.74-3,3.19-6.88,3.29q-26.88.74-51.84,1.87Z"/><path class="cls-77" d="M49.25,1596.22q10-19.89,17.4-19.58,2.88.12,5.35,3.3v19.6c0,1.74-2.08,3.19-4.75,3.29-3.13.13-6-.66-9.9-2.24A39.36,39.36,0,0,1,49.25,1596.22Z"/><path class="cls-76" d="M345.27,1589.68l24.35-11.07q-27.72-1.26-53.87-2c-4.2-.11-7.75,1.39-7.75,3.3v19.6c0,1.74,3,3.19,6.88,3.29q26.88.74,51.84,1.87Z"/><path class="cls-77" d="M330.75,1596.22q-10-19.89-17.4-19.58-2.88.12-5.35,3.3v19.6c0,1.74,2.08,3.19,4.75,3.29,3.13.13,6-.66,9.9-2.24A39.36,39.36,0,0,0,330.75,1596.22Z"/><rect class="cls-78" x="48" y="1569" width="285" height="28" rx="3"/><text class="cls-23" transform="translate(79.84 1589.3)">Make Hydrogen from <tspan class="cls-28" x="173.07" y="0">W</tspan><tspan x="189.39" y="0">ater</tspan></text><path class="cls-72" d="M827.75,594.14l2.88-2.38,2.23-1.38,2.08-.94,2.8-1.08,2-.89,4-1.79.47.29.12,4.37.06,2.17.27,3.11,0,2.74-.19,2-.9,3.69h0a2.2,2.2,0,0,1-.15.26c-2.9,4.64-8.78,6.18-13.14,3.46s-5.53-8.7-2.62-13.34l.17-.24Z"/><path class="cls-73" d="M835.27,598.86c0,.3-.48,6.57-5.81,9.27a10.86,10.86,0,0,1-7.8.66"/><text class="cls-63" transform="translate(551.42 555.85)">Cost to put carbon <tspan x="0" y="16.8">dioxide (CO</tspan><tspan x="73.92" y="20.8">2</tspan><tspan x="81.7" y="16.8">) in the </tspan><tspan x="0" y="33.6">ground so it doesn’t get </tspan><tspan x="0" y="50.4">in the atmosphere ............ </tspan><tspan class="cls-34" x="166.52" y="50.4"> </tspan><tspan x="169.02" y="50.4">$5 per ton CO</tspan><tspan x="256.96" y="54.4">2</tspan></text><path class="cls-41" d="M539.73,524.34l-24.35-11.06q27.72-1.26,53.87-2c4.2-.12,7.75,1.39,7.75,3.29v19.6c0,1.75-3,3.19-6.88,3.3q-26.88.72-51.84,1.86Z"/><path class="cls-44" d="M554.25,530.88q10-19.87,17.4-19.57,2.88.12,5.35,3.29v19.6c0,1.75-2.08,3.19-4.75,3.3-3.13.12-6-.66-9.9-2.25A38.88,38.88,0,0,1,554.25,530.88Z"/><path class="cls-41" d="M850.27,524.34l24.35-11.06q-27.72-1.26-53.87-2c-4.2-.12-7.75,1.39-7.75,3.29v19.6c0,1.75,3,3.19,6.88,3.3q26.88.72,51.84,1.86Z"/><path class="cls-44" d="M835.75,530.88q-10-19.87-17.4-19.57-2.88.12-5.35,3.29v19.6c0,1.75,2.08,3.19,4.75,3.3,3.13.12,6-.66,9.9-2.25A38.88,38.88,0,0,0,835.75,530.88Z"/><rect class="cls-79" x="553" y="503" width="285" height="28" rx="3"/><text class="cls-23" transform="translate(574.97 523.96)">Stop Carbon Dioxide Pollution </text><line class="cls-32" x1="1038" y1="610" x2="1069.37" y2="610"/><polygon points="1064.4 616.13 1063.38 615.04 1068.8 610 1063.38 604.97 1064.4 603.87 1071 610 1064.4 616.13"/><text class="cls-23" transform="translate(1094.44 634.07)">Urea<tspan x="-19.66" y="21.6">(CH</tspan><tspan class="cls-24" x="12.33" y="25.6">4</tspan><tspan x="19.01" y="21.6">N</tspan><tspan class="cls-24" x="32.01" y="25.6">2</tspan><tspan x="38.68" y="21.6">O)</tspan></text><path class="cls-21" d="M1224.54,593c-.67-2-1.33-4-2-6-.67-1.33-1.33-2.67-2-4l-2-3-3-4-2-3-4-6h-1l-4,6-2,3-3,4-2,3c-.67,1.33-1.33,2.67-2,4-.67,2-1.33,4-2,6h0c0,.17,0,.33,0,.5,0,9.11,6.94,16.5,15.5,16.5s15.5-7.39,15.5-16.5c0-.17,0-.33,0-.5Z"/><text class="cls-23" transform="translate(1186.17 634.07)"><tspan class="cls-28">W</tspan><tspan x="16.32" y="0">ater</tspan><tspan x="0.84" y="21.6">(H</tspan><tspan class="cls-24" x="19.83" y="25.6">2</tspan><tspan x="26.5" y="21.6">O)</tspan></text><text class="cls-31" transform="translate(1163.06 646.87)">+</text><text class="cls-52" transform="translate(912.44 543.88)">Urea (CH<tspan x="59.12" y="4">4</tspan><tspan x="66.9" y="0">N</tspan><tspan x="77.01" y="4">2</tspan><tspan x="84.8" y="0">O) </tspan><tspan x="30.72" y="16.8">made: </tspan><tspan class="cls-53"><tspan x="36.55" y="33.6">0.00</tspan><tspan class="cls-55" x="63.8" y="33.6"> </tspan></tspan><tspan x="13.6" y="50.4">tons per day</tspan></text><path class="cls-58" d="M927.25,405.88q10-19.87,17.4-19.57,2.88.12,5.35,3.29v19.6c0,1.75-2.08,3.19-4.75,3.3-3.13.12-6-.66-9.9-2.25A38.88,38.88,0,0,1,927.25,405.88Z"/><path class="cls-80" d="M912.73,399.34l-24.35-11.06q27.72-1.26,53.87-2c4.2-.12,7.75,1.39,7.75,3.29v19.6c0,1.75-3,3.19-6.88,3.3q-26.88.72-51.84,1.86Z"/><path class="cls-58" d="M927.25,405.88q10-19.87,17.4-19.57c1.92.08,3.7,1.17,5.35,3.29v19.6c0,1.75-2.08,3.19-4.75,3.29-3.13.13-6-.65-9.9-2.24A38.88,38.88,0,0,1,927.25,405.88Z"/><circle class="cls-38" cx="1212.5" cy="456.5" r="5.5"/><circle class="cls-38" cx="1227.5" cy="458.5" r="7.5"/><circle class="cls-38" cx="1222.5" cy="452.5" r="5.5"/><circle class="cls-38" cx="1216" cy="460" r="7"/><circle class="cls-38" cx="1216" cy="451" r="3"/><circle class="cls-38" cx="1223" cy="464" r="3"/><circle cx="1217" cy="455" r="2"/><circle cx="1224" cy="455" r="2"/><path class="cls-32" d="M1223.26,462.34c0-1.43-1.45-2.58-3.23-2.58s-3.22,1.15-3.22,2.58"/><text class="cls-63" transform="translate(935.42 430.85)">Money earned by <tspan x="0" y="16.8">selling urea</tspan><tspan x="0" y="33.6">(CH</tspan><tspan x="24.88" y="37.6">4</tspan><tspan x="32.67" y="33.6">N</tspan><tspan x="42.78" y="37.6">2</tspan><tspan x="50.57" y="33.6">O) fertilizer ....... </tspan><tspan class="cls-81" x="154.02" y="33.6"> </tspan><tspan x="154.3" y="33.6">$125 per ton urea</tspan><tspan class="cls-82"><tspan x="0" y="54">Note: when urea (CH</tspan><tspan x="112.72" y="58">4</tspan><tspan x="119.39" y="54">N</tspan><tspan x="128.06" y="58">2</tspan><tspan x="134.73" y="54">O) fertilizer is used, </tspan><tspan x="0" y="68.4">CO</tspan><tspan x="18" y="72.4">2</tspan><tspan x="24.67" y="68.4" xml:space="preserve"> escapes back into the atmosphere.</tspan></tspan></text><path class="cls-80" d="M1223.27,399.34l24.35-11.06q-27.72-1.26-53.87-2c-4.2-.12-7.75,1.39-7.75,3.29v19.6c0,1.75,3,3.19,6.88,3.3q26.88.72,51.84,1.86Z"/><path class="cls-58" d="M1208.75,405.88q-10-19.87-17.4-19.57-2.88.12-5.35,3.29v19.6c0,1.75,2.08,3.19,4.75,3.3,3.13.12,6-.66,9.9-2.25A38.88,38.88,0,0,0,1208.75,405.88Z"/><rect class="cls-83" x="926" y="378" width="285" height="28" rx="3"/><text class="cls-23" transform="translate(987.5 398.96)">Make Urea Fertilizer</text><text class="cls-63" transform="translate(927.92 1849.7)">Cost of iron catalyst ................. <tspan class="cls-84" x="196.84" y="0"> </tspan><tspan x="198.79" y="0">$1 per day</tspan><tspan x="0" y="22.8">Cost of osmium catalyst ...... </tspan><tspan class="cls-24" x="179.72" y="22.8"> </tspan><tspan x="183.05" y="22.8">$100 per day</tspan><tspan x="0" y="45.6">Money earned by </tspan><tspan x="0" y="62.4">selling ammonia </tspan><tspan x="0" y="79.2">(NH</tspan><tspan x="24.88" y="83.2">3</tspan><tspan x="32.67" y="79.2">) fertilizer .............. </tspan><tspan class="cls-85" x="152.46" y="79.2"> </tspan><tspan x="154.13" y="79.2">$100 per ton NH</tspan><tspan x="256.86" y="83.2">3</tspan></text><path class="cls-86" d="M905.73,1819.75l-24.35-11.06q27.72-1.26,53.87-2c4.2-.12,7.75,1.39,7.75,3.3v19.59c0,1.75-3,3.19-6.88,3.3q-26.88.72-51.84,1.86Z"/><path class="cls-16" d="M920.25,1826.29q10-19.87,17.4-19.57,2.88.12,5.35,3.3v19.59c0,1.75-2.08,3.19-4.75,3.3-3.13.12-6-.66-9.9-2.24A39.47,39.47,0,0,1,920.25,1826.29Z"/><path class="cls-86" d="M1216.27,1819.75l24.35-11.06q-27.72-1.26-53.87-2c-4.2-.12-7.75,1.39-7.75,3.3v19.59c0,1.75,3,3.19,6.88,3.3q26.88.72,51.84,1.86Z"/><path class="cls-16" d="M1201.75,1826.29q-10-19.87-17.4-19.57-2.88.12-5.35,3.3v19.59c0,1.75,2.08,3.19,4.75,3.3,3.13.12,6-.66,9.9-2.24A39.47,39.47,0,0,0,1201.75,1826.29Z"/><rect class="cls-17" x="919" y="1799" width="285" height="28" rx="3"/><text class="cls-23" transform="translate(962.01 1819.37)">Make<tspan class="cls-87" x="44.02" y="0"> </tspan><tspan x="48.02" y="0">Ammonia Fertilizer</tspan></text><path class="cls-88" d="M534,614H209.05a4.12,4.12,0,0,0-4.05,4.19V845.81a4.12,4.12,0,0,0,4.05,4.19H488.4a4.08,4.08,0,0,1,4,3.32q2.92,14.19,5.84,28.38a4,4,0,0,0,7.91.07l6.45-28.53a4.09,4.09,0,0,1,4-3.24H534a4.12,4.12,0,0,0,4-4.19V618.19A4.12,4.12,0,0,0,534,614Z"/><text class="cls-23" transform="translate(293.75 640.78)">Chemical Reaction:</text><text class="cls-33" transform="translate(306.58 701.98)"><tspan class="cls-28">W</tspan><tspan x="10.88" y="0">ater</tspan><tspan x="0.28" y="14.4">(H</tspan><tspan class="cls-34" x="12.94" y="18.4">2</tspan><tspan x="17.95" y="14.4">O)</tspan></text><text class="cls-33" transform="translate(242.79 701.98)">Methane <tspan x="9.85" y="14.4">(CH</tspan><tspan class="cls-34" x="31.18" y="18.4">4</tspan><tspan x="36.19" y="14.4">)</tspan></text><text class="cls-33" transform="translate(378.48 701.98)">Carbon <tspan x="-4.67" y="14.4">Monoxide</tspan><tspan x="8.35" y="28.8">(CO)</tspan></text><text class="cls-33" transform="translate(441.79 701.98)">Hydrogen<tspan x="15.18" y="14.4">(H</tspan><tspan class="cls-34" x="27.85" y="18.4">2</tspan><tspan x="32.85" y="14.4">)</tspan></text><text class="cls-31" transform="translate(291.74 709.78)">+</text><text class="cls-31" transform="translate(428.62 709.78)">+</text><line class="cls-32" x1="343" y1="705" x2="366.37" y2="705"/><polygon points="361.4 711.13 360.38 710.03 365.8 705 360.38 699.97 361.4 698.87 368 705 361.4 711.13"/><path class="cls-21" d="M334.28,671c-.46-1.38-.92-2.77-1.39-4.15l-1.38-2.77L330.13,662c-.7-.92-1.39-1.85-2.08-2.77l-1.39-2.08c-.92-1.38-1.84-2.77-2.77-4.15h-.69c-.92,1.38-1.84,2.77-2.77,4.15l-1.38,2.08L317,662l-1.38,2.08c-.46.92-.93,1.84-1.39,2.77L312.82,671h0c0,.12,0,.23,0,.35,0,6.3,4.8,11.42,10.73,11.42s10.73-5.12,10.73-11.42c0-.12,0-.23,0-.35Z"/><circle class="cls-22" cx="255.5" cy="665.5" r="8.5"/><circle class="cls-22" cx="279.5" cy="668.5" r="11.5"/><circle class="cls-22" cx="271.5" cy="660.5" r="8.5"/><circle class="cls-22" cx="262" cy="672" r="11"/><circle class="cls-22" cx="260.5" cy="657.5" r="4.5"/><circle class="cls-22" cx="271.5" cy="677.5" r="4.5"/><circle class="cls-30" cx="453.5" cy="667.5" r="8.5"/><circle class="cls-30" cx="477.5" cy="670.5" r="11.5"/><circle class="cls-30" cx="469.5" cy="662.5" r="8.5"/><circle class="cls-30" cx="460" cy="674" r="11"/><circle class="cls-30" cx="458.5" cy="659.5" r="4.5"/><circle class="cls-30" cx="469.5" cy="679.5" r="4.5"/><circle class="cls-36" cx="387.5" cy="667.5" r="8.5"/><circle class="cls-36" cx="411.5" cy="670.5" r="11.5"/><circle class="cls-36" cx="403.5" cy="662.5" r="8.5"/><circle class="cls-36" cx="394" cy="674" r="11"/><circle class="cls-36" cx="392.5" cy="659.5" r="4.5"/><circle class="cls-36" cx="403.5" cy="679.5" r="4.5"/><circle cx="401" cy="656" r="8"/><rect x="385.95" y="669.2" width="27.74" height="3.58" transform="translate(478.61 1448.08) rotate(-155)"/><circle cx="387" cy="668" r="2"/><circle cx="389" cy="663" r="2"/><circle cx="412" cy="679" r="2"/><circle cx="414" cy="675" r="2"/><rect x="387.18" y="669.31" width="27.74" height="3.58" transform="translate(-246.04 232.37) rotate(-25)"/><circle cx="413" cy="663" r="2"/><circle cx="414" cy="668" r="2"/><circle cx="388" cy="675" r="2"/><circle cx="389" cy="679" r="2"/><circle class="cls-37" cx="397.5" cy="655.5" r="2.5"/><circle class="cls-37" cx="404.5" cy="655.5" r="2.5"/><text class="cls-52" transform="translate(239.79 753.73)"><tspan class="cls-89">T</tspan><tspan x="7" y="0">emperature (</tspan><tspan class="cls-84" x="87.14" y="-5">O</tspan><tspan x="92.59" y="0">C):</tspan></text><line class="cls-90" x1="363" y1="750.5" x2="493" y2="750.5"/><text class="cls-91" transform="translate(354.36 770.47)">300</text><text class="cls-91" transform="translate(482.68 770.47)">800</text><text class="cls-91" transform="translate(457.02 770.47)">700</text><text class="cls-91" transform="translate(380.03 770.47)">400</text><text class="cls-91" transform="translate(405.69 770.47)">500</text><text class="cls-91" transform="translate(431.35 770.47)">600</text><line class="cls-92" x1="364.5" y1="749.5" x2="364.5" y2="757.5"/><line class="cls-92" x1="492.5" y1="749.5" x2="492.5" y2="757.5"/><line class="cls-92" x1="390.5" y1="749.5" x2="390.5" y2="757.5"/><line class="cls-92" x1="415.5" y1="749.5" x2="415.5" y2="757.5"/><line class="cls-92" x1="441.5" y1="749.5" x2="441.5" y2="757.5"/><line class="cls-92" x1="466.5" y1="749.5" x2="466.5" y2="757.5"/><circle class="cls-38" cx="506.5" cy="833.5" r="5.5"/><circle class="cls-38" cx="521.5" cy="835.5" r="7.5"/><circle class="cls-38" cx="516.5" cy="830.5" r="5.5"/><circle class="cls-38" cx="511" cy="838" r="7"/><circle class="cls-38" cx="510" cy="829" r="3"/><circle class="cls-38" cx="517" cy="841" r="3"/><circle cx="511" cy="832" r="2"/><circle cx="518" cy="832" r="2"/><path class="cls-32" d="M517.28,839.84c0-1.43-1.44-2.58-3.23-2.58s-3.22,1.15-3.22,2.58"/><text class="cls-63" transform="translate(213.81 790.1)">Carbon dioxide (CO<tspan x="123.72" y="4">2</tspan><tspan x="131.51" y="0">) </tspan><tspan x="0" y="16.8">made &amp; sent into the </tspan><tspan x="0" y="33.6">atmosphere by burning </tspan><tspan x="0" y="50.4">fuel to heat the reactor ... </tspan><tspan x="159.54" y="50.4">5</tspan><tspan x="167.32" y="50.4" xml:space="preserve"> tons CO</tspan><tspan x="222.56" y="54.4">2</tspan><tspan x="230.35" y="50.4" xml:space="preserve"> per day </tspan></text><line class="cls-46" x1="1028" y1="605" x2="1028" y2="616"/><text class="cls-23" transform="translate(52.24 214.91)">Methane cost ($ per day) <tspan class="cls-34" x="205.1" y="0"> </tspan><tspan x="207.6" y="0">.....</tspan><tspan class="cls-93"><tspan x="0" y="6" xml:space="preserve">  </tspan></tspan><tspan x="0" y="27.6">Cost to stop carbon </tspan><tspan x="0" y="49.2">dioxide pollution ($ per day) </tspan><tspan class="cls-93" x="226.13" y="49.2"> </tspan><tspan x="227.52" y="49.2">.</tspan><tspan x="0" y="76.8">Catalyst cost ($ per day) </tspan><tspan class="cls-34" x="200.07" y="76.8"> </tspan><tspan x="202.58" y="76.8">......</tspan><tspan class="cls-93"><tspan x="0" y="82.8"> </tspan></tspan><tspan x="0" y="104.4">Electricity cost ($ per day) </tspan><tspan class="cls-94" x="212.06" y="104.4"> </tspan><tspan x="212.62" y="104.4">....</tspan><tspan class="cls-89" x="0" y="138">T</tspan><tspan x="9" y="138">otal costs ($ per day) </tspan><tspan class="cls-94" x="182.07" y="138"> </tspan><tspan x="182.63" y="138">..........</tspan></text><rect class="cls-95" x="47" y="162" width="280" height="29" rx="3"/><text class="cls-96" transform="translate(126.34 183.35)">Factory Costs</text><line class="cls-32" x1="47" y1="331" x2="327" y2="331"/><text class="cls-23" transform="translate(358.04 214.91)">Money earned selling <tspan x="0" y="21.6">ammonia ($ per day) </tspan><tspan class="cls-97" x="171.07" y="21.6"> </tspan><tspan x="171.9" y="21.6">............</tspan><tspan x="0" y="49.2">Money earned selling</tspan><tspan x="0" y="70.8">urea ($ per day) </tspan><tspan class="cls-98" x="133.07" y="70.8"> </tspan><tspan x="136.68" y="70.8">...................</tspan><tspan class="cls-89" x="0" y="104.4">T</tspan><tspan x="9" y="104.4">otal earnings ($ per day) </tspan><tspan class="cls-74" x="209.11" y="104.4"> </tspan><tspan x="211.89" y="104.4">....</tspan></text><rect class="cls-55" x="353" y="162" width="280" height="29" rx="3"/><text class="cls-96" transform="translate(417.54 183.35)">Factory Earnings</text><line class="cls-32" x1="353" y1="296" x2="633" y2="296"/><text class="cls-23" transform="translate(664.04 214.91)">Ammonia sold (tons per day)<tspan class="cls-99" x="230.1" y="0"> </tspan><tspan x="234.82" y="0">..</tspan><tspan class="cls-93"><tspan x="0" y="6"> </tspan></tspan><tspan x="0" y="27.6">Urea sold (tons per day)</tspan><tspan class="cls-99" x="193.09" y="27.6"> </tspan><tspan class="cls-84" x="197.81" y="27.6"> </tspan><tspan x="199.75" y="27.6">.........</tspan><tspan class="cls-93"><tspan x="0" y="33.6"> </tspan></tspan><tspan x="0" y="55.2">Profit, = earnings - costs</tspan><tspan x="0" y="76.8">($ per day) </tspan><tspan class="cls-74" x="92.04" y="76.8"> </tspan><tspan x="94.82" y="76.8">..............................</tspan><tspan x="0" y="104.4">Carbon dioxide pollution</tspan><tspan x="0" y="126">made (tons per day) </tspan><tspan class="cls-98" x="166.08" y="126"> </tspan><tspan x="169.69" y="126">...............</tspan></text><rect class="cls-17" x="655" y="162" width="311" height="29" rx="3"/><text class="cls-96" transform="translate(694.39 183.35)">Overall Factory Statistics</text><path class="cls-88" d="M1210,1498H998a4,4,0,0,1-1.83-.44l-24.63-12.63a4,4,0,0,0-5.16,5.76l16,24.31a4,4,0,0,1,.66,2.2V1769a4,4,0,0,0,4,4h223a4,4,0,0,0,4-4V1502A4,4,0,0,0,1210,1498Z"/><text class="cls-23" transform="translate(1022.45 1521.49)">Chemical Reaction:</text><text class="cls-33" transform="translate(1155.26 1582.69)">Ammonia<tspan x="10.18" y="14.4">(NH</tspan><tspan class="cls-34" x="31.5" y="18.4">3</tspan><tspan x="36.51" y="14.4">)</tspan></text><text class="cls-33" transform="translate(995.03 1582.69)">Hydrogen<tspan x="15.18" y="14.4">(H</tspan><tspan class="cls-34" x="27.85" y="18.4">2</tspan><tspan x="32.85" y="14.4">)</tspan></text><text class="cls-33" transform="translate(1071.37 1582.69)">Nitrogen<tspan x="11.85" y="14.4">(N</tspan><tspan class="cls-34" x="24.51" y="18.4">2</tspan><tspan x="29.51" y="14.4">)</tspan></text><text class="cls-31" transform="translate(1052.99 1590.49)">+</text><line class="cls-32" x1="1123" y1="1585" x2="1146.37" y2="1585"/><polygon points="1141.4 1591.13 1140.38 1590.04 1145.8 1585 1140.38 1579.96 1141.4 1578.87 1148 1585 1141.4 1591.13"/><path class="cls-40" d="M1193,1552c-.47-1.38-.94-2.77-1.42-4.15l-1.41-2.77c-.47-.7-.94-1.39-1.42-2.08l-2.12-2.77-1.42-2.08c-.94-1.38-1.88-2.77-2.83-4.15h-.7c-1,1.38-1.89,2.77-2.83,4.15l-1.42,2.08-2.12,2.77c-.48.69-1,1.38-1.42,2.08l-1.41,2.77c-.48,1.38-1,2.77-1.42,4.15h0c0,.12,0,.23,0,.35a11,11,0,1,0,21.94,0c0-.12,0-.23,0-.35Z"/><circle class="cls-39" cx="1079.5" cy="1548.5" r="8.5"/><circle class="cls-39" cx="1103.5" cy="1551.5" r="11.5"/><circle class="cls-39" cx="1095.5" cy="1543.5" r="8.5"/><circle class="cls-39" cx="1086" cy="1555" r="11"/><circle class="cls-39" cx="1084.5" cy="1540.5" r="4.5"/><circle class="cls-39" cx="1095.5" cy="1560.5" r="4.5"/><circle class="cls-30" cx="1007.5" cy="1548.5" r="8.5"/><circle class="cls-30" cx="1031.5" cy="1551.5" r="11.5"/><circle class="cls-30" cx="1023.5" cy="1543.5" r="8.5"/><circle class="cls-30" cx="1014" cy="1555" r="11"/><circle class="cls-30" cx="1012.5" cy="1540.5" r="4.5"/><circle class="cls-30" cx="1023.5" cy="1560.5" r="4.5"/><text class="cls-52" transform="translate(999.79 1633.78)">Catalyst:</text><text class="cls-52" transform="translate(1042.84 1709.03)">Iron</text><text class="cls-52" transform="translate(1120.85 1709.03)">Osmium</text><path class="cls-100" d="M1064.41,1645.45c-10.3,3.8-25.9,9.5-32.3,11.9a5.13,5.13,0,0,0-3.3,4.2c-.4,3.3-.9,8.7-1.4,13a4.89,4.89,0,0,0,2.1,4.6c3.5,2.6,7.1,5.2,10.6,7.8a5.19,5.19,0,0,0,4.5.8c8.1-2.5,38.5-12.2,38.6-12.2,1-.4,1-3,1-3,.1-3.6,0-8.5,0-10a8,8,0,0,0-.2-2.3,5.3,5.3,0,0,0-.8-1.7c-.2-.3-12-10.8-13.8-12.2A5.1,5.1,0,0,0,1064.41,1645.45Z"/><path class="cls-8" d="M1062.81,1647.85c-9.1,3.1-23,7.9-28.7,9.9a4.17,4.17,0,0,0-2.9,3.5c-.3,2.8-.8,7.2-1.2,10.8a3.87,3.87,0,0,0,1.8,3.8c3.1,2.1,6.3,4.3,9.4,6.4,1.2.8,2.5.7,4,.6,3.2-.2,32.1-8.4,34.1-13.8a17.07,17.07,0,0,0,1-4.9,16.74,16.74,0,0,1,0-2.3,7.57,7.57,0,0,0-.2-1.9,2.9,2.9,0,0,0-.7-1.4c-.2-.2-10.7-9-12.2-10.1A4.91,4.91,0,0,0,1062.81,1647.85Z"/><path class="cls-101" d="M1065.48,1648s-30.8,11-31.22,11c-1.51.11-2.94,3.86-3,7.27a9.7,9.7,0,0,0,1,4.81c1.1,2.12,3.1,3,7,4.92a10.11,10.11,0,0,0,3,1,9.66,9.66,0,0,0,3,0c1.07-.17,1-.34,5-2,1.38-.57,2.6-1,3.31-1.31a12.52,12.52,0,0,0,1.69-.69c1.45-.7,1.87-1,6-3.17l1.29-.67a93.38,93.38,0,0,0,9.71-6.16,4.25,4.25,0,0,0,2-2,5,5,0,0,0,0-3.39,10.13,10.13,0,0,0-2-3.84,22.61,22.61,0,0,0-2.93-2.89Z"/><path class="cls-102" d="M1061.34,1661.81l-20.78,7.68a5.45,5.45,0,0,1-7.1-3.23h0a5.69,5.69,0,0,1,3.49-7.13l20.78-7.68a5.44,5.44,0,0,1,7.1,3.23h0A5.69,5.69,0,0,1,1061.34,1661.81Z"/><ellipse class="cls-102" cx="1038.5" cy="1666" rx="5.5" ry="6"/><path class="cls-103" d="M1053.42,1662.3l-13.24,4.89a3.36,3.36,0,0,1-4.44-1.8h0a3.51,3.51,0,0,1,2.33-4.28l13.24-4.88a3.35,3.35,0,0,1,4.44,1.79h0A3.5,3.5,0,0,1,1053.42,1662.3Z"/><ellipse class="cls-103" cx="1039" cy="1665.5" rx="3" ry="3.5"/><path class="cls-104" d="M1153.75,1645.45c-10.3,3.8-25.9,9.5-32.3,11.9a5.13,5.13,0,0,0-3.3,4.2c-.4,3.3-.9,8.7-1.4,13a4.89,4.89,0,0,0,2.1,4.6c3.5,2.6,7.1,5.2,10.6,7.8a5.19,5.19,0,0,0,4.5.8c8.1-2.5,38.5-12.2,38.6-12.2,1-.4,1-3,1-3,.1-3.6,0-8.5,0-10a8,8,0,0,0-.2-2.3,5.3,5.3,0,0,0-.8-1.7c-.2-.3-12-10.8-13.8-12.2A5.1,5.1,0,0,0,1153.75,1645.45Z"/><path class="cls-105" d="M1152.15,1647.85c-9.1,3.1-23,7.9-28.7,9.9a4.17,4.17,0,0,0-2.9,3.5c-.3,2.8-.8,7.2-1.2,10.8a3.87,3.87,0,0,0,1.8,3.8c3.1,2.1,6.3,4.3,9.4,6.4,1.2.8,2.5.7,4,.6,3.2-.2,32.1-8.4,34.1-13.8a17.07,17.07,0,0,0,1-4.9,16.74,16.74,0,0,1,0-2.3,7.57,7.57,0,0,0-.2-1.9,2.9,2.9,0,0,0-.7-1.4c-.2-.2-10.7-9-12.2-10.1A4.91,4.91,0,0,0,1152.15,1647.85Z"/><path class="cls-106" d="M1154.81,1648s-30.8,11-31.21,11c-1.51.11-2.95,3.86-3,7.27a9.82,9.82,0,0,0,1,4.81c1.1,2.12,3.1,3,7,4.92a10,10,0,0,0,3,1,9.66,9.66,0,0,0,3,0c1.06-.17,1-.34,5-2,1.37-.57,2.6-1,3.3-1.31a12.63,12.63,0,0,0,1.7-.69c1.44-.7,1.86-1,6-3.17l1.28-.67a93.15,93.15,0,0,0,9.72-6.16,4.25,4.25,0,0,0,2-2,5,5,0,0,0,0-3.39,10,10,0,0,0-2-3.84,22.35,22.35,0,0,0-2.92-2.89Z"/><path class="cls-107" d="M1150.67,1661.81l-20.78,7.68a5.45,5.45,0,0,1-7.1-3.23h0a5.69,5.69,0,0,1,3.5-7.13l20.78-7.68a5.45,5.45,0,0,1,7.1,3.23h0A5.69,5.69,0,0,1,1150.67,1661.81Z"/><ellipse class="cls-107" cx="1128.5" cy="1666" rx="5.5" ry="6"/><path class="cls-108" d="M1142.76,1662.3l-13.25,4.89a3.35,3.35,0,0,1-4.43-1.8h0a3.49,3.49,0,0,1,2.32-4.28l13.25-4.88a3.34,3.34,0,0,1,4.43,1.79h0A3.5,3.5,0,0,1,1142.76,1662.3Z"/><ellipse class="cls-108" cx="1128" cy="1665.5" rx="3" ry="3.5"/><rect class="cls-88" x="1162" y="1622" width="38" height="38"/><text class="cls-109" transform="translate(1168.07 1647.94) scale(1.04 1)">Os</text><text class="cls-110" transform="translate(1164.59 1631.19) scale(1.04 1)">76</text><text class="cls-110" transform="translate(1167.2 1657.07) scale(1.04 1)">190.23</text><rect class="cls-88" x="1072" y="1622" width="38" height="38"/><text class="cls-109" transform="translate(1079.35 1647.94) scale(1.04 1)">Fe</text><text class="cls-110" transform="translate(1074.59 1631.19) scale(1.04 1)">26</text><text class="cls-110" transform="translate(1079.92 1657.07) scale(1.04 1)">55.85</text><text class="cls-52" transform="translate(999.79 1741.73)">Pressure:</text><line class="cls-90" x1="1086" y1="1738.5" x2="1186" y2="1738.5"/><text class="cls-91" transform="translate(1075.93 1758.47)">Low</text><line class="cls-92" x1="1086.5" y1="1737.5" x2="1086.5" y2="1745.5"/><text class="cls-91" transform="translate(1172.42 1758.47)">High</text><line class="cls-92" x1="1184.5" y1="1737.5" x2="1184.5" y2="1745.5"/><text class="cls-91" transform="translate(1114.16 1758.47)">Medium</text><line class="cls-92" x1="1135.5" y1="1737.5" x2="1135.5" y2="1745.5"/><path class="cls-54" d="M1237,675.92V793.08a3.91,3.91,0,0,1-3.92,3.92H967.92a3.91,3.91,0,0,1-3.92-3.92V712.6a4.08,4.08,0,0,0-3.32-4l-14.31-2.95L932.3,702.8a4,4,0,0,1-.07-7.91l28.53-6.45a4.29,4.29,0,0,0,1.68-.8,4,4,0,0,0,1.56-3.15v-8.44a4.12,4.12,0,0,1,4.19-4h264.89A3.91,3.91,0,0,1,1237,675.92Z"/><text class="cls-23" transform="translate(1016.19 695.49)">Chemical Reaction:</text><text class="cls-33" transform="translate(973.57 758.69)">Carbon<tspan x="-0.33" y="14.4">Dioxide</tspan><tspan x="3.35" y="28.8">(CO</tspan><tspan x="25.34" y="32.8">2</tspan><tspan x="32.02" y="28.8">)</tspan></text><text class="cls-33" transform="translate(1137.27 758.69)">Urea<tspan x="-13.66" y="14.4">(CH</tspan><tspan class="cls-34" x="7.67" y="18.4">4</tspan><tspan x="12.67" y="14.4">N</tspan><tspan class="cls-34" x="21.34" y="18.4">2</tspan><tspan x="26.34" y="14.4">O)</tspan></text><text class="cls-31" transform="translate(1020.19 766.49)">+</text><line class="cls-32" x1="1093" y1="761" x2="1115.37" y2="761"/><polygon points="1110.4 767.13 1109.38 766.04 1114.8 761 1109.38 755.97 1110.4 754.87 1117 761 1110.4 767.13"/><text class="cls-33" transform="translate(1035.46 758.69)">Ammonia<tspan x="10.18" y="14.4">(NH</tspan><tspan class="cls-34" x="31.5" y="18.4">3</tspan><tspan x="36.51" y="14.4">)</tspan></text><path class="cls-40" d="M1072.72,728l-1.38-4.15c-.46-.93-.93-1.85-1.39-2.77l-1.38-2.08-2.08-2.77-1.38-2.08c-.93-1.38-1.85-2.77-2.77-4.15h-.69c-.93,1.38-1.85,2.77-2.77,4.15l-1.39,2.08c-.69.92-1.38,1.85-2.08,2.77l-1.38,2.08-1.38,2.77c-.47,1.38-.93,2.77-1.39,4.15h0c0,.12,0,.23,0,.35,0,6.3,4.8,11.42,10.73,11.42s10.73-5.12,10.73-11.42c0-.12,0-.23,0-.35Z"/><circle class="cls-38" cx="979.5" cy="724.5" r="8.5"/><circle class="cls-38" cx="1003.5" cy="727.5" r="11.5"/><circle class="cls-38" cx="995.5" cy="719.5" r="8.5"/><circle class="cls-38" cx="986" cy="731" r="11"/><circle class="cls-38" cx="984.5" cy="716.5" r="4.5"/><circle class="cls-38" cx="995.5" cy="736.5" r="4.5"/><circle cx="987" cy="722" r="3"/><circle cx="997" cy="722" r="3"/><path class="cls-32" d="M997.38,733.87c0-2.2-2.24-4-5-4s-5,1.8-5,4"/><text class="cls-31" transform="translate(1181.06 769.49)">+</text><text class="cls-33" transform="translate(1196.89 758.69)"><tspan class="cls-28">W</tspan><tspan x="10.88" y="0">ater</tspan><tspan x="0.28" y="14.4">(H</tspan><tspan class="cls-34" x="12.94" y="18.4">2</tspan><tspan x="17.95" y="14.4">O)</tspan></text><path class="cls-21" d="M1224.59,728l-1.38-4.15-1.39-2.77-1.38-2.08c-.7-.92-1.39-1.85-2.08-2.77l-1.38-2.08c-.93-1.38-1.85-2.77-2.77-4.15h-.7c-.92,1.38-1.84,2.77-2.77,4.15l-1.38,2.08c-.69.92-1.38,1.85-2.08,2.77l-1.38,2.08-1.39,2.77-1.38,4.15h0c0,.12,0,.23,0,.35,0,6.3,4.8,11.42,10.73,11.42s10.73-5.12,10.73-11.42c0-.12,0-.23,0-.35Z"/><circle class="cls-40" cx="1162.5" cy="717.5" r="6.5"/><circle class="cls-37" cx="1163" cy="717" r="3"/><circle class="cls-40" cx="1145.5" cy="718.5" r="6.5"/><circle class="cls-37" cx="1146" cy="718" r="3"/><circle class="cls-40" cx="1153.5" cy="732.5" r="6.5"/><circle class="cls-37" cx="1154" cy="732" r="3"/><circle class="cls-40" cx="1136.5" cy="734.5" r="6.5"/><circle class="cls-37" cx="1137" cy="734" r="3"/><circle class="cls-40" cx="1132" cy="576" r="9"/><circle class="cls-37" cx="1134.5" cy="573.5" r="2.5"/><circle class="cls-40" cx="1108" cy="578" r="9"/><circle class="cls-37" cx="1110.5" cy="575.5" r="2.5"/><circle class="cls-40" cx="1120" cy="597" r="9"/><circle class="cls-37" cx="1122.5" cy="594.5" r="2.5"/><circle class="cls-40" cx="1096" cy="600" r="9"/><circle class="cls-37" cx="1098.5" cy="597.5" r="2.5"/></g></svg>