<svg xmlns="http://www.w3.org/2000/svg" xmlns:xlink="http://www.w3.org/1999/xlink" viewBox="0 0 1280 1900"><defs><style>.cls-1,.cls-43,.cls-53,.cls-86,.cls-88,.cls-9,.cls-97{fill:#b3b3b3;}.cls-1{stroke:#f15a24;}.cls-1,.cls-10,.cls-114,.cls-116,.cls-12,.cls-13,.cls-14,.cls-15,.cls-16,.cls-17,.cls-2,.cls-23,.cls-24,.cls-25,.cls-26,.cls-27,.cls-28,.cls-29,.cls-3,.cls-30,.cls-31,.cls-32,.cls-33,.cls-34,.cls-35,.cls-36,.cls-37,.cls-4,.cls-42,.cls-43,.cls-44,.cls-49,.cls-57,.cls-58,.cls-60,.cls-65,.cls-66,.cls-67,.cls-68,.cls-7,.cls-8,.cls-80,.cls-81,.cls-83,.cls-84,.cls-85,.cls-86,.cls-87,.cls-88,.cls-9,.cls-97{stroke-miterlimit:10;}.cls-1,.cls-10,.cls-116,.cls-12,.cls-14,.cls-15,.cls-16,.cls-17,.cls-2,.cls-23,.cls-24,.cls-25,.cls-26,.cls-27,.cls-28,.cls-29,.cls-3,.cls-30,.cls-31,.cls-32,.cls-33,.cls-34,.cls-4,.cls-42,.cls-43,.cls-44,.cls-49,.cls-57,.cls-58,.cls-60,.cls-68,.cls-7,.cls-8,.cls-80,.cls-81,.cls-83,.cls-84,.cls-85,.cls-86,.cls-87,.cls-88,.cls-9,.cls-97{stroke-width:2px;}.cls-10,.cls-12,.cls-13,.cls-14,.cls-15,.cls-16,.cls-17,.cls-2,.cls-23,.cls-24,.cls-25,.cls-26,.cls-27,.cls-28,.cls-29,.cls-3,.cls-30,.cls-31,.cls-32,.cls-33,.cls-4,.cls-44,.cls-7,.cls-8{stroke:#333;}.cls-2{fill:url(#linear-gradient);}.cls-3{fill:url(#Reactor_Gray_Gradient);}.cls-4{fill:url(#Reactor_Gray_Gradient-2);}.cls-44,.cls-5{fill:#666;}.cls-6{fill:#999;}.cls-7{fill:url(#Reactor_Gray_Gradient-3);}.cls-56,.cls-8{fill:#ccc;}.cls-9{stroke:#666;}.cls-10{fill:url(#linear-gradient-2);}.cls-11{fill:#22b573;}.cls-12{fill:url(#Reactor_Gray_Gradient-4);}.cls-13{fill:#333;}.cls-14{fill:url(#Reactor_Gray_Gradient-5);}.cls-15{fill:url(#Reactor_Gray_Gradient-6);}.cls-16{fill:url(#Reactor_Gray_Gradient-7);}.cls-17{fill:url(#Reactor_Gray_Gradient-8);}.cls-18{fill:red;}.cls-19{fill:#f15a24;}.cls-20,.cls-42{fill:#fbb03b;}.cls-21{fill:url(#linear-gradient-3);}.cls-22{fill:url(#linear-gradient-4);}.cls-23{fill:url(#Reactor_Gray_Gradient-9);}.cls-24{fill:url(#Reactor_Gray_Gradient-10);}.cls-25{fill:url(#Reactor_Gray_Gradient-11);}.cls-26{fill:url(#Reactor_Gray_Gradient-12);}.cls-27{fill:url(#Reactor_Gray_Gradient-13);}.cls-28{fill:url(#Reactor_Gray_Gradient-14);}.cls-29{fill:url(#Reactor_Gray_Gradient-15);}.cls-30{fill:url(#linear-gradient-5);}.cls-31{fill:url(#Reactor_Gray_Gradient-16);}.cls-32{fill:url(#Reactor_Gray_Gradient-17);}.cls-33{fill:url(#Reactor_Gray_Gradient-18);}.cls-106,.cls-34{fill:#29abe2;}.cls-34,.cls-88{stroke:#0071bc;}.cls-114,.cls-116,.cls-35,.cls-36,.cls-37,.cls-49,.cls-65,.cls-66,.cls-67,.cls-81,.cls-83,.cls-84,.cls-85,.cls-87,.cls-96{fill:none;}.cls-35{stroke:#c7b299;}.cls-35,.cls-65{stroke-width:8px;}.cls-36{stroke:#ff5259;}.cls-36,.cls-37,.cls-66{stroke-width:4px;}.cls-37,.cls-57,.cls-60{stroke:#999;}.cls-38{fill:#d25259;}.cls-39{fill:#c7b299;}.cls-40,.cls-48{font-size:18px;}.cls-115,.cls-120,.cls-40,.cls-48,.cls-50,.cls-52,.cls-61,.cls-62,.cls-92,.cls-93,.cls-94{font-family:ArialMT, Arial;}.cls-115,.cls-41,.cls-50,.cls-52{font-size:12px;}.cls-42{stroke:#f7931e;}.cls-43{stroke:gray;}.cls-45{letter-spacing:-0.04em;}.cls-46{fill:#b0d3f5;}.cls-47{fill:#ffa2a5;}.cls-48{letter-spacing:0.01em;}.cls-49,.cls-58{stroke:#000;}.cls-51,.cls-93{font-size:9px;}.cls-52{letter-spacing:0.01em;}.cls-54,.cls-58,.cls-68{fill:#fff;}.cls-55{fill:#7aaa00;}.cls-57{fill:#f2f2f2;}.cls-59{fill:#b39e85;}.cls-60{fill:#e6e6e6;}.cls-61{font-size:16px;}.cls-115,.cls-61,.cls-62,.cls-80,.cls-82{fill:#39b54a;}.cls-62,.cls-95{font-size:14px;}.cls-63{fill:#754c24;}.cls-64{fill:#c69c6d;}.cls-65{stroke:#736357;}.cls-66,.cls-67,.cls-86{stroke:#8c6239;}.cls-67{stroke-width:3px;}.cls-68{stroke:#ccc;}.cls-69{fill:#736357;}.cls-70{fill:#8c6239;}.cls-71{fill:gray;}.cls-72{fill:#adadad;}.cls-73{fill:#c1c1c1;}.cls-74{fill:#d5d5d5;}.cls-75{fill:#9595a9;}.cls-76{fill:#9f9fb3;}.cls-77{fill:#b8b8cc;}.cls-78{fill:#d2d2e6;}.cls-79{fill:#dedef2;}.cls-80,.cls-81{stroke:#006837;}.cls-83{stroke:#a68c44;}.cls-84{stroke:#c1272d;}.cls-85{stroke:#ffa7aa;}.cls-87{stroke:#b3b3b3;}.cls-89{fill:#ffd01e;}.cls-90{font-size:32px;font-family:CourierNewPSMT, Courier New;}.cls-91{font-size:41px;font-family:SegoeScript-Bold, Segoe Script;}.cls-117,.cls-91{font-weight:700;}.cls-92{font-size:20.24px;}.cls-94,.cls-99{font-size:0.1px;}.cls-97{stroke:#d25259;}.cls-98{fill:#fbeaa7;}.cls-100{font-size:3px;}.cls-101{font-size:2px;}.cls-102{font-size:1px;}.cls-103{font-size:7px;}.cls-104{fill:#0071bc;}.cls-105{fill:#2e3192;}.cls-107{font-size:5px;}.cls-108{fill:#a67c52;}.cls-109{fill:#f37175;}.cls-110{fill:#ff878d;}.cls-111{fill:#f7931e;}.cls-112{letter-spacing:-0.06em;}.cls-113{letter-spacing:-0.11em;}.cls-114,.cls-116{stroke:#39b54a;}.cls-117{font-family:Arial-BoldMT, Arial;}.cls-118{letter-spacing:-0.07em;}.cls-119{fill:#ff5259;}.cls-120{font-size:21px;}</style><linearGradient id="linear-gradient" x1="906" y1="1439.51" x2="972" y2="1439.51" gradientUnits="userSpaceOnUse"><stop offset="0" stop-color="#b3b3b3"/><stop offset="0.12" stop-color="#c1c1c1"/><stop offset="0.26" stop-color="#c9c9c9"/><stop offset="0.5" stop-color="#ccc"/><stop offset="0.74" stop-color="#c9c9c9"/><stop offset="0.88" stop-color="#c1c1c1"/><stop offset="1" stop-color="#b3b3b3"/></linearGradient><linearGradient id="Reactor_Gray_Gradient" x1="902" y1="1404" x2="976" y2="1404" xlink:href="#linear-gradient"/><linearGradient id="Reactor_Gray_Gradient-2" x1="902" y1="1478" x2="976" y2="1478" xlink:href="#linear-gradient"/><linearGradient id="Reactor_Gray_Gradient-3" y1="1441" y2="1441" xlink:href="#linear-gradient"/><linearGradient id="linear-gradient-2" x1="544.5" y1="1086" x2="544.5" y2="879" gradientUnits="userSpaceOnUse"><stop offset="0" stop-color="#fcee7f"/><stop offset="0.14" stop-color="#fce97e"/><stop offset="0.31" stop-color="#fcdb7a"/><stop offset="0.49" stop-color="#fdc374"/><stop offset="0.68" stop-color="#fea26b"/><stop offset="0.87" stop-color="#fe7860"/><stop offset="1" stop-color="#ff5757"/></linearGradient><linearGradient id="Reactor_Gray_Gradient-4" x1="482" y1="988.71" x2="515" y2="988.71" xlink:href="#linear-gradient"/><linearGradient id="Reactor_Gray_Gradient-5" x1="528" y1="988.71" x2="561" y2="988.71" xlink:href="#linear-gradient"/><linearGradient id="Reactor_Gray_Gradient-6" x1="575" y1="988.71" x2="608" y2="988.71" xlink:href="#linear-gradient"/><linearGradient id="Reactor_Gray_Gradient-7" x1="525" y1="941.5" x2="565" y2="941.5" xlink:href="#linear-gradient"/><linearGradient id="Reactor_Gray_Gradient-8" x1="525" y1="1036.5" x2="565" y2="1036.5" xlink:href="#linear-gradient"/><linearGradient id="linear-gradient-3" x1="484.5" y1="897" x2="484.5" y2="884" gradientUnits="userSpaceOnUse"><stop offset="0" stop-color="#fff"/><stop offset="0.13" stop-color="#f6f8f9"/><stop offset="0.33" stop-color="#dce4e8"/><stop offset="0.54" stop-color="#bdccd4"/><stop offset="0.85" stop-color="#0075be"/><stop offset="0.99" stop-color="#005b97"/></linearGradient><linearGradient id="linear-gradient-4" x1="604.5" x2="604.5" xlink:href="#linear-gradient-3"/><linearGradient id="Reactor_Gray_Gradient-9" x1="478" y1="941.5" x2="518" y2="941.5" xlink:href="#linear-gradient"/><linearGradient id="Reactor_Gray_Gradient-10" x1="478" y1="1036.5" x2="518" y2="1036.5" xlink:href="#linear-gradient"/><linearGradient id="Reactor_Gray_Gradient-11" x1="572" y1="941.5" x2="612" y2="941.5" xlink:href="#linear-gradient"/><linearGradient id="Reactor_Gray_Gradient-12" x1="572" y1="1036.5" x2="612" y2="1036.5" xlink:href="#linear-gradient"/><linearGradient id="Reactor_Gray_Gradient-13" x1="482" y1="989" x2="515" y2="989" xlink:href="#linear-gradient"/><linearGradient id="Reactor_Gray_Gradient-14" x1="528" y1="989" x2="561" y2="989" xlink:href="#linear-gradient"/><linearGradient id="Reactor_Gray_Gradient-15" x1="575" y1="989" x2="608" y2="989" xlink:href="#linear-gradient"/><linearGradient id="linear-gradient-5" x1="715" y1="982.51" x2="781" y2="982.51" xlink:href="#linear-gradient"/><linearGradient id="Reactor_Gray_Gradient-16" x1="711" y1="947" x2="785" y2="947" xlink:href="#linear-gradient"/><linearGradient id="Reactor_Gray_Gradient-17" x1="711" y1="1021" x2="785" y2="1021" xlink:href="#linear-gradient"/><linearGradient id="Reactor_Gray_Gradient-18" x1="715" y1="984" x2="781" y2="984" xlink:href="#linear-gradient"/></defs><g id="Layer_1" data-name="Layer 1"><polyline class="cls-1" points="932 1532 932 1497 945 1497 945 1532"/><polyline class="cls-1" points="1131 1446 978 1446 978 1433 1131 1433"/><polyline class="cls-1" points="777 1446 901 1446 901 1433 777 1433"/><path class="cls-2" d="M972,1396v85.72c0,7.89-14.77,14.29-33,14.29s-33-6.4-33-14.29V1396h.14c1.52-7.28,15.65-13,32.86-13s31.34,5.71,32.86,13Z"/><rect class="cls-3" x="902" y="1400" width="74" height="8" rx="3.18"/><rect class="cls-4" x="902" y="1474" width="74" height="8" rx="3.35"/><rect class="cls-5" x="908" y="1410" width="61" height="61"/><circle class="cls-6" cx="916.5" cy="1412.5" r="3.5"/><circle class="cls-6" cx="926.5" cy="1412.5" r="3.5"/><circle class="cls-6" cx="935.5" cy="1410.5" r="3.5"/><circle class="cls-6" cx="938.5" cy="1425.5" r="3.5"/><circle class="cls-6" cx="930.5" cy="1420.5" r="3.5"/><circle class="cls-6" cx="920.5" cy="1420.5" r="3.5"/><circle class="cls-6" cx="916.5" cy="1432.5" r="3.5"/><circle class="cls-6" cx="925.5" cy="1430.5" r="3.5"/><circle class="cls-6" cx="933.5" cy="1433.5" r="3.5"/><circle class="cls-6" cx="936.5" cy="1442.5" r="3.5"/><circle class="cls-6" cx="916.5" cy="1445.5" r="3.5"/><circle class="cls-6" cx="925.5" cy="1440.5" r="3.5"/><circle class="cls-6" cx="936.5" cy="1452.5" r="3.5"/><circle class="cls-6" cx="926.5" cy="1448.5" r="3.5"/><circle class="cls-6" cx="915.5" cy="1455.5" r="3.5"/><circle class="cls-6" cx="923.5" cy="1458.5" r="3.5"/><circle class="cls-6" cx="933.5" cy="1460.5" r="3.5"/><circle class="cls-6" cx="916.5" cy="1467.5" r="3.5"/><circle class="cls-6" cx="936.5" cy="1468.5" r="3.5"/><circle class="cls-6" cx="926.5" cy="1467.5" r="3.5"/><circle class="cls-6" cx="943.5" cy="1417.5" r="3.5"/><circle class="cls-6" cx="953.5" cy="1417.5" r="3.5"/><circle class="cls-6" cx="962.5" cy="1415.5" r="3.5"/><circle class="cls-6" cx="965.5" cy="1430.5" r="3.5"/><circle class="cls-6" cx="957.5" cy="1425.5" r="3.5"/><circle class="cls-6" cx="947.5" cy="1425.5" r="3.5"/><circle class="cls-6" cx="943.5" cy="1437.5" r="3.5"/><circle class="cls-6" cx="952.5" cy="1435.5" r="3.5"/><circle class="cls-6" cx="960.5" cy="1438.5" r="3.5"/><circle class="cls-6" cx="963.5" cy="1447.5" r="3.5"/><circle class="cls-6" cx="944.5" cy="1449.5" r="3.5"/><circle class="cls-6" cx="952.5" cy="1445.5" r="3.5"/><circle class="cls-6" cx="963.5" cy="1457.5" r="3.5"/><circle class="cls-6" cx="953.5" cy="1453.5" r="3.5"/><circle class="cls-6" cx="942.5" cy="1460.5" r="3.5"/><circle class="cls-6" cx="950.5" cy="1463.5" r="3.5"/><circle class="cls-6" cx="960.5" cy="1465.5" r="3.5"/><path class="cls-7" d="M906,1408v66h66v-66Zm60.28,60.13c-3.13,3.17-5.17-1.8-9.61-1.8s-4.43,2.11-8.87,2.11-4.44-2.11-8.88-2.11-4.43,2.11-8.87,2.11-4.44-2.11-8.88-2.11-6.47,5-9.61,1.8,1.78-5.22,1.78-9.7-2.09-4.48-2.09-9,2.09-4.48,2.09-9-2.09-4.48-2.09-9,2.09-4.48,2.09-9-4.92-6.54-1.79-9.71,5.18,1.8,9.61,1.8,4.44-2.11,8.88-2.11,4.43,2.11,8.87,2.11,4.44-2.11,8.87-2.11,4.44,2.11,8.88,2.11,6.48-5,9.62-1.8-1.78,5.22-1.78,9.7,2.09,4.48,2.09,9-2.09,4.48-2.09,9,2.09,4.48,2.09,9-3.15,4.87-2.06,9.22C965.79,1463.73,969.42,1465,966.28,1468.13Z"/><rect class="cls-8" x="929" y="1496" width="19" height="6"/><rect class="cls-8" x="893.5" y="1436.5" width="19" height="6" transform="translate(-536.5 2342.5) rotate(-90)"/><rect class="cls-8" x="965.5" y="1436.5" width="19" height="6" transform="translate(-464.5 2414.5) rotate(-90)"/><path class="cls-9" d="M796,838V953h0v23h-9v13h15.24a6.69,6.69,0,0,0,6.76-6.61V838"/><rect class="cls-10" x="468" y="879" width="153" height="207" rx="6.61"/><path class="cls-9" d="M676,1001V983a7,7,0,0,1,7-7h28v13H689v12"/><circle class="cls-11" cx="751" cy="688" r="3"/><circle class="cls-11" cx="745" cy="686" r="3"/><circle class="cls-11" cx="749" cy="690" r="4"/><circle class="cls-11" cx="749.5" cy="685.5" r="1.5"/><circle class="cls-11" cx="745.5" cy="692.5" r="1.5"/><circle class="cls-11" cx="726" cy="683" r="3"/><circle class="cls-11" cx="732" cy="682" r="3"/><circle class="cls-11" cx="728" cy="686" r="4"/><circle class="cls-11" cx="727.5" cy="680.5" r="1.5"/><circle class="cls-11" cx="731.5" cy="687.5" r="1.5"/><polyline class="cls-9" points="741 1410 741 1042 754 1042 754 1410"/><path class="cls-9" d="M420,992h23.36a6.7,6.7,0,0,0,6.64-6.76V872h88v32H497.67a6.66,6.66,0,0,0-6.67,6.67V927h14V917h33v10h14V917h33v10h13V910.67a6.66,6.66,0,0,0-6.67-6.67H551V865.76a6.69,6.69,0,0,0-6.61-6.76H443.61a6.69,6.69,0,0,0-6.61,6.76V979H420"/><path class="cls-9" d="M640,985v107H552v-15h40.33a6.66,6.66,0,0,0,6.67-6.67V1052H585v12H552v-12H538v12H505v-12H492v18.33a6.66,6.66,0,0,0,6.67,6.67H539v21.24a6.69,6.69,0,0,0,6.61,6.76H646.39a6.69,6.69,0,0,0,6.61-6.76V985"/><path class="cls-12" d="M498.5,925.17c-9.11,0-16.5,4.49-16.5,10v107c0,5.54,7.39,10,16.5,10s16.5-4.49,16.5-10v-107C515,929.66,507.61,925.17,498.5,925.17Z"/><rect class="cls-13" x="478.5" y="878.5" width="12" height="5"/><rect class="cls-5" x="483" y="939" width="31" height="102"/><rect class="cls-13" x="598.5" y="878.5" width="12" height="5"/><circle class="cls-6" cx="488.5" cy="944.5" r="3.5"/><circle class="cls-6" cx="498.5" cy="942.5" r="3.5"/><circle class="cls-6" cx="488.5" cy="961.5" r="3.5"/><circle class="cls-6" cx="508.5" cy="942.5" r="3.5"/><circle class="cls-6" cx="503.5" cy="951.5" r="3.5"/><circle class="cls-6" cx="493.5" cy="952.5" r="3.5"/><circle class="cls-6" cx="498.5" cy="961.5" r="3.5"/><circle class="cls-6" cx="506.5" cy="959.5" r="3.5"/><circle class="cls-6" cx="509.5" cy="974.5" r="3.5"/><circle class="cls-6" cx="501.5" cy="969.5" r="3.5"/><circle class="cls-6" cx="491.5" cy="969.5" r="3.5"/><circle class="cls-6" cx="488.5" cy="981.5" r="3.5"/><circle class="cls-6" cx="496.5" cy="979.5" r="3.5"/><circle class="cls-6" cx="504.5" cy="982.5" r="3.5"/><circle class="cls-6" cx="508.5" cy="991.5" r="3.5"/><circle class="cls-6" cx="488.5" cy="994.5" r="3.5"/><circle class="cls-6" cx="496.5" cy="989.5" r="3.5"/><circle class="cls-6" cx="508.5" cy="1001.5" r="3.5"/><circle class="cls-6" cx="498.5" cy="997.5" r="3.5"/><circle class="cls-6" cx="486.5" cy="1004.5" r="3.5"/><circle class="cls-6" cx="494.5" cy="1007.5" r="3.5"/><circle class="cls-6" cx="504.5" cy="1009.5" r="3.5"/><circle class="cls-6" cx="488.5" cy="1016.5" r="3.5"/><circle class="cls-6" cx="508.5" cy="1017.5" r="3.5"/><circle class="cls-6" cx="498.5" cy="1016.5" r="3.5"/><circle class="cls-6" cx="491.5" cy="1024.5" r="3.5"/><circle class="cls-6" cx="501.5" cy="1024.5" r="3.5"/><circle class="cls-6" cx="488.5" cy="1032.5" r="3.5"/><circle class="cls-6" cx="508.5" cy="1031.5" r="3.5"/><path class="cls-14" d="M544.5,925.17c-9.11,0-16.5,4.49-16.5,10v107c0,5.54,7.39,10,16.5,10s16.5-4.49,16.5-10v-107C561,929.66,553.61,925.17,544.5,925.17Z"/><rect class="cls-5" x="529" y="938" width="31" height="103"/><circle class="cls-6" cx="498.5" cy="1034.5" r="3.5"/><path class="cls-15" d="M591.5,925.17c-9.11,0-16.5,4.49-16.5,10v107c0,5.54,7.39,10,16.5,10s16.5-4.49,16.5-10v-107C608,929.66,600.61,925.17,591.5,925.17Z"/><circle class="cls-6" cx="534.5" cy="944.5" r="3.5"/><circle class="cls-6" cx="544.5" cy="942.5" r="3.5"/><circle class="cls-6" cx="534.5" cy="961.5" r="3.5"/><circle class="cls-6" cx="554.5" cy="942.5" r="3.5"/><circle class="cls-6" cx="549.5" cy="951.5" r="3.5"/><circle class="cls-6" cx="539.5" cy="952.5" r="3.5"/><circle class="cls-6" cx="544.5" cy="961.5" r="3.5"/><circle class="cls-6" cx="553.5" cy="959.5" r="3.5"/><circle class="cls-6" cx="556.5" cy="974.5" r="3.5"/><circle class="cls-6" cx="548.5" cy="969.5" r="3.5"/><circle class="cls-6" cx="538.5" cy="969.5" r="3.5"/><circle class="cls-6" cx="534.5" cy="981.5" r="3.5"/><circle class="cls-6" cx="543.5" cy="979.5" r="3.5"/><circle class="cls-6" cx="551.5" cy="982.5" r="3.5"/><circle class="cls-6" cx="554.5" cy="991.5" r="3.5"/><circle class="cls-6" cx="534.5" cy="994.5" r="3.5"/><circle class="cls-6" cx="543.5" cy="989.5" r="3.5"/><circle class="cls-6" cx="554.5" cy="1001.5" r="3.5"/><circle class="cls-6" cx="544.5" cy="997.5" r="3.5"/><circle class="cls-6" cx="533.5" cy="1004.5" r="3.5"/><circle class="cls-6" cx="541.5" cy="1007.5" r="3.5"/><circle class="cls-6" cx="551.5" cy="1009.5" r="3.5"/><circle class="cls-6" cx="534.5" cy="1016.5" r="3.5"/><circle class="cls-6" cx="554.5" cy="1017.5" r="3.5"/><circle class="cls-6" cx="544.5" cy="1016.5" r="3.5"/><circle class="cls-6" cx="538.5" cy="1024.5" r="3.5"/><circle class="cls-6" cx="548.5" cy="1024.5" r="3.5"/><circle class="cls-6" cx="534.5" cy="1032.5" r="3.5"/><circle class="cls-6" cx="554.5" cy="1031.5" r="3.5"/><circle class="cls-6" cx="544.5" cy="1034.5" r="3.5"/><rect class="cls-5" x="576" y="938" width="31" height="95"/><rect class="cls-16" x="525" y="938" width="40" height="7"/><rect class="cls-17" x="525" y="1033" width="40" height="7"/><circle class="cls-6" cx="581.5" cy="944.5" r="3.5"/><circle class="cls-6" cx="591.5" cy="942.5" r="3.5"/><circle class="cls-6" cx="581.5" cy="961.5" r="3.5"/><circle class="cls-6" cx="601.5" cy="942.5" r="3.5"/><circle class="cls-6" cx="596.5" cy="951.5" r="3.5"/><circle class="cls-6" cx="586.5" cy="952.5" r="3.5"/><circle class="cls-6" cx="591.5" cy="961.5" r="3.5"/><circle class="cls-6" cx="599.5" cy="959.5" r="3.5"/><circle class="cls-6" cx="603.5" cy="974.5" r="3.5"/><circle class="cls-6" cx="594.5" cy="969.5" r="3.5"/><circle class="cls-6" cx="584.5" cy="969.5" r="3.5"/><circle class="cls-6" cx="581.5" cy="981.5" r="3.5"/><circle class="cls-6" cx="589.5" cy="979.5" r="3.5"/><circle class="cls-6" cx="598.5" cy="982.5" r="3.5"/><circle class="cls-6" cx="601.5" cy="991.5" r="3.5"/><circle class="cls-6" cx="581.5" cy="994.5" r="3.5"/><circle class="cls-6" cx="589.5" cy="989.5" r="3.5"/><circle class="cls-6" cx="601.5" cy="1001.5" r="3.5"/><circle class="cls-6" cx="591.5" cy="997.5" r="3.5"/><circle class="cls-6" cx="579.5" cy="1004.5" r="3.5"/><circle class="cls-6" cx="588.5" cy="1007.5" r="3.5"/><circle class="cls-6" cx="598.5" cy="1009.5" r="3.5"/><circle class="cls-6" cx="581.5" cy="1016.5" r="3.5"/><circle class="cls-6" cx="601.5" cy="1017.5" r="3.5"/><circle class="cls-6" cx="591.5" cy="1016.5" r="3.5"/><circle class="cls-6" cx="584.5" cy="1024.5" r="3.5"/><circle class="cls-6" cx="594.5" cy="1024.5" r="3.5"/><circle class="cls-6" cx="581.5" cy="1032.5" r="3.5"/><circle class="cls-6" cx="601.5" cy="1031.5" r="3.5"/><circle class="cls-6" cx="591.5" cy="1034.5" r="3.5"/><ellipse class="cls-18" cx="484.5" cy="895.5" rx="8.5" ry="11.5"/><ellipse class="cls-19" cx="484.5" cy="894" rx="6.5" ry="10"/><ellipse class="cls-20" cx="484.5" cy="892.5" rx="4.5" ry="8.5"/><ellipse class="cls-21" cx="484.5" cy="890.5" rx="3.5" ry="6.5"/><ellipse class="cls-18" cx="604.5" cy="895.5" rx="8.5" ry="11.5"/><ellipse class="cls-19" cx="604.5" cy="894" rx="6.5" ry="10"/><ellipse class="cls-20" cx="604.5" cy="892.5" rx="4.5" ry="8.5"/><ellipse class="cls-22" cx="604.5" cy="890.5" rx="3.5" ry="6.5"/><rect class="cls-23" x="478" y="938" width="40" height="7"/><rect class="cls-24" x="478" y="1033" width="40" height="7"/><rect class="cls-25" x="572" y="938" width="40" height="7"/><rect class="cls-26" x="572" y="1033" width="40" height="7"/><path class="cls-27" d="M482,945v88h33V945Zm26.62,81.8c-.82,3.26-2.88-1.15-5.23-1.15s-2.35,1.69-4.7,1.69-2.35-1.69-4.7-1.69-4.41,4.41-5.23,1.15c-2.2-8.71,1.1-9.6,1.1-18.89s-1.14-9.3-1.14-18.59,1.14-9.3,1.14-18.6-3.3-10.18-1.1-18.89c.82-3.26,2.88,1.14,5.23,1.14s2.35-1.69,4.7-1.69S501,953,503.39,953s4.4-4.4,5.23-1.14c2.2,8.7-1.1,9.59-1.1,18.89s1.14,9.29,1.14,18.59-2,9.51-1.14,18.71C508.43,1017.57,510.82,1018.09,508.62,1026.8Z"/><path class="cls-28" d="M528,945v88h33V945Zm26.62,81.8c-.82,3.26-2.88-1.15-5.23-1.15s-2.35,1.69-4.7,1.69-2.35-1.69-4.7-1.69-4.41,4.41-5.23,1.15c-2.2-8.71,1.1-9.6,1.1-18.89s-1.14-9.3-1.14-18.59,1.14-9.3,1.14-18.6-3.3-10.18-1.1-18.89c.82-3.26,2.88,1.14,5.23,1.14s2.35-1.69,4.7-1.69S547,953,549.39,953s4.4-4.4,5.23-1.14c2.2,8.7-1.1,9.59-1.1,18.89s1.14,9.29,1.14,18.59-2,9.51-1.14,18.71C554.43,1017.57,556.82,1018.09,554.62,1026.8Z"/><path class="cls-29" d="M575,945v88h33V945Zm26.62,81.8c-.82,3.26-2.88-1.15-5.23-1.15s-2.35,1.69-4.7,1.69-2.35-1.69-4.7-1.69-4.41,4.41-5.23,1.15c-2.2-8.71,1.1-9.6,1.1-18.89s-1.14-9.3-1.14-18.59,1.14-9.3,1.14-18.6-3.3-10.18-1.1-18.89c.82-3.26,2.88,1.14,5.23,1.14s2.35-1.69,4.7-1.69S594,953,596.39,953s4.4-4.4,5.23-1.14c2.2,8.7-1.1,9.59-1.1,18.89s1.14,9.29,1.14,18.59-2,9.51-1.14,18.71C601.43,1017.57,603.82,1018.09,601.62,1026.8Z"/><path class="cls-9" d="M653,985V872h88v58h13V865.76a6.69,6.69,0,0,0-6.61-6.76H646.61a6.69,6.69,0,0,0-6.61,6.76V985"/><rect class="cls-8" x="738" y="920" width="19" height="6"/><path class="cls-30" d="M781,939v85.72c0,7.89-14.77,14.29-33,14.29s-33-6.4-33-14.29V939h.14c1.52-7.28,15.65-13,32.86-13s31.34,5.71,32.86,13Z"/><rect class="cls-31" x="711" y="943" width="74" height="8" rx="3.18"/><rect class="cls-32" x="711" y="1017" width="74" height="8" rx="3.35"/><rect class="cls-5" x="717" y="953" width="61" height="61"/><circle class="cls-6" cx="725.5" cy="955.5" r="3.5"/><circle class="cls-6" cx="735.5" cy="955.5" r="3.5"/><circle class="cls-6" cx="744.5" cy="953.5" r="3.5"/><circle class="cls-6" cx="747.5" cy="968.5" r="3.5"/><circle class="cls-6" cx="739.5" cy="963.5" r="3.5"/><circle class="cls-6" cx="729.5" cy="963.5" r="3.5"/><circle class="cls-6" cx="725.5" cy="975.5" r="3.5"/><circle class="cls-6" cx="734.5" cy="973.5" r="3.5"/><circle class="cls-6" cx="742.5" cy="976.5" r="3.5"/><circle class="cls-6" cx="745.5" cy="985.5" r="3.5"/><circle class="cls-6" cx="725.5" cy="988.5" r="3.5"/><circle class="cls-6" cx="734.5" cy="983.5" r="3.5"/><circle class="cls-6" cx="745.5" cy="995.5" r="3.5"/><circle class="cls-6" cx="735.5" cy="991.5" r="3.5"/><circle class="cls-6" cx="724.5" cy="998.5" r="3.5"/><circle class="cls-6" cx="732.5" cy="1001.5" r="3.5"/><circle class="cls-6" cx="742.5" cy="1003.5" r="3.5"/><circle class="cls-6" cx="725.5" cy="1010.5" r="3.5"/><circle class="cls-6" cx="745.5" cy="1011.5" r="3.5"/><circle class="cls-6" cx="735.5" cy="1010.5" r="3.5"/><circle class="cls-6" cx="752.5" cy="960.5" r="3.5"/><circle class="cls-6" cx="762.5" cy="960.5" r="3.5"/><circle class="cls-6" cx="771.5" cy="958.5" r="3.5"/><circle class="cls-6" cx="774.5" cy="973.5" r="3.5"/><circle class="cls-6" cx="766.5" cy="968.5" r="3.5"/><circle class="cls-6" cx="756.5" cy="968.5" r="3.5"/><circle class="cls-6" cx="752.5" cy="980.5" r="3.5"/><circle class="cls-6" cx="761.5" cy="978.5" r="3.5"/><circle class="cls-6" cx="769.5" cy="981.5" r="3.5"/><circle class="cls-6" cx="772.5" cy="990.5" r="3.5"/><circle class="cls-6" cx="753.5" cy="992.5" r="3.5"/><circle class="cls-6" cx="761.5" cy="988.5" r="3.5"/><circle class="cls-6" cx="772.5" cy="1000.5" r="3.5"/><circle class="cls-6" cx="762.5" cy="996.5" r="3.5"/><circle class="cls-6" cx="751.5" cy="1003.5" r="3.5"/><circle class="cls-6" cx="759.5" cy="1006.5" r="3.5"/><circle class="cls-6" cx="769.5" cy="1008.5" r="3.5"/><path class="cls-33" d="M715,951v66h66V951Zm60.12,60.17c-3.13,3.17-5.17-1.8-9.61-1.8s-4.43,2.11-8.87,2.11-4.44-2.11-8.88-2.11-4.43,2.11-8.87,2.11-4.44-2.11-8.88-2.11-6.47,5-9.61,1.8,1.78-5.22,1.78-9.7-2.09-4.48-2.09-9,2.09-4.48,2.09-9-2.09-4.48-2.09-9,2.09-4.48,2.09-9-4.92-6.54-1.79-9.71,5.18,1.8,9.61,1.8,4.44-2.11,8.88-2.11,4.43,2.11,8.87,2.11,4.44-2.11,8.87-2.11,4.44,2.11,8.88,2.11,6.48-5,9.62-1.8-1.78,5.22-1.78,9.7,2.09,4.48,2.09,9-2.09,4.48-2.09,9,2.09,4.48,2.09,9-3.15,4.87-2.06,9.22C774.63,1006.77,778.26,1008,775.12,1011.17Z"/><rect class="cls-8" x="738" y="1039" width="19" height="6"/><rect class="cls-8" x="702.5" y="979.5" width="19" height="6" transform="translate(-270.5 1694.5) rotate(-90)"/><rect class="cls-8" x="774.5" y="979.5" width="19" height="6" transform="translate(-198.5 1766.5) rotate(-90)"/><path class="cls-34" d="M413.5,1595l-2-6c-.67-1.33-1.33-2.67-2-4l-2-3-3-4-2-3-4-6h-1l-4,6-2,3-3,4-2,3c-.67,1.33-1.33,2.67-2,4l-2,6h0c0,.17,0,.33,0,.5,0,9.11,6.94,16.5,15.5,16.5s15.5-7.39,15.5-16.5c0-.17,0-.33,0-.5Z"/><rect class="cls-6" x="118" y="1048" width="144" height="35"/><path class="cls-35" d="M190,1048v18c0,3.31,5.69,6,12.71,6H262"/><line class="cls-36" x1="190" y1="1038" x2="190" y2="932"/><path class="cls-37" d="M223.63,1038h-68l12-106h44Z"/><line class="cls-37" x1="166.13" y1="932" x2="213.13" y2="959"/><line class="cls-37" x1="216.13" y1="959" x2="163.13" y2="985"/><line class="cls-37" x1="219.13" y1="1012" x2="160.13" y2="983"/><line class="cls-37" x1="222.13" y1="1012" x2="157.13" y2="1038"/><line class="cls-37" x1="213.13" y1="932" x2="166.13" y2="959"/><line class="cls-37" x1="216.13" y1="985" x2="163.13" y2="959"/><line class="cls-37" x1="219.13" y1="985" x2="160.13" y2="1012"/><line class="cls-37" x1="222.13" y1="1038" x2="157.13" y2="1012"/><rect class="cls-38" x="161" y="929" width="58" height="6" rx="3"/><path class="cls-38" d="M149,1040h82a5,5,0,0,1,5,5v3a0,0,0,0,1,0,0H144a0,0,0,0,1,0,0v-3A5,5,0,0,1,149,1040Z"/><rect class="cls-38" x="155" y="982" width="70" height="6" rx="2.74"/><circle class="cls-39" cx="173" cy="900" r="11"/><circle class="cls-39" cx="203.5" cy="903.5" r="14.5"/><circle class="cls-39" cx="193.5" cy="893.5" r="10.5"/><circle class="cls-39" cx="181" cy="908" r="14"/><circle class="cls-39" cx="179.5" cy="889.5" r="5.5"/><circle class="cls-39" cx="193.5" cy="914.5" r="5.5"/><text class="cls-40" transform="translate(152.14 844)">Methane <tspan x="15.19" y="21.6">(CH</tspan><tspan class="cls-41" x="47.19" y="25.6">4</tspan><tspan x="53.86" y="21.6">)</tspan></text><path class="cls-42" d="M458,1583v-13a4,4,0,0,1,4-4h44a4,4,0,0,1,4,4v13"/><path class="cls-43" d="M467,1565v-2.5c0-.83,1.34-1.5,3-1.5h5c1.66,0,3,.67,3,1.5v2.5"/><path class="cls-43" d="M491,1565v-2.5c0-.83,1.34-1.5,3-1.5h5c1.66,0,3,.67,3,1.5v2.5"/><path class="cls-44" d="M458,1583v34a4,4,0,0,0,4,4h44a4,4,0,0,0,4-4v-34"/><text class="cls-40" transform="translate(375.13 1638.41)"><tspan class="cls-45">W</tspan><tspan x="16.32" y="0">ater</tspan><tspan x="0.84" y="21.6">(H</tspan><tspan class="cls-41" x="19.83" y="25.6">2</tspan><tspan x="26.5" y="21.6">O)</tspan></text><text class="cls-40" transform="translate(449.29 1651.21)">Electricity</text><text class="cls-40" transform="translate(573.78 1638.41)">Oxygen<tspan x="14.69" y="21.6">(O</tspan><tspan class="cls-41" x="34.68" y="25.6">2</tspan><tspan x="41.35" y="21.6">)</tspan></text><text class="cls-40" transform="translate(665.77 1638.41)">Hydrogen<tspan x="23.19" y="21.6">(H</tspan><tspan class="cls-41" x="42.19" y="25.6">2</tspan><tspan x="48.86" y="21.6">)</tspan></text><circle class="cls-46" cx="588" cy="1588" r="11"/><circle class="cls-46" cx="618.5" cy="1591.5" r="14.5"/><circle class="cls-46" cx="608.5" cy="1581.5" r="10.5"/><circle class="cls-46" cx="596" cy="1596" r="14"/><circle class="cls-46" cx="594.5" cy="1577.5" r="5.5"/><circle class="cls-46" cx="608.5" cy="1602.5" r="5.5"/><circle class="cls-47" cx="684" cy="1589" r="11"/><circle class="cls-47" cx="714.5" cy="1592.5" r="14.5"/><circle class="cls-47" cx="704.5" cy="1582.5" r="10.5"/><circle class="cls-47" cx="692" cy="1597" r="14"/><circle class="cls-47" cx="690.5" cy="1578.5" r="5.5"/><circle class="cls-47" cx="704.5" cy="1603.5" r="5.5"/><text class="cls-48" transform="translate(428.4 1651.21)">+</text><text class="cls-48" transform="translate(639.4 1651.21)">+</text><line class="cls-49" x1="534" y1="1646" x2="565.37" y2="1646"/><polygon points="560.4 1652.13 559.38 1651.04 564.8 1646 559.38 1640.96 560.4 1639.87 567 1646 560.4 1652.13"/><path class="cls-34" d="M404.36,1052q-1-3-2-6l-2-4-2-3-3-4-2-3-4-6h-1l-4,6-2,3-3,4-2,3-2,4q-1,3-2,6h0c0,.17,0,.33,0,.5,0,9.11,6.94,16.5,15.5,16.5s15.5-7.39,15.5-16.5c0-.17,0-.33,0-.5Z"/><text class="cls-40" transform="translate(365.99 1088.75)"><tspan class="cls-45">W</tspan><tspan x="16.32" y="0">ater</tspan><tspan x="0.84" y="21.6">(H</tspan><tspan class="cls-41" x="19.83" y="25.6">2</tspan><tspan x="26.5" y="21.6">O)</tspan></text><path class="cls-49" d="M234,901H377a10,10,0,0,1,10,10v63a5,5,0,0,0,5,5h15.37"/><polygon points="402.4 985.13 401.38 984.04 406.8 979 401.38 973.97 402.4 972.87 409 979 402.4 985.13"/><path class="cls-49" d="M387,1017V998a5,5,0,0,1,5-5h15.37"/><polygon points="402.4 999.13 401.38 998.04 406.8 993 401.38 987.97 402.4 986.87 409 993 402.4 999.13"/><line class="cls-49" x1="556" y1="1117" x2="632.37" y2="1117"/><polygon points="627.4 1123.13 626.38 1122.04 631.8 1117 626.38 1111.96 627.4 1110.87 634 1117 627.4 1123.13"/><text class="cls-50" transform="translate(537.12 1175.38)">Carbon <tspan x="-4.67" y="14.4">Monoxide</tspan><tspan x="8.35" y="28.8">(CO)</tspan></text><text class="cls-50" transform="translate(604.43 1182.58)">Hydrogen<tspan x="15.18" y="14.4">(H</tspan><tspan class="cls-51" x="27.85" y="18.4">2</tspan><tspan x="32.85" y="14.4">)</tspan></text><text class="cls-52" transform="translate(590.51 1189.78)">&amp;</text><circle class="cls-47" cx="615.5" cy="1145.5" r="8.5"/><circle class="cls-47" cx="639.5" cy="1148.5" r="11.5"/><circle class="cls-47" cx="631.5" cy="1140.5" r="8.5"/><circle class="cls-47" cx="622" cy="1152" r="11"/><circle class="cls-47" cx="620.5" cy="1137.5" r="4.5"/><circle class="cls-47" cx="631.5" cy="1157.5" r="4.5"/><circle class="cls-53" cx="545.5" cy="1145.5" r="8.5"/><circle class="cls-53" cx="569.5" cy="1148.5" r="11.5"/><circle class="cls-53" cx="561.5" cy="1140.5" r="8.5"/><circle class="cls-53" cx="552" cy="1152" r="11"/><circle class="cls-53" cx="550.5" cy="1137.5" r="4.5"/><circle class="cls-53" cx="561.5" cy="1157.5" r="4.5"/><circle cx="559" cy="1134" r="8"/><rect x="544.58" y="1147.2" width="27.74" height="3.58" transform="translate(579.01 2426.34) rotate(-155)"/><circle cx="545" cy="1146" r="2"/><circle cx="547" cy="1141" r="2"/><circle cx="570" cy="1157" r="2"/><circle cx="572" cy="1153" r="2"/><rect x="545.82" y="1147.31" width="27.74" height="3.58" transform="translate(-433.19 344.2) rotate(-25)"/><circle cx="571" cy="1141" r="2"/><circle cx="572" cy="1146" r="2"/><circle cx="546" cy="1153" r="2"/><circle cx="547" cy="1157" r="2"/><circle class="cls-54" cx="555.5" cy="1133.5" r="2.5"/><circle class="cls-54" cx="562.5" cy="1133.5" r="2.5"/><text class="cls-50" transform="translate(666.02 1087.98)"><tspan class="cls-45">W</tspan><tspan x="10.88" y="0">ater</tspan><tspan x="0.28" y="14.4">(H</tspan><tspan class="cls-51" x="12.94" y="18.4">2</tspan><tspan x="17.95" y="14.4">O)</tspan></text><path class="cls-34" d="M693.72,1057c-.46-1.38-.92-2.77-1.39-4.15l-1.38-2.77c-.46-.7-.92-1.39-1.39-2.08l-2.07-2.77c-.46-.69-.93-1.38-1.39-2.08-.92-1.38-1.84-2.77-2.77-4.15h-.69c-.92,1.38-1.84,2.77-2.77,4.15l-1.38,2.08-2.08,2.77-1.38,2.08c-.47.92-.93,1.84-1.39,2.77l-1.38,4.15h0c0,.12,0,.23,0,.35,0,6.3,4.8,11.42,10.73,11.42s10.73-5.12,10.73-11.42c0-.12,0-.23,0-.35Z"/><text class="cls-50" transform="translate(839.76 905.58)">Carbon<tspan x="-0.33" y="14.4">Dioxide</tspan><tspan x="4.18" y="28.8">(CO</tspan><tspan class="cls-51" x="26.18" y="32.8">2</tspan><tspan x="31.18" y="28.8">)</tspan></text><circle class="cls-55" cx="844.5" cy="868.5" r="8.5"/><circle class="cls-55" cx="868.5" cy="871.5" r="11.5"/><circle class="cls-55" cx="860.5" cy="863.5" r="8.5"/><circle class="cls-55" cx="851" cy="875" r="11"/><circle class="cls-55" cx="849.5" cy="860.5" r="4.5"/><circle class="cls-55" cx="860.5" cy="880.5" r="4.5"/><circle cx="852" cy="866" r="3"/><circle cx="862" cy="866" r="3"/><path class="cls-49" d="M862,878c0-2.21-2.24-4-5-4s-5,1.79-5,4"/><path class="cls-49" d="M702,1560v-19a5,5,0,0,1,5-5h15.37"/><polygon points="717.4 1542.13 716.38 1541.04 721.8 1536 716.38 1530.96 717.4 1529.87 724 1536 717.4 1542.13"/><text class="cls-40" transform="translate(904.96 1648.75)">Nitrogen<tspan x="18.19" y="21.6">(N</tspan><tspan class="cls-41" x="37.18" y="25.6">2</tspan><tspan x="43.85" y="21.6">)</tspan></text><circle class="cls-56" cx="922" cy="1598" r="11"/><circle class="cls-56" cx="952.5" cy="1601.5" r="14.5"/><circle class="cls-56" cx="942.5" cy="1591.5" r="10.5"/><circle class="cls-56" cx="930" cy="1606" r="14"/><circle class="cls-56" cx="928.5" cy="1587.5" r="5.5"/><circle class="cls-56" cx="942.5" cy="1612.5" r="5.5"/><line class="cls-49" x1="939" y1="1573" x2="939" y2="1541.63"/><polygon points="945.13 1546.6 944.04 1547.62 939 1542.2 933.97 1547.62 932.87 1546.6 939 1540 945.13 1546.6"/><text class="cls-50" transform="translate(780.28 1264.09)">Hydrogen<tspan x="15.18" y="14.4">(H</tspan><tspan class="cls-51" x="27.85" y="18.4">2</tspan><tspan x="32.85" y="14.4">)</tspan></text><circle class="cls-47" cx="791.5" cy="1227.5" r="8.5"/><circle class="cls-47" cx="815.5" cy="1230.5" r="11.5"/><circle class="cls-47" cx="807.5" cy="1222.5" r="8.5"/><circle class="cls-47" cx="798" cy="1234" r="11"/><circle class="cls-47" cx="796.5" cy="1219.5" r="4.5"/><circle class="cls-47" cx="807.5" cy="1239.5" r="4.5"/><line class="cls-49" x1="770" y1="1211" x2="770" y2="1287.37"/><polygon points="763.87 1282.4 764.96 1281.38 770 1286.8 775.03 1281.38 776.13 1282.4 770 1289 763.87 1282.4"/><line class="cls-49" x1="824" y1="936" x2="824" y2="859.63"/><polygon points="830.13 864.6 829.04 865.62 824 860.2 818.97 865.62 817.87 864.6 824 858 830.13 864.6"/><line class="cls-49" x1="1138" y1="1440" x2="1169.37" y2="1440"/><polygon points="1164.4 1446.13 1163.38 1445.04 1168.8 1440 1163.38 1434.96 1164.4 1433.87 1171 1440 1164.4 1446.13"/><path class="cls-57" d="M1233.65,1419q-1-3-2-6c-.67-1.33-1.34-2.67-2-4-.67-1-1.34-2-2-3l-3-4c-.67-1-1.34-2-2-3q-2-3-4-6h-1q-2,3-4,6c-.67,1-1.34,2-2,3l-3,4c-.67,1-1.34,2-2,3-.67,1.33-1.34,2.67-2,4q-1,3-2,6h0c0,.17,0,.33,0,.5,0,9.11,6.94,16.5,15.5,16.5s15.5-7.39,15.5-16.5c0-.17,0-.33,0-.5Z"/><text class="cls-40" transform="translate(1180.93 1462.82)">Ammonia<tspan x="15.68" y="21.6">(NH</tspan><tspan class="cls-41" x="47.67" y="25.6">3</tspan><tspan x="54.35" y="21.6">)</tspan></text><path class="cls-58" d="M996.14,1497.56l-24.63-12.63a4,4,0,0,0-5.16,5.76l16,24.31a4,4,0,0,1,.66,2.2V1719a4,4,0,0,0,4,4h223a4,4,0,0,0,4-4V1502a4,4,0,0,0-4-4H998A4,4,0,0,1,996.14,1497.56Z"/><text class="cls-40" transform="translate(1022.45 1521.49)">Chemical Reaction:</text><text class="cls-50" transform="translate(1155.26 1582.69)">Ammonia<tspan x="10.18" y="14.4">(NH</tspan><tspan class="cls-51" x="31.5" y="18.4">3</tspan><tspan x="36.51" y="14.4">)</tspan></text><text class="cls-50" transform="translate(995.03 1582.69)">Hydrogen<tspan x="15.18" y="14.4">(H</tspan><tspan class="cls-51" x="27.85" y="18.4">2</tspan><tspan x="32.85" y="14.4">)</tspan></text><text class="cls-50" transform="translate(1071.37 1582.69)">Nitrogen<tspan x="11.85" y="14.4">(N</tspan><tspan class="cls-51" x="24.51" y="18.4">2</tspan><tspan x="29.51" y="14.4">)</tspan></text><text class="cls-48" transform="translate(1052.99 1590.49)">+</text><line class="cls-49" x1="1123" y1="1585" x2="1146.37" y2="1585"/><polygon points="1141.4 1591.13 1140.38 1590.04 1145.8 1585 1140.38 1579.96 1141.4 1578.87 1148 1585 1141.4 1591.13"/><path class="cls-57" d="M1193,1552c-.47-1.38-.94-2.77-1.42-4.15l-1.41-2.77c-.47-.7-.94-1.39-1.42-2.08l-2.12-2.77-1.42-2.08c-.94-1.38-1.88-2.77-2.83-4.15h-.7c-1,1.38-1.89,2.77-2.83,4.15l-1.42,2.08-2.12,2.77c-.48.69-1,1.38-1.42,2.08l-1.41,2.77c-.48,1.38-1,2.77-1.42,4.15h0c0,.12,0,.23,0,.35a11,11,0,1,0,21.94,0c0-.12,0-.23,0-.35Z"/><circle class="cls-56" cx="1079.5" cy="1548.5" r="8.5"/><circle class="cls-56" cx="1103.5" cy="1551.5" r="11.5"/><circle class="cls-56" cx="1095.5" cy="1543.5" r="8.5"/><circle class="cls-56" cx="1086" cy="1555" r="11"/><circle class="cls-56" cx="1084.5" cy="1540.5" r="4.5"/><circle class="cls-56" cx="1095.5" cy="1560.5" r="4.5"/><circle class="cls-47" cx="1007.5" cy="1548.5" r="8.5"/><circle class="cls-47" cx="1031.5" cy="1551.5" r="11.5"/><circle class="cls-47" cx="1023.5" cy="1543.5" r="8.5"/><circle class="cls-47" cx="1014" cy="1555" r="11"/><circle class="cls-47" cx="1012.5" cy="1540.5" r="4.5"/><circle class="cls-47" cx="1023.5" cy="1560.5" r="4.5"/><path class="cls-39" d="M898.06,646,868,662.78V735h61V662.78Z"/><path class="cls-59" d="M827,692h41a0,0,0,0,1,0,0v43a0,0,0,0,1,0,0H822a0,0,0,0,1,0,0V697A5,5,0,0,1,827,692Z"/><path class="cls-59" d="M929,692h41a5,5,0,0,1,5,5v38a0,0,0,0,1,0,0H929a0,0,0,0,1,0,0V692A0,0,0,0,1,929,692Z"/><rect class="cls-56" x="827" y="699" width="10" height="4"/><rect class="cls-56" x="840" y="699" width="10" height="4"/><rect class="cls-56" x="837" y="720" width="16" height="15"/><rect class="cls-60" x="893" y="688" width="11" height="11"/><rect class="cls-60" x="893" y="703" width="11" height="11"/><rect class="cls-60" x="893" y="718" width="11" height="11"/><rect class="cls-56" x="853" y="699" width="10" height="4"/><rect class="cls-56" x="934" y="699" width="10" height="4"/><rect class="cls-56" x="947" y="699" width="10" height="4"/><rect class="cls-56" x="960" y="699" width="10" height="4"/><rect class="cls-56" x="944" y="720" width="16" height="15"/><rect class="cls-60" x="908" y="688" width="11" height="11"/><rect class="cls-60" x="908" y="703" width="11" height="11"/><rect class="cls-60" x="908" y="718" width="11" height="11"/><rect class="cls-60" x="878" y="688" width="11" height="11"/><rect class="cls-60" x="878" y="703" width="11" height="11"/><rect class="cls-60" x="878" y="718" width="11" height="11"/><rect class="cls-49" x="656" y="1561" width="97" height="118" rx="3.94"/><text class="cls-61" transform="translate(997.03 1633.78)">Catalyst:</text><text class="cls-62" transform="translate(1042.84 1709.03)">Iron</text><text class="cls-62" transform="translate(1120.85 1709.03)">Osmium</text><rect class="cls-63" x="888.37" y="655.53" width="19.34" height="23.03" transform="translate(1342.25 1693.73) rotate(-150)"/><ellipse class="cls-63" cx="892.5" cy="676.5" rx="2.8" ry="9.73" transform="translate(-143.55 1101.72) rotate(-59.48)"/><ellipse class="cls-63" cx="904.5" cy="657.5" rx="2.8" ry="9.73" transform="translate(-121.28 1102.71) rotate(-59.48)"/><ellipse class="cls-63" cx="890" cy="662.5" rx="10.89" ry="2.74" transform="translate(-131.76 1094.95) rotate(-59.6)"/><ellipse class="cls-63" cx="906" cy="672.5" rx="10.89" ry="2.74" transform="translate(-132.48 1113.69) rotate(-59.6)"/><circle class="cls-63" cx="900" cy="682" r="3"/><circle class="cls-63" cx="884" cy="671" r="3"/><circle class="cls-63" cx="913" cy="663" r="3"/><circle class="cls-63" cx="897" cy="652" r="3"/><rect class="cls-64" x="655" y="697" width="102" height="38"/><line class="cls-65" x1="706" y1="697" x2="706" y2="722"/><circle class="cls-55" cx="646.5" cy="640.5" r="8.5"/><circle class="cls-55" cx="670.5" cy="643.5" r="11.5"/><circle class="cls-55" cx="662.5" cy="635.5" r="8.5"/><circle class="cls-55" cx="653" cy="647" r="11"/><circle class="cls-55" cx="651.5" cy="632.5" r="4.5"/><circle class="cls-55" cx="662.5" cy="652.5" r="4.5"/><circle cx="654" cy="638" r="3"/><circle cx="664" cy="638" r="3"/><path class="cls-49" d="M663.5,650c0-2.21-2.24-4-5-4s-5,1.79-5,4"/><path class="cls-49" d="M688,644h14a5,5,0,0,1,5,5v39.37"/><polygon points="700.87 683.4 701.96 682.38 707 687.8 712.03 682.38 713.13 683.4 707 690 700.87 683.4"/><circle class="cls-11" cx="750" cy="664" r="7"/><circle class="cls-11" cx="729.5" cy="666.5" r="9.5"/><circle class="cls-11" cx="736" cy="660" r="7"/><circle class="cls-11" cx="744.5" cy="669.5" r="9.5"/><circle class="cls-11" cx="746" cy="658" r="4"/><circle class="cls-11" cx="736" cy="674" r="4"/><line class="cls-66" x1="739" y1="668" x2="739" y2="697"/><line class="cls-67" x1="739" y1="692" x2="748" y2="688"/><line class="cls-67" x1="739" y1="688" x2="729" y2="684"/><path class="cls-68" d="M1252.08,743H998a4,4,0,0,1-1.83-.44l-24.63-12.63a4,4,0,0,0-5.16,5.76l16,24.31a4,4,0,0,1,.66,2.2V864.08a3.91,3.91,0,0,0,3.92,3.92h265.16a3.91,3.91,0,0,0,3.92-3.92V746.92A3.91,3.91,0,0,0,1252.08,743Z"/><circle class="cls-69" cx="706" cy="722" r="4"/><circle class="cls-70" cx="739" cy="668" r="2"/><text class="cls-40" transform="translate(1035.19 766.49)">Chemical Reaction:</text><text class="cls-50" transform="translate(992.57 829.69)">Carbon<tspan x="-0.33" y="14.4">Dioxide</tspan><tspan x="3.35" y="28.8">(CO</tspan><tspan x="25.34" y="32.8">2</tspan><tspan x="32.02" y="28.8">)</tspan></text><text class="cls-50" transform="translate(1156.27 829.69)">Urea<tspan x="-13.66" y="14.4">(CH</tspan><tspan class="cls-51" x="7.67" y="18.4">4</tspan><tspan x="12.67" y="14.4">N</tspan><tspan class="cls-51" x="21.34" y="18.4">2</tspan><tspan x="26.34" y="14.4">O)</tspan></text><text class="cls-48" transform="translate(1039.19 837.49)">+</text><line class="cls-49" x1="1112" y1="832" x2="1134.37" y2="832"/><polygon points="1129.4 838.13 1128.38 837.04 1133.8 832 1128.38 826.97 1129.4 825.87 1136 832 1129.4 838.13"/><text class="cls-50" transform="translate(1054.46 829.69)">Ammonia<tspan x="10.18" y="14.4">(NH</tspan><tspan class="cls-51" x="31.5" y="18.4">3</tspan><tspan x="36.51" y="14.4">)</tspan></text><path class="cls-57" d="M1091.72,799l-1.38-4.15c-.46-.93-.93-1.85-1.39-2.77l-1.38-2.08-2.08-2.77-1.38-2.08c-.93-1.38-1.85-2.77-2.77-4.15h-.69c-.93,1.38-1.85,2.77-2.77,4.15l-1.39,2.08c-.69.92-1.38,1.85-2.08,2.77l-1.38,2.08-1.38,2.77c-.47,1.38-.93,2.77-1.39,4.15h0c0,.12,0,.23,0,.35,0,6.3,4.8,11.42,10.73,11.42s10.73-5.12,10.73-11.42c0-.12,0-.23,0-.35Z"/><circle class="cls-55" cx="998.5" cy="795.5" r="8.5"/><circle class="cls-55" cx="1022.5" cy="798.5" r="11.5"/><circle class="cls-55" cx="1014.5" cy="790.5" r="8.5"/><circle class="cls-55" cx="1005" cy="802" r="11"/><circle class="cls-55" cx="1003.5" cy="787.5" r="4.5"/><circle class="cls-55" cx="1014.5" cy="807.5" r="4.5"/><circle cx="1006" cy="793" r="3"/><circle cx="1016" cy="793" r="3"/><path class="cls-49" d="M1016.38,804.88c0-2.21-2.24-4-5-4s-5,1.79-5,4"/><path class="cls-71" d="M1064.41,1645.45c-10.3,3.8-25.9,9.5-32.3,11.9a5.13,5.13,0,0,0-3.3,4.2c-.4,3.3-.9,8.7-1.4,13a4.89,4.89,0,0,0,2.1,4.6c3.5,2.6,7.1,5.2,10.6,7.8a5.19,5.19,0,0,0,4.5.8c8.1-2.5,38.5-12.2,38.6-12.2,1-.4,1-3,1-3,.1-3.6,0-8.5,0-10a8,8,0,0,0-.2-2.3,5.3,5.3,0,0,0-.8-1.7c-.2-.3-12-10.8-13.8-12.2A5.1,5.1,0,0,0,1064.41,1645.45Z"/><path class="cls-6" d="M1062.81,1647.85c-9.1,3.1-23,7.9-28.7,9.9a4.17,4.17,0,0,0-2.9,3.5c-.3,2.8-.8,7.2-1.2,10.8a3.87,3.87,0,0,0,1.8,3.8c3.1,2.1,6.3,4.3,9.4,6.4,1.2.8,2.5.7,4,.6,3.2-.2,32.1-8.4,34.1-13.8a17.07,17.07,0,0,0,1-4.9,16.74,16.74,0,0,1,0-2.3,7.57,7.57,0,0,0-.2-1.9,2.9,2.9,0,0,0-.7-1.4c-.2-.2-10.7-9-12.2-10.1A4.91,4.91,0,0,0,1062.81,1647.85Z"/><path class="cls-72" d="M1065.48,1648s-30.8,11-31.22,11c-1.51.11-2.94,3.86-3,7.27a9.7,9.7,0,0,0,1,4.81c1.1,2.12,3.1,3,7,4.92a10.11,10.11,0,0,0,3,1,9.66,9.66,0,0,0,3,0c1.07-.17,1-.34,5-2,1.38-.57,2.6-1,3.31-1.31a12.52,12.52,0,0,0,1.69-.69c1.45-.7,1.87-1,6-3.17l1.29-.67a93.38,93.38,0,0,0,9.71-6.16,4.25,4.25,0,0,0,2-2,5,5,0,0,0,0-3.39,10.13,10.13,0,0,0-2-3.84,22.61,22.61,0,0,0-2.93-2.89Z"/><path class="cls-73" d="M1061.34,1661.81l-20.78,7.68a5.45,5.45,0,0,1-7.1-3.23h0a5.69,5.69,0,0,1,3.49-7.13l20.78-7.68a5.44,5.44,0,0,1,7.1,3.23h0A5.69,5.69,0,0,1,1061.34,1661.81Z"/><ellipse class="cls-73" cx="1038.5" cy="1666" rx="5.5" ry="6"/><path class="cls-74" d="M1053.42,1662.3l-13.24,4.89a3.36,3.36,0,0,1-4.44-1.8h0a3.51,3.51,0,0,1,2.33-4.28l13.24-4.88a3.35,3.35,0,0,1,4.44,1.79h0A3.5,3.5,0,0,1,1053.42,1662.3Z"/><ellipse class="cls-74" cx="1039" cy="1665.5" rx="3" ry="3.5"/><path class="cls-75" d="M1153.75,1645.45c-10.3,3.8-25.9,9.5-32.3,11.9a5.13,5.13,0,0,0-3.3,4.2c-.4,3.3-.9,8.7-1.4,13a4.89,4.89,0,0,0,2.1,4.6c3.5,2.6,7.1,5.2,10.6,7.8a5.19,5.19,0,0,0,4.5.8c8.1-2.5,38.5-12.2,38.6-12.2,1-.4,1-3,1-3,.1-3.6,0-8.5,0-10a8,8,0,0,0-.2-2.3,5.3,5.3,0,0,0-.8-1.7c-.2-.3-12-10.8-13.8-12.2A5.1,5.1,0,0,0,1153.75,1645.45Z"/><path class="cls-76" d="M1152.15,1647.85c-9.1,3.1-23,7.9-28.7,9.9a4.17,4.17,0,0,0-2.9,3.5c-.3,2.8-.8,7.2-1.2,10.8a3.87,3.87,0,0,0,1.8,3.8c3.1,2.1,6.3,4.3,9.4,6.4,1.2.8,2.5.7,4,.6,3.2-.2,32.1-8.4,34.1-13.8a17.07,17.07,0,0,0,1-4.9,16.74,16.74,0,0,1,0-2.3,7.57,7.57,0,0,0-.2-1.9,2.9,2.9,0,0,0-.7-1.4c-.2-.2-10.7-9-12.2-10.1A4.91,4.91,0,0,0,1152.15,1647.85Z"/><path class="cls-77" d="M1154.81,1648s-30.8,11-31.21,11c-1.51.11-2.95,3.86-3,7.27a9.82,9.82,0,0,0,1,4.81c1.1,2.12,3.1,3,7,4.92a10,10,0,0,0,3,1,9.66,9.66,0,0,0,3,0c1.06-.17,1-.34,5-2,1.37-.57,2.6-1,3.3-1.31a12.63,12.63,0,0,0,1.7-.69c1.44-.7,1.86-1,6-3.17l1.28-.67a93.15,93.15,0,0,0,9.72-6.16,4.25,4.25,0,0,0,2-2,5,5,0,0,0,0-3.39,10,10,0,0,0-2-3.84,22.35,22.35,0,0,0-2.92-2.89Z"/><path class="cls-78" d="M1150.67,1661.81l-20.78,7.68a5.45,5.45,0,0,1-7.1-3.23h0a5.69,5.69,0,0,1,3.5-7.13l20.78-7.68a5.45,5.45,0,0,1,7.1,3.23h0A5.69,5.69,0,0,1,1150.67,1661.81Z"/><ellipse class="cls-78" cx="1128.5" cy="1666" rx="5.5" ry="6"/><path class="cls-79" d="M1142.76,1662.3l-13.25,4.89a3.35,3.35,0,0,1-4.43-1.8h0a3.49,3.49,0,0,1,2.32-4.28l13.25-4.88a3.34,3.34,0,0,1,4.43,1.79h0A3.5,3.5,0,0,1,1142.76,1662.3Z"/><ellipse class="cls-79" cx="1128" cy="1665.5" rx="3" ry="3.5"/><rect class="cls-63" x="1161.67" y="783.7" width="21.49" height="25.58" transform="translate(1789.51 2072.47) rotate(-150)"/><ellipse class="cls-63" cx="1165.5" cy="808" rx="3.08" ry="10.8" transform="translate(-115.02 1417.52) rotate(-60.19)"/><ellipse class="cls-63" cx="1179.5" cy="786" rx="3.08" ry="10.8" transform="translate(-88.89 1418.61) rotate(-60.19)"/><ellipse class="cls-63" cx="1163.5" cy="792.5" rx="11.98" ry="2.99" transform="translate(-102.77 1407.6) rotate(-60.17)"/><ellipse class="cls-63" cx="1180.5" cy="803.5" rx="11.98" ry="2.99" transform="translate(-103.77 1427.87) rotate(-60.17)"/><circle class="cls-63" cx="1174.5" cy="813.5" r="3.5"/><circle class="cls-63" cx="1156.5" cy="801.5" r="3.5"/><circle class="cls-63" cx="1188.5" cy="792.5" r="3.5"/><circle class="cls-63" cx="1170.5" cy="780.5" r="3.5"/><line class="cls-49" x1="683" y1="1032" x2="683" y2="1012.63"/><polygon points="689.13 1017.6 688.04 1018.62 683 1013.2 677.97 1018.62 676.87 1017.6 683 1011 689.13 1017.6"/><path class="cls-80" d="M334.74,1679.58l2.89-2.37,2.22-1.39,2.08-.93,2.8-1.08,2-.89,4-1.8.46.29.12,4.38c0,.72,0,1.44.07,2.16l.26,3.12,0,2.73-.19,2-.9,3.69h0c-.05.08-.09.17-.15.26-2.9,4.63-8.78,6.18-13.14,3.45s-5.53-8.7-2.62-13.33c.05-.09.11-.16.17-.25Z"/><path class="cls-81" d="M342.26,1684.3c0,.3-.48,6.57-5.81,9.28a10.84,10.84,0,0,1-7.8.65"/><path class="cls-18" d="M1179.71,802.18a6,6,0,0,0-1.11-6.8,8.52,8.52,0,0,1-8.73-5,6,6,0,0,0-6.44,2.44,6.76,6.76,0,0,0-1.08,3.85c-.13,2.45.39,7.64,3.19,8.43a1.58,1.58,0,0,1,2.48,1.43c2.08,2,6.84-.12,8.9-1.45A6.76,6.76,0,0,0,1179.71,802.18Z"/><path class="cls-82" d="M1178.4,794.48l1.29-.54.84-.5.68-.53.84-.74.64-.5,1.28-1v-.2l-1.43-.8-.71-.4-1-.63-.91-.46-.68-.28-1.38-.35h-.11a3.49,3.49,0,1,0,.54,6.94Z"/><path class="cls-83" d="M1171.16,789.5a4.68,4.68,0,0,1,2.75,3.32,4.31,4.31,0,0,1-.7,3"/><path class="cls-84" d="M1171.11,793.43a3.8,3.8,0,0,0,2.1,2.37,3.59,3.59,0,0,0,2.23.13"/><path class="cls-85" d="M1177.08,797.17a4.65,4.65,0,0,1-.37,4.29,4.24,4.24,0,0,1-2.59,1.64"/><path class="cls-18" d="M905.66,671.69a5.5,5.5,0,0,0-1-6.27,7.89,7.89,0,0,1-8.06-4.65,5.49,5.49,0,0,0-5.94,2.24,6.31,6.31,0,0,0-1,3.56c-.12,2.26.36,7,3,7.78a2.61,2.61,0,0,0,1.56-.06,2.68,2.68,0,0,0,.73,1.38c1.92,1.88,6.31-.11,8.21-1.34A6.2,6.2,0,0,0,905.66,671.69Z"/><path class="cls-82" d="M904.45,664.59l1.19-.5.77-.46.63-.49.77-.68.59-.46,1.19-.94v-.19l-1.32-.73-.65-.37-.92-.58-.84-.43-.63-.26-1.27-.32h-.11a3.22,3.22,0,1,0,.5,6.41Z"/><path class="cls-83" d="M897.76,660a4.32,4.32,0,0,1,2.54,3.06,3.88,3.88,0,0,1-.65,2.75"/><path class="cls-84" d="M897.71,663.62a3.51,3.51,0,0,0,1.94,2.18,3.28,3.28,0,0,0,2.06.13"/><path class="cls-85" d="M903.23,667.07a4.33,4.33,0,0,1-.34,4,3.9,3.9,0,0,1-2.39,1.51"/><path class="cls-86" d="M773,802H713V742H700v66a7,7,0,0,0,5.92,6.86l.23,0,.2,0c.11,0,.21,0,.32,0H773"/><line class="cls-87" x1="712" y1="742" x2="701" y2="742"/><path class="cls-88" d="M741,1469v59H729v13h18.33c.11,0,.21,0,.32,0l.2,0,.23,0a7,7,0,0,0,5.92-6.86v-65"/><line class="cls-87" x1="729" y1="1529" x2="729" y2="1540"/><polygon class="cls-89" points="478.4 1603 484.05 1591 490.35 1591 484.63 1598 490.73 1598 477 1614.17 483.86 1603 478.4 1603"/><text class="cls-90" transform="translate(46.2 66.54)">Fertilizer Factory <tspan class="cls-91"><tspan x="0" y="49.2">Design Challenge</tspan></tspan></text><text class="cls-48" transform="translate(1200.06 840.49)">+</text><text class="cls-50" transform="translate(1215.89 829.69)"><tspan class="cls-45">W</tspan><tspan x="10.88" y="0">ater</tspan><tspan x="0.28" y="14.4">(H</tspan><tspan class="cls-51" x="12.94" y="18.4">2</tspan><tspan x="17.95" y="14.4">O)</tspan></text><path class="cls-34" d="M1243.59,799l-1.38-4.15-1.39-2.77-1.38-2.08c-.7-.92-1.39-1.85-2.08-2.77l-1.38-2.08c-.93-1.38-1.85-2.77-2.77-4.15h-.7c-.92,1.38-1.84,2.77-2.77,4.15l-1.38,2.08c-.69.92-1.38,1.85-2.08,2.77l-1.38,2.08-1.39,2.77-1.38,4.15h0c0,.12,0,.23,0,.35,0,6.3,4.8,11.42,10.73,11.42s10.73-5.12,10.73-11.42c0-.12,0-.23,0-.35Z"/><rect class="cls-58" x="1162" y="1622" width="38" height="38"/><text class="cls-92" transform="translate(1168.07 1647.94) scale(1.04 1)">Os</text><text class="cls-93" transform="translate(1164.59 1631.19) scale(1.04 1)">76</text><text class="cls-93" transform="translate(1167.2 1657.07) scale(1.04 1)">190.23</text><text class="cls-94" transform="translate(820 1523)">Lorem ipsum</text><text class="cls-61" transform="translate(786.85 1341.4)">Hydrogen (H<tspan class="cls-95" x="90.7" y="4">2</tspan><tspan x="98.49" y="0">)</tspan><tspan x="14.99" y="19.2">going into </tspan><tspan x="11.44" y="38.4">the reactor:</tspan><tspan class="cls-96"><tspan x="36.34" y="57.6">0.00</tspan></tspan><tspan x="7.88" y="76.8">tons per day</tspan></text><text class="cls-61" transform="translate(1002.76 1341.4)">Ammonia (NH<tspan class="cls-95" x="100.46" y="4">3</tspan><tspan x="108.25" y="0">)</tspan><tspan x="6.54" y="19.2">coming out of </tspan><tspan x="16.32" y="38.4">the reactor:</tspan><tspan class="cls-96"><tspan x="41.22" y="57.6">0.00</tspan></tspan><tspan x="12.76" y="76.8">tons per day</tspan></text><path class="cls-68" d="M1058,1046.92a3.91,3.91,0,0,0-3.92-3.92H800a4,4,0,0,1-1.83-.44l-24.63-12.63a4,4,0,0,0-5.16,5.76l16,24.31a4,4,0,0,1,.66,2.2v101.88a3.91,3.91,0,0,0,3.92,3.92h265.16a3.91,3.91,0,0,0,3.92-3.92Z"/><text class="cls-40" transform="translate(837.24 1066.68)">Chemical Reaction:</text><text class="cls-50" transform="translate(865.67 1128.72)"><tspan class="cls-45">W</tspan><tspan x="10.88" y="0">ater</tspan><tspan x="0.28" y="14.4">(H</tspan><tspan class="cls-51" x="12.94" y="18.4">2</tspan><tspan x="17.95" y="14.4">O)</tspan></text><text class="cls-50" transform="translate(803.22 1128.72)">Carbon<tspan x="-6.34" y="14.4">Monoxide</tspan><tspan x="6.68" y="28.8">(CO)</tspan></text><text class="cls-50" transform="translate(933.57 1128.72)">Carbon <tspan x="1.34" y="14.4">Dioxide</tspan><tspan x="5.85" y="28.8">(CO</tspan><tspan class="cls-51" x="27.84" y="32.8">2</tspan><tspan x="32.85" y="28.8">)</tspan></text><text class="cls-50" transform="translate(996.88 1128.72)">Hydrogen<tspan x="15.18" y="14.4">(H</tspan><tspan class="cls-51" x="27.85" y="18.4">2</tspan><tspan x="32.85" y="14.4">)</tspan></text><text class="cls-48" transform="translate(849.83 1136.52)">+</text><text class="cls-48" transform="translate(980.71 1136.52)">+</text><line class="cls-49" x1="902" y1="1131" x2="924.37" y2="1131"/><polygon points="919.4 1137.13 918.38 1136.04 923.8 1131 918.38 1125.96 919.4 1124.87 926 1131 919.4 1137.13"/><path class="cls-34" d="M893.37,1098c-.46-1.38-.92-2.77-1.39-4.15l-1.38-2.77-1.38-2.08c-.7-.92-1.39-1.85-2.08-2.77l-1.39-2.08c-.92-1.38-1.84-2.77-2.77-4.15h-.69c-.92,1.38-1.84,2.77-2.77,4.15l-1.38,2.08-2.08,2.77-1.38,2.08c-.46.92-.93,1.84-1.39,2.77l-1.38,4.15h0c0,.12,0,.23,0,.35,0,6.3,4.8,11.42,10.73,11.42s10.73-5.12,10.73-11.42c0-.12,0-.23,0-.35Z"/><circle class="cls-47" cx="1008.5" cy="1094.5" r="8.5"/><circle class="cls-47" cx="1032.5" cy="1097.5" r="11.5"/><circle class="cls-47" cx="1024.5" cy="1089.5" r="8.5"/><circle class="cls-47" cx="1015" cy="1101" r="11"/><circle class="cls-47" cx="1013.5" cy="1086.5" r="4.5"/><circle class="cls-47" cx="1024.5" cy="1106.5" r="4.5"/><circle class="cls-53" cx="809.5" cy="1094.5" r="8.5"/><circle class="cls-53" cx="833.5" cy="1097.5" r="11.5"/><circle class="cls-53" cx="825.5" cy="1089.5" r="8.5"/><circle class="cls-53" cx="816" cy="1101" r="11"/><circle class="cls-53" cx="814.5" cy="1086.5" r="4.5"/><circle class="cls-53" cx="825.5" cy="1106.5" r="4.5"/><circle cx="823" cy="1083" r="8"/><rect x="808.54" y="1096.22" width="27.74" height="3.58" transform="translate(1103.72 2440.72) rotate(-155)"/><circle cx="809" cy="1095" r="2"/><circle cx="811" cy="1090" r="2"/><circle cx="834" cy="1106" r="2"/><circle cx="836" cy="1102" r="2"/><rect x="809.77" y="1096.34" width="27.74" height="3.58" transform="translate(-386.92 450.97) rotate(-25)"/><circle cx="835" cy="1090" r="2"/><circle cx="836" cy="1095" r="2"/><circle cx="810" cy="1102" r="2"/><circle cx="811" cy="1106" r="2"/><circle class="cls-54" cx="819.5" cy="1082.5" r="2.5"/><circle class="cls-54" cx="826.5" cy="1082.5" r="2.5"/><circle class="cls-55" cx="942.5" cy="1094.5" r="8.5"/><circle class="cls-55" cx="966.5" cy="1097.5" r="11.5"/><circle class="cls-55" cx="958.5" cy="1089.5" r="8.5"/><circle class="cls-55" cx="949" cy="1101" r="11"/><circle class="cls-55" cx="947.5" cy="1086.5" r="4.5"/><circle class="cls-55" cx="958.5" cy="1106.5" r="4.5"/><circle cx="950" cy="1092" r="3"/><circle cx="960" cy="1092" r="3"/><path class="cls-49" d="M960,1104c0-2.21-2.24-4-5-4s-5,1.79-5,4"/><text class="cls-61" transform="translate(822.54 969.72)">Carbon dioxide (CO<tspan class="cls-95" x="141.4" y="4">2</tspan><tspan x="149.18" y="0">) </tspan><tspan x="0" y="19.2">leaving the reactor: </tspan><tspan class="cls-96"><tspan x="0" y="38.4">0.00</tspan><tspan class="cls-82" x="31.14" y="38.4" xml:space="preserve"> tons per day</tspan></tspan></text><path class="cls-97" d="M1219.08,903.09l-.23,0-.2,0c-.11,0-.21,0-.32,0H972V809a7,7,0,0,0-5.92-6.86l-.23,0-.2,0c-.11,0-.21,0-.32,0H905V742H892v60H832v13h66.33c.11,0,.21,0,.32,0l.2,0,.15,0V815h60v94a7,7,0,0,0,5.92,6.86l.23,0,.2,0c.11,0,.21,0,.32,0H1212v380h13V910A7,7,0,0,0,1219.08,903.09Z"/><line class="cls-87" x1="893" y1="742" x2="904" y2="742"/><line class="cls-87" x1="832" y1="814" x2="832" y2="803"/><line class="cls-87" x1="1213" y1="1296" x2="1224" y2="1296"/></g><g id="Layer_4" data-name="Layer 4"><rect class="cls-98" x="655.45" y="196" width="299.55" height="152" rx="3"/><text class="cls-50" transform="translate(56.92 1171.59)">Amount of methane (CH<tspan x="129.39" y="4">4</tspan><tspan x="136.07" y="0">) </tspan><tspan x="0" y="14.4" xml:space="preserve">to start with:                                       </tspan><tspan class="cls-99" x="194.71" y="14.4"> </tspan><tspan x="194.74" y="14.4">1 ton per day</tspan><tspan x="0" y="34.8">Cost of methane (CH</tspan><tspan x="112.71" y="38.8">4</tspan><tspan x="119.38" y="34.8" xml:space="preserve">):                       </tspan><tspan class="cls-100" x="203.4" y="34.8"> </tspan><tspan x="204.23" y="34.8">$50 per ton</tspan></text><path class="cls-53" d="M33.73,1143.52,9.38,1132.45q27.72-1.26,53.87-2c4.2-.11,7.75,1.4,7.75,3.3v19.6c0,1.75-3,3.19-6.88,3.29q-26.88.74-51.84,1.87Z"/><path class="cls-71" d="M48.25,1150.06q10-19.89,17.4-19.58,2.88.12,5.35,3.3v19.6c0,1.75-2.08,3.19-4.75,3.29-3.13.13-6-.66-9.9-2.24A38.88,38.88,0,0,1,48.25,1150.06Z"/><path class="cls-53" d="M345.27,1143.52l24.35-11.07q-27.72-1.26-53.87-2c-4.2-.11-7.75,1.4-7.75,3.3v19.6c0,1.75,3,3.19,6.88,3.29q26.88.74,51.84,1.87Z"/><path class="cls-71" d="M330.75,1150.06q-10-19.89-17.4-19.58-2.88.12-5.35,3.3v19.6c0,1.75,2.08,3.19,4.75,3.29,3.13.13,6-.66,9.9-2.24A38.88,38.88,0,0,0,330.75,1150.06Z"/><rect class="cls-56" x="48" y="1122" width="285" height="28" rx="3"/><text class="cls-40" transform="translate(67.98 1143.14)">Make Hydrogen from Methane</text><text class="cls-50" transform="translate(56.92 1618.19)"><tspan xml:space="preserve">Cost of electricity:                       </tspan><tspan class="cls-100" x="171.38" y="0" xml:space="preserve">                          </tspan><tspan class="cls-101" x="193.05" y="0" xml:space="preserve">  </tspan><tspan class="cls-102" x="194.16" y="0" xml:space="preserve">  </tspan><tspan x="194.71" y="0">$140 per day</tspan><tspan x="0" y="20.4">Amount of hydrogen (H</tspan><tspan x="124.07" y="24.4">2</tspan><tspan x="130.74" y="20.4">) </tspan><tspan x="0" y="34.8" xml:space="preserve">made to start with:                      </tspan><tspan class="cls-100" x="171.39" y="34.8"> </tspan><tspan x="172.22" y="34.8" xml:space="preserve">  3.6 tons per day</tspan><tspan x="0" y="55.2">Carbon dioxide (CO</tspan><tspan x="106.05" y="59.2">2</tspan><tspan x="112.72" y="55.2" xml:space="preserve">) made              </tspan><tspan x="0" y="69.6" xml:space="preserve">&amp; sent into the atmosphere:            </tspan><tspan class="cls-103" x="186.76" y="69.6"> </tspan><tspan x="188.71" y="69.6">0 tons per day</tspan></text><path class="cls-104" d="M34.73,1589.68l-24.35-11.07q27.72-1.26,53.87-2c4.2-.11,7.75,1.39,7.75,3.3v19.6c0,1.74-3,3.19-6.88,3.29q-26.88.74-51.84,1.87Z"/><path class="cls-105" d="M49.25,1596.22q10-19.89,17.4-19.58,2.88.12,5.35,3.3v19.6c0,1.74-2.08,3.19-4.75,3.29-3.13.13-6-.66-9.9-2.24A39.36,39.36,0,0,1,49.25,1596.22Z"/><path class="cls-104" d="M345.27,1589.68l24.35-11.07q-27.72-1.26-53.87-2c-4.2-.11-7.75,1.39-7.75,3.3v19.6c0,1.74,3,3.19,6.88,3.29q26.88.74,51.84,1.87Z"/><path class="cls-105" d="M330.75,1596.22q-10-19.89-17.4-19.58-2.88.12-5.35,3.3v19.6c0,1.74,2.08,3.19,4.75,3.29,3.13.13,6-.66,9.9-2.24A39.36,39.36,0,0,0,330.75,1596.22Z"/><rect class="cls-106" x="48" y="1569" width="285" height="28" rx="3"/><text class="cls-40" transform="translate(79.84 1589.3)">Make Hydrogen from <tspan class="cls-45" x="173.07" y="0">W</tspan><tspan x="189.39" y="0">ater</tspan></text><path class="cls-80" d="M827.75,593.14l2.88-2.38,2.23-1.38,2.08-.94,2.8-1.08,2-.89,4-1.79.47.29.12,4.37.06,2.17.27,3.11,0,2.74-.19,2-.9,3.69h0a2.2,2.2,0,0,1-.15.26c-2.9,4.64-8.78,6.18-13.14,3.46s-5.53-8.7-2.62-13.34l.17-.24Z"/><path class="cls-81" d="M835.27,597.86c0,.3-.48,6.57-5.81,9.27a10.86,10.86,0,0,1-7.8.66"/><text class="cls-50" transform="translate(551.42 572.42)">Cost to put carbon dioxide<tspan x="0" y="14.4">(CO</tspan><tspan x="22" y="18.4">2</tspan><tspan x="28.67" y="14.4">) in the ground so it</tspan><tspan x="0" y="28.8" xml:space="preserve">doesnt get in the atmosphere:      </tspan><tspan class="cls-107" x="181.44" y="28.8"> </tspan><tspan x="182.83" y="28.8">$5 per ton CO</tspan><tspan x="258.21" y="32.8">2</tspan></text><path class="cls-108" d="M539.73,545.34l-24.35-11.06q27.72-1.26,53.87-2c4.2-.12,7.75,1.39,7.75,3.29v19.6c0,1.75-3,3.19-6.88,3.3q-26.88.72-51.84,1.86Z"/><path class="cls-70" d="M554.25,551.88q10-19.87,17.4-19.57,2.88.12,5.35,3.29v19.6c0,1.75-2.08,3.19-4.75,3.3-3.13.12-6-.66-9.9-2.25A38.88,38.88,0,0,1,554.25,551.88Z"/><path class="cls-108" d="M850.27,542.34l24.35-11.06q-27.72-1.26-53.87-2c-4.2-.12-7.75,1.39-7.75,3.29v19.6c0,1.75,3,3.19,6.88,3.3q26.88.72,51.84,1.86Z"/><path class="cls-70" d="M835.75,548.88q-10-19.87-17.4-19.57-2.88.12-5.35,3.29v19.6c0,1.75,2.08,3.19,4.75,3.3,3.13.12,6-.66,9.9-2.25A38.88,38.88,0,0,0,835.75,548.88Z"/><rect class="cls-64" x="553" y="521" width="285" height="28" rx="3"/><text class="cls-40" transform="translate(574.97 541.96)">Stop Carbon Dioxide Pollution </text><path class="cls-97" d="M905,640V617h123V604H899a7,7,0,0,0-7,7v29"/><rect class="cls-63" x="1099.19" y="576.1" width="25.99" height="30.94" transform="translate(1779.59 1659.98) rotate(-150)"/><ellipse class="cls-63" cx="1103.5" cy="605.5" rx="3.82" ry="13.19" transform="translate(18.83 1244.12) rotate(-59.24)"/><ellipse class="cls-63" cx="1120.5" cy="578.5" rx="3.82" ry="13.19" transform="translate(50.34 1245.53) rotate(-59.24)"/><ellipse class="cls-63" cx="1101" cy="586.5" rx="14.38" ry="3.64" transform="translate(33.75 1232.38) rotate(-59.23)"/><ellipse class="cls-63" cx="1122" cy="600.5" rx="14.38" ry="3.64" transform="translate(31.98 1257.26) rotate(-59.23)"/><circle class="cls-63" cx="1115" cy="612" r="4"/><circle class="cls-63" cx="1093" cy="598" r="4"/><circle class="cls-63" cx="1132" cy="587" r="4"/><circle class="cls-63" cx="1110" cy="572" r="4"/><path class="cls-18" d="M1121,598.45c1.08-2.34,1.12-6-1.35-8.22a10.32,10.32,0,0,1-10.56-6.1c-3.14-1-6.3.84-7.79,3a8.2,8.2,0,0,0-1.3,4.66c-.16,3,.47,9.24,3.86,10.19a1.92,1.92,0,0,1,3,1.73c2.51,2.46,8.27-.14,10.76-1.75A8.29,8.29,0,0,0,1121,598.45Z"/><path class="cls-82" d="M1119.43,589.14l1.56-.66,1-.6.81-.64,1-.89.77-.61,1.56-1.22,0-.25-1.73-1-.85-.48-1.2-.76-1.1-.57-.83-.33-1.67-.42h-.13a4.22,4.22,0,1,0,.65,8.39Z"/><path class="cls-83" d="M1110.67,583.11a5.68,5.68,0,0,1,3.32,4,5.11,5.11,0,0,1-.84,3.6"/><path class="cls-84" d="M1110.61,587.87a4.58,4.58,0,0,0,2.54,2.86,4.3,4.3,0,0,0,2.7.16"/><path class="cls-85" d="M1117.84,592.39a5.71,5.71,0,0,1-.45,5.2,5.14,5.14,0,0,1-3.13,2"/><line class="cls-49" x1="1038" y1="610" x2="1069.37" y2="610"/><polygon points="1064.4 616.13 1063.38 615.04 1068.8 610 1063.38 604.97 1064.4 603.87 1071 610 1064.4 616.13"/><text class="cls-40" transform="translate(1094.44 634.07)">Urea<tspan x="-19.66" y="21.6">(CH</tspan><tspan class="cls-41" x="12.33" y="25.6">4</tspan><tspan x="19.01" y="21.6">N</tspan><tspan class="cls-41" x="32.01" y="25.6">2</tspan><tspan x="38.68" y="21.6">O)</tspan></text><path class="cls-34" d="M1224.54,593c-.67-2-1.33-4-2-6-.67-1.33-1.33-2.67-2-4l-2-3-3-4-2-3-4-6h-1l-4,6-2,3-3,4-2,3c-.67,1.33-1.33,2.67-2,4-.67,2-1.33,4-2,6h0c0,.17,0,.33,0,.5,0,9.11,6.94,16.5,15.5,16.5s15.5-7.39,15.5-16.5c0-.17,0-.33,0-.5Z"/><text class="cls-40" transform="translate(1186.17 634.07)"><tspan class="cls-45">W</tspan><tspan x="16.32" y="0">ater</tspan><tspan x="0.84" y="21.6">(H</tspan><tspan class="cls-41" x="19.83" y="25.6">2</tspan><tspan x="26.5" y="21.6">O)</tspan></text><text class="cls-48" transform="translate(1163.06 646.87)">+</text><text class="cls-61" transform="translate(906.1 533.88)">Urea (CH<tspan class="cls-95" x="67.56" y="4">4</tspan><tspan x="75.35" y="0">N</tspan><tspan class="cls-95" x="86.9" y="4">2</tspan><tspan x="94.69" y="0">O) </tspan><tspan x="34" y="19.2">made: </tspan><tspan class="cls-96"><tspan x="40.66" y="38.4">0.00</tspan><tspan class="cls-82" x="71.8" y="38.4"> </tspan></tspan><tspan x="14.43" y="57.6">tons per day</tspan></text><path class="cls-38" d="M927.25,427.88q10-19.87,17.4-19.57,2.88.12,5.35,3.29v19.6c0,1.75-2.08,3.19-4.75,3.3-3.13.12-6-.66-9.9-2.25A38.88,38.88,0,0,1,927.25,427.88Z"/><path class="cls-109" d="M912.73,421.34l-24.35-11.06q27.72-1.26,53.87-2c4.2-.12,7.75,1.39,7.75,3.29v19.6c0,1.75-3,3.19-6.88,3.3q-26.88.72-51.84,1.86Z"/><path class="cls-38" d="M927.25,427.88q10-19.87,17.4-19.57c1.92.08,3.7,1.17,5.35,3.29v19.6c0,1.75-2.08,3.19-4.75,3.29-3.13.13-6-.65-9.9-2.24A38.88,38.88,0,0,1,927.25,427.88Z"/><circle class="cls-55" cx="1212.5" cy="460.5" r="5.5"/><circle class="cls-55" cx="1227.5" cy="462.5" r="7.5"/><circle class="cls-55" cx="1222.5" cy="456.5" r="5.5"/><circle class="cls-55" cx="1216" cy="464" r="7"/><circle class="cls-55" cx="1216" cy="455" r="3"/><circle class="cls-55" cx="1223" cy="468" r="3"/><circle cx="1217" cy="459" r="2"/><circle cx="1224" cy="459" r="2"/><path class="cls-49" d="M1223.26,466.34c0-1.43-1.45-2.58-3.23-2.58s-3.22,1.15-3.22,2.58"/><text class="cls-50" transform="translate(935.42 451.42)">Money earned by selling urea<tspan x="0" y="14.4">(CH</tspan><tspan x="21.33" y="18.4">4</tspan><tspan x="28" y="14.4">N</tspan><tspan x="36.67" y="18.4">2</tspan><tspan x="43.34" y="14.4" xml:space="preserve">O) fertilizer:                   </tspan><tspan class="cls-107" x="168.69" y="14.4"> </tspan><tspan x="170.08" y="14.4">$125 per ton urea</tspan><tspan x="0" y="34.8">Note: when urea (CH</tspan><tspan x="112.72" y="38.8">4</tspan><tspan x="119.39" y="34.8">N</tspan><tspan x="128.06" y="38.8">2</tspan><tspan x="134.73" y="34.8">O) fertilizer is used, </tspan><tspan x="0" y="49.2">CO</tspan><tspan x="18" y="53.2">2</tspan><tspan x="24.67" y="49.2" xml:space="preserve"> escapes back into the atmosphere.</tspan></text><path class="cls-109" d="M1223.27,421.34l24.35-11.06q-27.72-1.26-53.87-2c-4.2-.12-7.75,1.39-7.75,3.29v19.6c0,1.75,3,3.19,6.88,3.3q26.88.72,51.84,1.86Z"/><path class="cls-38" d="M1208.75,427.88q-10-19.87-17.4-19.57-2.88.12-5.35,3.29v19.6c0,1.75,2.08,3.19,4.75,3.3,3.13.12,6-.66,9.9-2.25A38.88,38.88,0,0,0,1208.75,427.88Z"/><rect class="cls-110" x="926" y="400" width="285" height="28" rx="3"/><text class="cls-40" transform="translate(987.5 420.96)">Make Urea Fertilizer</text><text class="cls-50" transform="translate(927.92 1789.27)"><tspan xml:space="preserve">Cost of iron catalyst:                       </tspan><tspan class="cls-100" x="185.39" y="0" xml:space="preserve">                          </tspan><tspan class="cls-101" x="207.06" y="0" xml:space="preserve">  </tspan><tspan x="208.17" y="0">$1 per day</tspan><tspan x="0" y="20.4" xml:space="preserve">Cost of osmium catalyst:                   </tspan><tspan class="cls-100" x="194.05" y="20.4"> </tspan><tspan x="194.88" y="20.4">$100 per day</tspan><tspan x="0" y="40.8">Money earned by selling </tspan><tspan x="0" y="55.2">ammonia (NH</tspan><tspan x="74.02" y="59.2">3</tspan><tspan x="80.69" y="55.2" xml:space="preserve">) fertilizer:           $100 per ton NH</tspan><tspan x="258.09" y="59.2">3</tspan></text><path class="cls-111" d="M905.73,1760.75l-24.35-11.06q27.72-1.26,53.87-2c4.2-.12,7.75,1.39,7.75,3.3v19.59c0,1.75-3,3.19-6.88,3.3q-26.88.72-51.84,1.86Z"/><path class="cls-19" d="M920.25,1767.29q10-19.87,17.4-19.57,2.88.12,5.35,3.3v19.59c0,1.75-2.08,3.19-4.75,3.3-3.13.12-6-.66-9.9-2.24A39.47,39.47,0,0,1,920.25,1767.29Z"/><path class="cls-111" d="M1216.27,1760.75l24.35-11.06q-27.72-1.26-53.87-2c-4.2-.12-7.75,1.39-7.75,3.3v19.59c0,1.75,3,3.19,6.88,3.3q26.88.72,51.84,1.86Z"/><path class="cls-19" d="M1201.75,1767.29q-10-19.87-17.4-19.57-2.88.12-5.35,3.3v19.59c0,1.75,2.08,3.19,4.75,3.3,3.13.12,6-.66,9.9-2.24A39.47,39.47,0,0,0,1201.75,1767.29Z"/><rect class="cls-20" x="919" y="1740" width="285" height="28" rx="3"/><text class="cls-40" transform="translate(962.01 1760.37)">Make<tspan class="cls-112" x="44.02" y="0"> </tspan><tspan x="48.02" y="0">Ammonia Fertilizer</tspan></text><path class="cls-58" d="M530,614H257.05a4.12,4.12,0,0,0-4.05,4.19V845.81a4.12,4.12,0,0,0,4.05,4.19H484.4a4.08,4.08,0,0,1,4,3.32q2.92,14.19,5.84,28.38a4,4,0,0,0,7.91.07l6.45-28.53a4.09,4.09,0,0,1,3.95-3.24H530a4.12,4.12,0,0,0,4-4.19V618.19A4.12,4.12,0,0,0,530,614Z"/><text class="cls-40" transform="translate(313.38 640.78)">Chemical Reaction:</text><text class="cls-50" transform="translate(326.21 701.98)"><tspan class="cls-45">W</tspan><tspan x="10.88" y="0">ater</tspan><tspan x="0.28" y="14.4">(H</tspan><tspan class="cls-51" x="12.94" y="18.4">2</tspan><tspan x="17.95" y="14.4">O)</tspan></text><text class="cls-50" transform="translate(262.43 701.98)">Methane <tspan x="9.85" y="14.4">(CH</tspan><tspan class="cls-51" x="31.18" y="18.4">4</tspan><tspan x="36.19" y="14.4">)</tspan></text><text class="cls-50" transform="translate(398.12 701.98)">Carbon <tspan x="-4.67" y="14.4">Monoxide</tspan><tspan x="8.35" y="28.8">(CO)</tspan></text><text class="cls-50" transform="translate(461.43 701.98)">Hydrogen<tspan x="15.18" y="14.4">(H</tspan><tspan class="cls-51" x="27.85" y="18.4">2</tspan><tspan x="32.85" y="14.4">)</tspan></text><text class="cls-48" transform="translate(311.38 709.78)">+</text><text class="cls-48" transform="translate(448.25 709.78)">+</text><line class="cls-49" x1="362" y1="705" x2="385.37" y2="705"/><polygon points="380.4 711.13 379.38 710.03 384.8 705 379.38 699.97 380.4 698.87 387 705 380.4 711.13"/><path class="cls-34" d="M353.92,671l-1.39-4.15-1.38-2.77c-.46-.7-.93-1.39-1.39-2.08l-2.07-2.77c-.47-.69-.93-1.38-1.39-2.08-.92-1.38-1.84-2.77-2.77-4.15h-.69l-2.77,4.15-1.38,2.08c-.7.92-1.39,1.85-2.08,2.77l-1.39,2.08-1.38,2.77L332.46,671h0c0,.12,0,.23,0,.35,0,6.3,4.8,11.42,10.73,11.42s10.73-5.12,10.73-11.42c0-.12,0-.23,0-.35Z"/><circle class="cls-39" cx="274.5" cy="665.5" r="8.5"/><circle class="cls-39" cx="298.5" cy="668.5" r="11.5"/><circle class="cls-39" cx="290.5" cy="660.5" r="8.5"/><circle class="cls-39" cx="281" cy="672" r="11"/><circle class="cls-39" cx="279.5" cy="657.5" r="4.5"/><circle class="cls-39" cx="290.5" cy="677.5" r="4.5"/><circle class="cls-47" cx="472.5" cy="667.5" r="8.5"/><circle class="cls-47" cx="496.5" cy="670.5" r="11.5"/><circle class="cls-47" cx="488.5" cy="662.5" r="8.5"/><circle class="cls-47" cx="479" cy="674" r="11"/><circle class="cls-47" cx="477.5" cy="659.5" r="4.5"/><circle class="cls-47" cx="488.5" cy="679.5" r="4.5"/><circle class="cls-53" cx="406.5" cy="667.5" r="8.5"/><circle class="cls-53" cx="430.5" cy="670.5" r="11.5"/><circle class="cls-53" cx="422.5" cy="662.5" r="8.5"/><circle class="cls-53" cx="413" cy="674" r="11"/><circle class="cls-53" cx="411.5" cy="659.5" r="4.5"/><circle class="cls-53" cx="422.5" cy="679.5" r="4.5"/><circle cx="420" cy="656" r="8"/><rect x="405.58" y="669.2" width="27.74" height="3.58" transform="translate(516.04 1456.38) rotate(-155)"/><circle cx="406" cy="668" r="2"/><circle cx="408" cy="663" r="2"/><circle cx="431" cy="679" r="2"/><circle cx="433" cy="675" r="2"/><rect x="406.82" y="669.31" width="27.74" height="3.58" transform="translate(-244.2 240.67) rotate(-25)"/><circle cx="432" cy="663" r="2"/><circle cx="433" cy="668" r="2"/><circle cx="407" cy="675" r="2"/><circle cx="408" cy="679" r="2"/><circle class="cls-54" cx="416.5" cy="655.5" r="2.5"/><circle class="cls-54" cx="423.5" cy="655.5" r="2.5"/><text class="cls-62" transform="translate(259.43 753.73)"><tspan class="cls-113">T</tspan><tspan x="7" y="0">emperature (</tspan><tspan class="cls-103" x="87.14" y="-5">O</tspan><tspan x="92.59" y="0">C):</tspan></text><line class="cls-114" x1="382" y1="750.5" x2="512" y2="750.5"/><text class="cls-115" transform="translate(374 770.47)">300</text><text class="cls-115" transform="translate(502.32 770.47)">800</text><text class="cls-115" transform="translate(476.65 770.47)">700</text><text class="cls-115" transform="translate(399.66 770.47)">400</text><text class="cls-115" transform="translate(425.33 770.47)">500</text><text class="cls-115" transform="translate(450.99 770.47)">600</text><line class="cls-116" x1="383" y1="750" x2="383" y2="758"/><line class="cls-116" x1="511" y1="750" x2="511" y2="758"/><line class="cls-116" x1="409" y1="750" x2="409" y2="758"/><line class="cls-116" x1="434" y1="750" x2="434" y2="758"/><line class="cls-116" x1="460" y1="750" x2="460" y2="758"/><line class="cls-116" x1="485" y1="750" x2="485" y2="758"/><circle class="cls-55" cx="504.5" cy="829.5" r="5.5"/><circle class="cls-55" cx="519.5" cy="831.5" r="7.5"/><circle class="cls-55" cx="514.5" cy="826.5" r="5.5"/><circle class="cls-55" cx="509" cy="834" r="7"/><circle class="cls-55" cx="508" cy="825" r="3"/><circle class="cls-55" cx="515" cy="837" r="3"/><circle cx="509" cy="828" r="2"/><circle cx="516" cy="828" r="2"/><path class="cls-49" d="M515.39,835.84c0-1.43-1.45-2.58-3.23-2.58s-3.22,1.15-3.22,2.58"/><text class="cls-50" transform="translate(259.92 794.1)">Carbon dioxide (CO<tspan x="106.05" y="4">2</tspan><tspan x="112.72" y="0" xml:space="preserve">)             </tspan><tspan x="0" y="14.4">made &amp; sent into the </tspan><tspan x="0" y="28.8" xml:space="preserve">atmosphere by burning  </tspan><tspan x="0" y="43.2" xml:space="preserve">fuel to heat the reactor:  </tspan><tspan class="cls-103" x="130.08" y="43.2"> </tspan><tspan x="132.02" y="43.2">5 tons CO</tspan><tspan x="186.05" y="47.2">2</tspan><tspan x="192.72" y="43.2" xml:space="preserve"> per day </tspan></text><line class="cls-87" x1="1028" y1="605" x2="1028" y2="616"/><text class="cls-40" transform="translate(52.24 214.91)"><tspan xml:space="preserve">Methane cost ($ per day):  </tspan><tspan class="cls-107"><tspan x="0" y="6" xml:space="preserve">  </tspan></tspan><tspan x="0" y="27.6">Cost to stop carbon </tspan><tspan x="0" y="49.2">dioxide pollution ($ per day):</tspan><tspan x="0" y="76.8">Catalyst cost ($ per day):</tspan><tspan x="0" y="104.4">Electricity cost ($ per day):</tspan><tspan class="cls-117"><tspan class="cls-118" x="0" y="138">T</tspan><tspan x="9.66" y="138">otal costs ($ per day):</tspan></tspan></text><rect class="cls-119" x="47.2" y="162.1" width="280" height="29" rx="3"/><text class="cls-120" transform="translate(126.34 183.35)">Factory Costs</text><line class="cls-49" x1="47.2" y1="331" x2="327.2" y2="331"/><text class="cls-40" transform="translate(358.04 214.91)">Money earned selling <tspan x="0" y="21.6">ammonia ($ per day):</tspan><tspan x="0" y="49.2">Money earned selling</tspan><tspan x="0" y="70.8">urea ($ per day):</tspan><tspan class="cls-117"><tspan class="cls-118" x="0" y="104.4">T</tspan><tspan x="9.66" y="104.4">otal earnings ($ per day):</tspan></tspan></text><rect class="cls-82" x="353" y="162.1" width="280" height="29" rx="3"/><text class="cls-120" transform="translate(417.54 183.35)">Factory Earnings</text><line class="cls-49" x1="353" y1="296" x2="633" y2="296"/><text class="cls-40" transform="translate(660.04 214.91)">Ammonia made (tons per day):<tspan x="0" y="27.6">Urea made (tons per day): </tspan><tspan x="0" y="55.2">Profit, equal to earnings</tspan><tspan x="0" y="76.8">- costs ($ per day):</tspan><tspan x="0" y="104.4">Carbon dioxide pollution</tspan><tspan x="0" y="126">made (tons per day):</tspan></text><rect class="cls-20" x="655.45" y="162.1" width="299.55" height="29" rx="3"/><text class="cls-120" transform="translate(689.12 183.35)">Overall Factory Statistics</text></g></svg>